<svg width="44" height="44" viewBox="0 0 44 44" fill="none" xmlns="http://www.w3.org/2000/svg">
<path fill-rule="evenodd" clip-rule="evenodd" d="M7.79297 9.16667C7.79297 7.82953 8.32414 6.54717 9.26964 5.60167C10.2151 4.65617 11.4975 4.125 12.8346 4.125H27.4775C27.9871 4.125 28.4893 4.2464 28.9427 4.47913C29.396 4.71186 29.7874 5.04924 30.0845 5.46333L35.6083 13.1578C35.9988 13.7042 36.2096 14.3587 36.2096 15.0278V34.8333C36.2096 36.1705 35.6785 37.4528 34.733 38.3983C33.7875 39.3438 32.5051 39.875 31.168 39.875H12.8346C11.4975 39.875 10.2151 39.3438 9.26964 38.3983C8.32414 37.4528 7.79297 36.1705 7.79297 34.8333V9.16667ZM12.8346 6.875C11.5696 6.875 10.543 7.90167 10.543 9.16667V34.8333C10.543 36.0983 11.5696 37.125 12.8346 37.125H31.168C32.433 37.125 33.4596 36.0983 33.4596 34.8333V16.3112H27.5013C27.1366 16.3112 26.7869 16.1663 26.529 15.9084C26.2712 15.6506 26.1263 15.3008 26.1263 14.9362V6.875H12.8346Z" fill="#00B215"/>
<path d="M22.5 25.0233V18H27.8333V20H23.8333V27.3333C23.8332 27.9203 23.6394 28.4909 23.282 28.9565C22.9245 29.4221 22.4234 29.7568 21.8564 29.9087C21.2894 30.0605 20.6881 30.021 20.1458 29.7963C19.6036 29.5716 19.1506 29.1742 18.8571 28.6658C18.5637 28.1574 18.4462 27.5664 18.5228 26.9844C18.5995 26.4025 18.8661 25.8621 19.2812 25.447C19.6963 25.032 20.2367 24.7655 20.8187 24.6889C21.4007 24.6123 21.9916 24.7298 22.5 25.0233Z" fill="#00B215"/>
</svg>
