<svg width="18" height="18" viewBox="0 0 18 18" fill="none" xmlns="http://www.w3.org/2000/svg">
<path d="M10.0119 15.312C9.88372 15.533 9.69971 15.7165 9.47831 15.844C9.25691 15.9715 9.00589 16.0386 8.75039 16.0386C8.49489 16.0386 8.24387 15.9715 8.02247 15.844C7.80107 15.7165 7.61706 15.533 7.48886 15.312M13.1257 6.12397C13.1257 4.88651 12.6648 3.69935 11.8444 2.8243C11.0241 1.94925 9.90983 1.45703 8.75039 1.45703C7.59095 1.45703 6.47744 1.94852 5.65635 2.8243C4.83599 3.69935 4.37513 4.88651 4.37513 6.12397C4.37513 11.569 2.1875 13.1244 2.1875 13.1244H15.3133C15.3133 13.1244 13.1257 11.569 13.1257 6.12397Z" stroke="#535354" stroke-width="1.25007" stroke-linecap="round" stroke-linejoin="round"/>
</svg>
