<svg width="75" height="73" viewBox="0 0 75 73" fill="none" xmlns="http://www.w3.org/2000/svg">
<rect width="75" height="72.5304" rx="36.2652" fill="#316AFF"/>
<mask id="mask0_31_7737" style="mask-type:alpha" maskUnits="userSpaceOnUse" x="9" y="9" width="55" height="55">
<rect x="9.06641" y="9.06641" width="54.3978" height="54.3978" fill="#D9D9D9"/>
</mask>
<g mask="url(#mask0_31_7737)">
<circle cx="37.2344" cy="32.5156" r="18" fill="white"/>
<path d="M33.0922 46.6896L49.0715 30.7103L45.8983 27.5371L33.0922 40.3432L26.6324 33.8835L23.4592 37.0567L33.0922 46.6896ZM36.2654 58.9291C33.1299 58.9291 30.1834 58.3338 27.4257 57.1431C24.668 55.9539 22.2693 54.3393 20.2293 52.2994C18.1894 50.2595 16.5749 47.8607 15.3857 45.103C14.195 42.3454 13.5996 39.3988 13.5996 36.2634C13.5996 33.128 14.195 30.1814 15.3857 27.4238C16.5749 24.6661 18.1894 22.2673 20.2293 20.2274C22.2693 18.1875 24.668 16.5722 27.4257 15.3815C30.1834 14.1923 33.1299 13.5977 36.2654 13.5977C39.4008 13.5977 42.3473 14.1923 45.105 15.3815C47.8627 16.5722 50.2615 18.1875 52.3014 20.2274C54.3413 22.2673 55.9558 24.6661 57.145 27.4238C58.3357 30.1814 58.9311 33.128 58.9311 36.2634C58.9311 39.3988 58.3357 42.3454 57.145 45.103C55.9558 47.8607 54.3413 50.2595 52.3014 52.2994C50.2615 54.3393 47.8627 55.9539 45.105 57.1431C42.3473 58.3338 39.4008 58.9291 36.2654 58.9291Z" fill="#316AFF"/>
</g>
</svg>
