<svg width="382" height="319" viewBox="0 0 382 319" fill="none" xmlns="http://www.w3.org/2000/svg">
<path d="M317.019 183.544C317.019 183.544 315.14 178.344 311.425 167.733C307.929 157.7 298.988 131.725 299.714 119.025C301.61 85.6472 336.098 61.2277 350.327 26.4774C358.123 7.45044 354.977 1.52472 359.618 0.0476585C364.258 -1.4294 376.355 31.7127 360.002 59.7069C360.002 59.7069 375.035 57.5394 377.185 61.8744C379.335 66.2095 370.149 75.2204 362.432 78.6465C362.432 78.6465 380.969 84.4586 381.66 90.8825C382.35 97.3064 366.933 102.411 359.81 102.935C359.81 102.935 371.242 108.004 370.927 113.012C370.455 120.721 353.526 120.712 353.526 120.712C353.526 120.712 360.894 124.462 359.644 128.071C357.983 132.983 344.698 133.892 344.698 133.892C344.698 133.892 349.025 147.255 332.095 149.397C332.095 149.397 334.245 160.06 321.092 160.418C321.092 160.418 318.54 166.536 319.291 171.675C320.043 176.814 319.064 182.967 317.019 183.544Z" fill="#EBEBEB"/>
<path d="M315.394 168.853C315.363 167.618 315.643 166.395 316.207 165.296C317.693 161.913 318.829 157.709 315.403 154.091V154.711C319.773 152.85 321.705 148.121 317.728 142.79C316.72 141.424 315.581 140.16 314.328 139.014L314.048 140.229C330.593 142.703 329.597 134.985 315.858 124.751L315.534 126.42C333.014 130.082 338.083 126.577 321.329 110.304L320.988 111.929C322.221 112.006 323.458 111.879 324.65 111.553C332.088 109.561 330.532 101.153 328.198 93.68C326.547 88.2962 326.8 82.8075 329.3 78.7783C331.728 74.9091 335.103 71.7235 339.106 69.5227C341.039 68.3754 343.069 67.3986 345.172 66.6035C343.002 67.2334 340.9 68.0765 338.896 69.1206C330.48 73.3945 323.304 80.9633 326.905 93.8548C327.954 97.9014 329.204 101.948 328.338 105.619C327.421 109.115 323.968 110.207 320.804 110.05L318.663 109.936L320.411 111.684C322.281 113.432 331.205 122.435 329.71 124.794C327.088 126.988 319.109 125.336 315.499 124.637L311.881 123.859C315.08 126.306 324.117 132.486 324.807 136.759C324.51 139.976 316.364 139.146 313.935 138.875L312.021 138.63C314.686 141.033 318.139 143.813 318.864 147.676C319.362 151.006 316.836 153.164 314.599 154.231C318.331 157.727 317.308 161.555 316.006 165.199C315.506 166.361 315.293 167.626 315.386 168.888L315.394 168.853Z" fill="#C7C7C7"/>
<path d="M333.853 106.648C335.547 108.278 337.144 110.005 338.634 111.823C339.805 113.387 341.204 115.083 341.492 117.067C341.667 121.699 335.811 122.8 332.63 123.228L331.756 123.316C333.178 125.019 334.417 126.868 335.453 128.831C339.185 135.866 329.903 135.211 326.311 134.844L327.237 135.945C328.942 137.973 331.861 142.395 329.44 144.029C327.097 145.279 323.969 145.113 321.198 144.982H320.621C322.518 147.106 323.636 150.462 322.238 152.665C321.875 153.332 321.388 153.925 320.805 154.413C323.698 152.612 323.942 148.67 321.399 145.183L321.25 145.681C324.108 145.917 328.985 146.555 330.864 144.161C332.298 141.372 329.851 137.675 327.936 135.254L327.648 136.242C330.026 136.589 332.451 136.398 334.745 135.683C340.172 133.734 336.292 127.432 333.146 123.534L332.944 124.496C336.537 123.954 342.628 122.529 342.235 117.215C341.518 113.352 336.615 109.139 333.897 106.727L333.853 106.648Z" fill="#C7C7C7"/>
<path d="M304.32 133.491C300.824 122.575 302.712 110.601 306.627 100.034C310.429 90.7437 316.46 82.5543 322.08 74.33C327.472 66.8049 335.26 56.1071 340.39 48.5557C346.141 39.8158 352.11 30.9796 354.794 20.7363C354.278 25.9803 352.399 31.1282 350.24 35.9789C345.818 45.6628 339.97 54.5951 334.027 63.3701C328.084 72.145 321.791 80.5441 315.988 89.3191C313.03 93.575 310.523 98.1268 308.507 102.901C304.635 112.515 302.493 123.169 304.32 133.491Z" fill="white"/>
<path d="M338.432 146.172C338.432 146.172 350.729 112.174 317.989 94.7724C285.249 77.371 265.549 108.442 265.549 108.442C265.549 108.442 292.468 135.973 338.432 146.172Z" fill="#407BFF"/>
<path d="M338.424 146.172C292.469 135.972 265.559 108.441 265.559 108.441C265.559 108.441 307.004 115.853 338.424 146.172Z" fill="#407BFF"/>
<path d="M314.842 100.856C315.269 101.089 315.737 101.236 316.221 101.287C316.704 101.339 317.193 101.294 317.66 101.156C318.126 101.018 318.56 100.789 318.938 100.483C319.315 100.176 319.628 99.7977 319.859 99.3697L322.367 94.7462C322.834 93.8836 322.94 92.8712 322.661 91.9308C322.383 90.9905 321.743 90.1989 320.882 89.7295C320.019 89.2629 319.007 89.1573 318.066 89.4358C317.126 89.7143 316.334 90.3542 315.865 91.2153L313.356 95.8387C312.89 96.7014 312.784 97.7138 313.063 98.6541C313.341 99.5945 313.981 100.386 314.842 100.856Z" fill="#407BFF"/>
<path opacity="0.4" d="M314.842 100.856C315.269 101.089 315.737 101.236 316.221 101.287C316.704 101.339 317.193 101.294 317.66 101.156C318.126 101.018 318.56 100.789 318.938 100.483C319.315 100.176 319.628 99.7977 319.859 99.3697L322.367 94.7462C322.834 93.8836 322.94 92.8712 322.661 91.9308C322.383 90.9905 321.743 90.1989 320.882 89.7295C320.019 89.2629 319.007 89.1573 318.066 89.4358C317.126 89.7143 316.334 90.3542 315.865 91.2153L313.356 95.8387C312.89 96.7014 312.784 97.7138 313.063 98.6541C313.341 99.5945 313.981 100.386 314.842 100.856Z" fill="white"/>
<path opacity="0.2" d="M338.424 146.172C292.469 135.972 265.559 108.441 265.559 108.441C265.559 108.441 307.004 115.853 338.424 146.172Z" fill="black"/>
<path d="M298.399 136.966L296.953 136.177C296.278 135.809 295.777 135.187 295.56 134.45C295.343 133.712 295.428 132.918 295.796 132.243L304.895 115.56L311.41 119.114L302.31 135.796C301.944 136.467 301.328 136.967 300.596 137.186C299.863 137.405 299.074 137.326 298.399 136.966Z" fill="#407BFF"/>
<path opacity="0.3" d="M298.399 136.966L296.953 136.177C296.278 135.809 295.777 135.187 295.56 134.45C295.343 133.712 295.428 132.918 295.796 132.243L304.895 115.56L311.41 119.114L302.31 135.796C301.944 136.467 301.328 136.967 300.596 137.186C299.863 137.405 299.074 137.326 298.399 136.966Z" fill="black"/>
<path d="M338.424 146.172C307.004 115.853 265.559 108.441 265.559 108.441C265.559 108.441 285.259 77.3619 317.999 94.772C350.739 112.182 338.424 146.172 338.424 146.172Z" fill="#407BFF"/>
<path opacity="0.4" d="M338.424 146.172C307.004 115.853 265.559 108.441 265.559 108.441C265.559 108.441 285.259 77.3619 317.999 94.772C350.739 112.182 338.424 146.172 338.424 146.172Z" fill="white"/>
<g opacity="0.3">
<path d="M310.194 91.4161C297.346 93.3301 286.867 104.963 281.238 112.681C277.882 111.571 274.937 110.714 272.498 110.059C289.445 87.6229 309.119 91.1976 310.08 91.3899L310.194 91.4161Z" fill="white"/>
<path d="M313.043 92.457C302.973 97.839 294.381 105.612 288.02 115.094C286.98 114.692 285.957 114.325 284.961 113.966C297.389 97.1941 313.043 92.457 313.043 92.457Z" fill="white"/>
</g>
<path opacity="0.1" d="M338.423 146.163C324.439 132.668 308.428 123.692 295.012 117.906C303.883 121.516 326.904 130.142 331.956 125.772C336.326 121.988 332.253 106.929 324.64 98.9844C348.955 117.059 338.423 146.163 338.423 146.163Z" fill="black"/>
<path d="M163.398 241.089C166.688 251.919 172.087 261.991 179.285 270.727C186.483 279.462 195.337 286.687 205.338 291.987C215.34 297.286 226.29 300.555 237.56 301.606C248.83 302.657 260.196 301.468 271.005 298.109L298.885 289.631L243.369 127.154L225.338 132.599C223.905 132.955 222.466 133.354 221.021 133.797C210.172 137.027 200.07 142.37 191.294 149.519C182.519 156.669 175.244 165.483 169.889 175.455C164.533 185.427 161.203 196.36 160.089 207.624C158.975 218.888 160.099 230.261 163.398 241.089Z" fill="#407BFF"/>
<path opacity="0.2" d="M163.398 241.089C166.688 251.919 172.087 261.991 179.285 270.727C186.483 279.462 195.337 286.687 205.338 291.987C215.34 297.286 226.29 300.555 237.56 301.606C248.83 302.657 260.196 301.468 271.005 298.109L298.885 289.631L243.369 127.154L225.338 132.599C223.905 132.955 222.466 133.354 221.021 133.797C210.172 137.027 200.07 142.37 191.294 149.519C182.519 156.669 175.244 165.483 169.889 175.455C164.533 185.427 161.203 196.36 160.089 207.624C158.975 218.888 160.099 230.261 163.398 241.089Z" fill="black"/>
<g opacity="0.05">
<path d="M290.467 265.054L221.823 298.624C213.145 296.144 204.912 292.31 197.43 287.262L283.65 245.092L290.467 265.054Z" fill="black"/>
<path d="M281.816 239.673L192.265 283.469C190.465 282.053 188.717 280.562 187.021 278.994L279.753 233.643L281.816 239.673Z" fill="black"/>
</g>
<path d="M298.087 289.955C339.107 274.192 358.54 225.446 341.491 181.078C324.441 136.71 277.367 113.521 236.346 129.283C195.326 145.046 175.893 193.792 192.942 238.16C209.992 282.528 257.066 305.718 298.087 289.955Z" fill="#407BFF"/>
<path opacity="0.1" d="M302.532 286.484C340.663 271.84 358.391 225.646 342.13 183.307C325.87 140.968 281.777 118.517 243.646 133.162C205.516 147.806 187.788 194 204.048 236.339C220.309 278.678 264.402 301.129 302.532 286.484Z" fill="black"/>
<path d="M300.671 281.63C336.391 267.912 352.998 224.638 337.766 184.975C322.533 145.313 281.228 124.282 245.508 138C209.788 151.719 193.181 194.993 208.414 234.655C223.647 274.317 264.952 295.349 300.671 281.63Z" fill="white"/>
<path opacity="0.5" d="M333.697 175.896C309.356 204.739 269.344 252.048 246.874 278.154C236.592 272.851 227.605 265.35 220.549 256.182L284.709 135.885C304.89 141.068 323.034 155.515 333.697 175.896Z" fill="#EBEBEB"/>
<path opacity="0.5" d="M340.6 193.691C342.796 201.892 343.718 210.382 343.336 218.863L273.031 285.61C268.977 285.296 264.96 284.611 261.031 283.565C281.395 260.491 318.645 218.443 340.6 193.691Z" fill="#EBEBEB"/>
<path d="M253.899 143.279L255.936 150.114L255.306 150.28L254.686 150.464L252.641 143.629L253.899 143.279Z" fill="#263238"/>
<path d="M231.159 165.296C230.862 165.619 230.565 165.951 230.285 166.292L225.426 161.241L226.3 160.244L231.159 165.296Z" fill="#263238"/>
<path d="M217.611 192.416C217.515 192.87 217.427 193.29 217.34 193.788L210.934 191.874L211.205 190.502L217.611 192.416Z" fill="#263238"/>
<path d="M219.14 224.876C219.21 225.112 219.28 225.339 219.358 225.566L213.162 227.314L212.742 225.934L218.939 224.186C219.009 224.413 219.079 224.649 219.14 224.876Z" fill="#263238"/>
<path d="M235.755 253.132L231.385 258.044L230.406 257.021L234.776 252.109L235.755 253.132Z" fill="#263238"/>
<path d="M262.177 269.073L260.848 275.846L259.555 275.462L260.883 268.68C261.311 268.828 261.74 268.951 262.177 269.073Z" fill="#263238"/>
<path d="M291.508 269.135L293.553 275.969L292.303 276.319L290.258 269.484L290.887 269.31L291.508 269.135Z" fill="#263238"/>
<path d="M320.787 258.332L319.913 259.328L315.045 254.277C315.342 253.953 315.639 253.621 315.919 253.289L320.787 258.332Z" fill="#263238"/>
<path d="M335.234 227.707L334.972 229.079L328.592 227.165C328.688 226.711 328.775 226.291 328.854 225.793L335.234 227.707Z" fill="#263238"/>
<path d="M333.04 192.275L333.451 193.656L327.255 195.404C327.185 195.168 327.123 194.941 327.054 194.714L326.844 194.023L333.04 192.275Z" fill="#263238"/>
<path d="M315.815 162.56L311.445 167.472C311.121 167.122 310.798 166.79 310.457 166.449L314.827 161.537L315.815 162.56Z" fill="#263238"/>
<path d="M286.649 144.152L285.321 150.943C284.884 150.795 284.447 150.672 284.027 150.55L285.356 143.768L286.649 144.152Z" fill="#263238"/>
<path d="M286.072 147.185L275.426 215.69L268.906 213.688L284.297 146.635L286.072 147.185Z" fill="#37474F"/>
<path d="M237.469 173.406L278.8 210.525L274.395 215.594L236.271 174.778L237.469 173.406Z" fill="#455A64"/>
<path d="M275.259 209.187C275.363 209.478 275.407 209.787 275.39 210.096C275.372 210.404 275.294 210.707 275.159 210.985C275.024 211.263 274.835 211.511 274.603 211.716C274.372 211.92 274.101 212.077 273.809 212.176C273.196 212.312 272.555 212.206 272.019 211.88C271.483 211.554 271.094 211.034 270.933 210.428C270.829 210.137 270.784 209.827 270.8 209.518C270.817 209.209 270.895 208.907 271.03 208.628C271.165 208.35 271.355 208.101 271.587 207.897C271.82 207.693 272.091 207.537 272.384 207.439C272.996 207.303 273.637 207.409 274.173 207.734C274.709 208.06 275.098 208.581 275.259 209.187Z" fill="#C7C7C7"/>
<path d="M274.01 207.396C274.626 207.725 275.103 208.264 275.354 208.916C275.604 209.568 275.611 210.288 275.373 210.945C275.266 211.252 275.093 211.532 274.867 211.765C274.64 211.999 274.366 212.18 274.063 212.298C273.759 212.415 273.434 212.465 273.11 212.444C272.785 212.423 272.469 212.332 272.183 212.177C271.567 211.849 271.09 211.309 270.84 210.657C270.589 210.005 270.582 209.285 270.82 208.629C270.927 208.322 271.1 208.042 271.326 207.808C271.553 207.575 271.827 207.393 272.13 207.276C272.434 207.159 272.759 207.109 273.083 207.13C273.408 207.15 273.724 207.241 274.01 207.396Z" fill="#407BFF"/>
<path d="M273.487 208.768L318.917 232.584L318.646 233.292L272.709 210.813L273.487 208.768Z" fill="#407BFF"/>
<path d="M176.305 154.949L181.456 148.106L192.88 156.705C193.493 157.167 193.897 157.853 194.004 158.612C194.112 159.372 193.913 160.143 193.451 160.756L191.78 162.977C191.318 163.59 190.632 163.994 189.873 164.102C189.113 164.209 188.342 164.01 187.729 163.548L176.305 154.949Z" fill="#407BFF"/>
<path opacity="0.3" d="M176.305 154.949L181.456 148.106L192.88 156.705C193.493 157.167 193.897 157.853 194.004 158.612C194.112 159.372 193.913 160.143 193.451 160.756L191.78 162.977C191.318 163.59 190.632 163.994 189.873 164.102C189.113 164.209 188.342 164.01 187.729 163.548L176.305 154.949Z" fill="black"/>
<path d="M153.617 191.35C153.617 191.35 124.311 161.467 150.418 127.408C176.524 93.3479 212.201 116.588 212.201 116.588C212.201 116.588 191.644 160.76 153.617 191.35Z" fill="#407BFF"/>
<path opacity="0.4" d="M153.617 191.35C153.617 191.35 124.311 161.467 150.418 127.408C176.524 93.3479 212.201 116.588 212.201 116.588C212.201 116.588 191.644 160.76 153.617 191.35Z" fill="white"/>
<g opacity="0.3">
<path d="M166.753 179.68C164.428 181.952 162.016 184.207 159.516 186.401C136.434 156.807 146.73 133.087 147.123 132.213C146.336 151.852 160.303 171.63 166.753 179.68Z" fill="white"/>
<path d="M172.653 173.641C171.779 174.62 170.808 175.59 169.856 176.577C169.698 176.385 169.541 176.184 169.375 175.992C150.838 153.408 149.037 129.32 149.037 129.32C154.674 152.647 166.762 167.505 172.653 173.641Z" fill="white"/>
</g>
<path opacity="0.1" d="M212.21 116.631C203.268 134.532 192.154 151.264 179.121 166.449C191.453 149.65 200.726 128.727 198.095 120.948C196.811 117.129 191.855 110.032 170.363 111.666C191.706 103.25 212.21 116.631 212.21 116.631Z" fill="black"/>
<path d="M145.118 123.28L144.771 123.74C143.445 125.503 143.798 128.007 145.56 129.334L150.888 133.344C152.651 134.671 155.155 134.318 156.481 132.555L156.828 132.094C158.155 130.332 157.802 127.828 156.039 126.501L150.711 122.491C148.949 121.164 146.445 121.517 145.118 123.28Z" fill="#407BFF"/>
<path opacity="0.4" d="M145.118 123.28L144.771 123.74C143.445 125.503 143.798 128.007 145.56 129.334L150.888 133.344C152.651 134.671 155.155 134.318 156.481 132.555L156.828 132.094C158.155 130.332 157.802 127.828 156.039 126.501L150.711 122.491C148.949 121.164 146.445 121.517 145.118 123.28Z" fill="white"/>
<path d="M183.271 232.104C183.271 232.104 181.707 226.37 178.386 214.755C175.239 203.76 166.927 175.425 156.955 164.718C130.735 136.584 73.1385 136.576 31.6235 114.9C8.89946 103.032 8.27893 95.8735 1.82881 97.4642C-4.62132 99.0549 5.17622 135.658 44.2965 150.07C44.2965 150.07 25.2782 157.517 25.9425 162.647C26.6067 167.777 43.7021 170.006 55.1341 168.214C55.1341 168.214 37.7939 184.82 41.657 190.938C45.5201 197.056 67.0554 191.909 75.6556 187.967C75.6556 187.967 66.0416 199.521 69.9921 203.699C76.1101 210.166 95.7401 199.644 95.7401 199.644C95.7401 199.644 89.893 207.51 93.896 209.931C99.3497 213.208 115.423 205.762 115.423 205.762C115.423 205.762 120.029 220.13 141.241 211.486C141.241 211.486 146.406 222.184 161.946 214.327C161.946 214.327 169.296 218.102 172.128 223.067C174.959 228.031 180.474 232.873 183.271 232.104Z" fill="#EBEBEB"/>
<path d="M177.128 216.834C176.35 215.549 174.881 214.937 173.632 214.212C169.48 212.167 165.154 209.169 166.5 203.873L166.998 204.406C160.539 205.507 154.937 202.535 155.723 195.377C155.919 193.527 156.33 191.705 156.947 189.95L158.153 190.824C140.725 203.269 136.303 195.875 144.921 178.361L146.503 179.619C128.822 193.699 120.431 193.76 128.149 169.07L129.713 170.285C128.299 171.131 126.78 171.786 125.194 172.234C115.126 175.092 110.878 166.754 108.213 158.739C107.303 155.888 105.748 153.286 103.668 151.135C101.588 148.984 99.0399 147.342 96.2214 146.337C90.4967 144.257 84.2301 143.907 78.1733 144.301C75.1032 144.506 72.0496 144.909 69.0312 145.507C72.0166 144.714 75.0583 144.15 78.1296 143.82C90.9774 142.352 104.743 144.537 109.838 158.084C111.586 162.296 112.985 166.623 116.638 169.306C120.221 171.805 125.028 170.617 128.577 168.511L130.98 167.086L130.106 169.708C129.232 172.444 125.317 185.851 128.725 186.978C133.323 187.293 141.416 180.86 145.122 178.011L148.758 175.074C146.809 179.208 140.76 190.247 143.033 194.425C145.655 197.047 154.543 191.278 157.165 189.539L159.211 188.132C157.856 191.899 155.846 196.487 157.777 200.324C159.595 203.549 164.087 203.881 167.444 203.436C165.608 208.793 169.567 211.546 173.701 213.924C174.925 214.719 176.323 215.436 177.075 216.764L177.128 216.834Z" fill="#C7C7C7"/>
<path d="M110.958 173.693C110.164 176.15 109.554 178.663 109.131 181.21C108.895 183.307 108.493 185.667 109.568 187.564C112.688 191.733 120.283 189.067 124.286 187.468L125.379 186.996C124.953 189.351 124.845 191.752 125.056 194.136C125.772 202.632 136.077 196.295 139.983 193.734L139.704 195.281C139.179 198.113 138.978 203.811 142.964 203.733C146.582 203.383 150.087 201.294 153.216 199.459L153.863 199.066C153.181 202.116 154.3 205.752 157.507 206.827C158.436 207.169 159.411 207.369 160.4 207.421C155.75 207.648 152.63 204.327 153.067 199.695L153.6 200.036C150.454 202.02 145.219 205.577 141.364 204.65C137.685 203.095 137.868 198.323 138.349 195.036L139.398 195.727C136.787 197.555 133.859 198.883 130.763 199.642C123.063 201.312 123.019 193.367 123.876 187.983L124.802 188.709C120.249 190.457 112.147 193 108.782 188.088C106.833 184.251 109.498 177.504 110.932 173.72L110.958 173.693Z" fill="#C7C7C7"/>
<path opacity="0.1" d="M183.272 232.095C180.475 232.873 174.934 228.083 172.094 223.101C169.253 218.119 161.912 214.361 161.912 214.361C146.372 222.227 141.207 211.521 141.207 211.521C119.995 220.165 115.389 205.796 115.389 205.796C124.504 214.44 141.198 207.605 141.198 207.605C151.258 217.91 161.859 211.337 161.859 211.337C164.141 211.665 166.442 211.84 168.746 211.862C171.692 211.818 166.553 195.133 161.92 182.46C157.55 170.486 141.277 152.701 133.891 148.934H133.961C142.946 153.076 150.803 158.128 156.947 164.718C166.928 175.416 175.249 203.768 178.387 214.755C181.708 226.37 183.272 232.095 183.272 232.095Z" fill="black"/>
<path d="M45.8008 147.221C28.6791 141.864 12.3616 129.689 5.16855 112.864C3.97898 110.055 3.09976 107.124 2.54655 104.124C2.36209 103.44 2.36209 102.719 2.54655 102.035C3.20205 100.488 5.03745 101.563 5.93767 102.245C7.15442 103.142 8.32148 104.105 9.43367 105.129C8.09645 104.448 6.81167 103.696 5.45697 103.084C4.91988 102.786 4.32236 102.613 3.70897 102.577C3.70897 102.577 3.89251 102.481 3.87503 102.49C3.93295 102.907 4.04458 103.316 4.20715 103.705C10.8583 123.51 28.2684 136.987 45.8008 147.221Z" fill="white"/>
<path d="M29.3691 160.043C32.97 162.665 37.7595 162.595 42.0334 163.233C46.0888 163.679 51.7086 164.011 55.6503 164.981C48.8823 167.499 41.4318 167.484 34.6743 164.937C32.533 163.915 29.9984 162.472 29.3779 160.008L29.3691 160.043Z" fill="white"/>
<path d="M55.711 172.121C54.1775 175.332 52.3021 178.367 50.1174 181.176C48.282 183.973 45.5901 186.35 45.0307 189.758C43.7285 188.22 44.113 185.817 44.6636 184.042C45.6288 181.426 47.1017 179.025 48.9976 176.979C50.8935 174.933 53.175 173.282 55.711 172.121Z" fill="white"/>
<path d="M111.299 151.258C113.435 154.091 115.257 157.148 116.735 160.374C118.369 163.293 119.252 166.771 121.979 168.834C120.013 169.288 118.055 167.838 116.735 166.535C112.969 162.365 111.014 156.87 111.299 151.258Z" fill="white"/>
</svg>
