<svg width="346" height="229" viewBox="0 0 346 229" fill="none" xmlns="http://www.w3.org/2000/svg">
<path d="M173 228.847C247.101 228.847 307.172 225.339 307.172 221.013C307.172 216.687 247.101 213.18 173 213.18C98.8989 213.18 38.8281 216.687 38.8281 221.013C38.8281 225.339 98.8989 228.847 173 228.847Z" fill="#F5F5F5"/>
<path d="M101.67 117.271C116.307 102.635 116.307 78.9044 101.67 64.2681C87.034 49.6317 63.3038 49.6317 48.6675 64.2681C34.0311 78.9044 34.0311 102.635 48.6675 117.271C63.3038 131.907 87.034 131.907 101.67 117.271Z" fill="#80A2FC"/>
<path opacity="0.4" d="M101.67 117.271C116.307 102.635 116.307 78.9044 101.67 64.2681C87.034 49.6317 63.3038 49.6317 48.6675 64.2681C34.0311 78.9044 34.0311 102.635 48.6675 117.271C63.3038 131.907 87.034 131.907 101.67 117.271Z" fill="black"/>
<path opacity="0.2" d="M106.195 96.0617C109.118 78.9276 97.5974 62.6684 80.4633 59.7457C63.3292 56.8231 47.07 68.3438 44.1474 85.4779C41.2247 102.612 52.7454 118.871 69.8795 121.794C87.0136 124.716 103.273 113.196 106.195 96.0617Z" fill="black"/>
<path d="M107.7 93.7846C108.869 77.0986 96.2887 62.625 79.6027 61.457C62.9166 60.289 48.4431 72.8688 47.275 89.5549C46.107 106.241 58.6869 120.714 75.3729 121.882C92.0589 123.05 106.532 110.471 107.7 93.7846Z" fill="#80A2FC"/>
<path opacity="0.4" d="M107.7 93.7846C108.869 77.0986 96.2887 62.625 79.6027 61.457C62.9166 60.289 48.4431 72.8688 47.275 89.5549C46.107 106.241 58.6869 120.714 75.3729 121.882C92.0589 123.05 106.532 110.471 107.7 93.7846Z" fill="black"/>
<path d="M87.6143 87.8864L89.5865 96.4326C89.6702 96.7589 89.6851 97.0991 89.6303 97.4314C89.5755 97.7638 89.4522 98.0812 89.2681 98.3633C89.0893 98.6517 88.8545 98.9013 88.5775 99.0974C88.3006 99.2935 87.9872 99.4322 87.6558 99.5051L80.1406 101.242L81.5247 107.256C81.6061 107.581 81.6186 107.919 81.5614 108.249C81.5042 108.579 81.3785 108.894 81.1925 109.172C81.0138 109.456 80.7782 109.7 80.5007 109.888C80.2232 110.076 79.9098 110.205 79.5801 110.266C79.2499 110.348 78.9065 110.364 78.5701 110.312C78.2337 110.26 77.9113 110.14 77.6218 109.961C77.3334 109.792 77.0835 109.564 76.8881 109.292C76.6927 109.02 76.5561 108.711 76.4869 108.383L75.1029 102.301L67.6501 104.024C67.3289 104.101 66.9953 104.113 66.6695 104.059C66.3436 104.004 66.0322 103.884 65.754 103.706C65.4648 103.536 65.214 103.308 65.0175 103.037C64.821 102.765 64.6829 102.455 64.6122 102.128C64.5335 101.804 64.5211 101.469 64.5758 101.14C64.6305 100.812 64.7512 100.498 64.9305 100.218C65.1016 99.9313 65.33 99.6832 65.6015 99.4891C65.873 99.295 66.1817 99.1591 66.5083 99.0899L83.9467 95.0694L83.1301 91.5194L65.7401 95.5261C65.4182 95.6082 65.083 95.6242 64.7547 95.5731C64.4264 95.5219 64.1119 95.4047 63.8302 95.2286C63.5414 95.0552 63.2919 94.8235 63.0976 94.5483C62.9034 94.273 62.7688 93.9603 62.7023 93.63L60.737 85.1184C60.5857 84.4642 60.7005 83.7766 61.056 83.2069C61.4116 82.6372 61.9788 82.2321 62.6331 82.0806L70.0513 80.3713L68.6673 74.3509C68.5871 74.0326 68.5714 73.7014 68.6213 73.3769C68.6713 73.0524 68.7857 72.7413 68.9579 72.4618C69.1405 72.159 69.3855 71.8987 69.6767 71.6982C69.9678 71.4977 70.2985 71.3617 70.6464 71.2992C70.9664 71.2214 71.2989 71.2095 71.6237 71.2642C71.9485 71.319 72.2587 71.4392 72.5356 71.6175C72.8197 71.7923 73.0656 72.0228 73.2583 72.2951C73.4509 72.5675 73.5864 72.876 73.6566 73.2022L75.0406 79.2157L82.6526 77.4718C82.9819 77.3921 83.3239 77.3798 83.6581 77.4357C83.9923 77.4916 84.3117 77.6145 84.5971 77.7971C84.8859 77.9631 85.137 78.1871 85.3347 78.4551C85.5325 78.7231 85.6725 79.0292 85.7459 79.3541C85.8917 80.0233 85.7698 80.7231 85.4065 81.3037C85.0431 81.8843 84.467 82.2997 83.8013 82.4612L66.3629 86.4817L67.1241 90.0109L84.5003 86.0042C84.8296 85.9245 85.1716 85.9122 85.5058 85.9681C85.8399 86.024 86.1593 86.1469 86.4448 86.3294C86.7382 86.4922 86.994 86.715 87.1955 86.9833C87.397 87.2516 87.5397 87.5593 87.6143 87.8864Z" fill="#80A2FC"/>
<g opacity="0.7">
<path d="M87.6143 87.8864L89.5865 96.4326C89.6702 96.7589 89.6851 97.0991 89.6303 97.4314C89.5755 97.7638 89.4522 98.0812 89.2681 98.3633C89.0893 98.6517 88.8545 98.9013 88.5775 99.0974C88.3006 99.2935 87.9872 99.4322 87.6558 99.5051L80.1406 101.242L81.5247 107.256C81.6061 107.581 81.6186 107.919 81.5614 108.249C81.5042 108.579 81.3785 108.894 81.1925 109.172C81.0138 109.456 80.7782 109.7 80.5007 109.888C80.2232 110.076 79.9098 110.205 79.5801 110.266C79.2499 110.348 78.9065 110.364 78.5701 110.312C78.2337 110.26 77.9113 110.14 77.6218 109.961C77.3334 109.792 77.0835 109.564 76.8881 109.292C76.6927 109.02 76.5561 108.711 76.4869 108.383L75.1029 102.301L67.6501 104.024C67.3289 104.101 66.9953 104.113 66.6695 104.059C66.3436 104.004 66.0322 103.884 65.754 103.706C65.4648 103.536 65.214 103.308 65.0175 103.037C64.821 102.765 64.6829 102.455 64.6122 102.128C64.5335 101.804 64.5211 101.469 64.5758 101.14C64.6305 100.812 64.7512 100.498 64.9305 100.218C65.1016 99.9313 65.33 99.6832 65.6015 99.4891C65.873 99.295 66.1817 99.1591 66.5083 99.0899L83.9467 95.0694L83.1301 91.5194L65.7401 95.5261C65.4182 95.6082 65.083 95.6242 64.7547 95.5731C64.4264 95.5219 64.1119 95.4047 63.8302 95.2286C63.5414 95.0552 63.2919 94.8235 63.0976 94.5483C62.9034 94.273 62.7688 93.9603 62.7023 93.63L60.737 85.1184C60.5857 84.4642 60.7005 83.7766 61.056 83.2069C61.4116 82.6372 61.9788 82.2321 62.6331 82.0806L70.0513 80.3713L68.6673 74.3509C68.5871 74.0326 68.5714 73.7014 68.6213 73.3769C68.6713 73.0524 68.7857 72.7413 68.9579 72.4618C69.1405 72.159 69.3855 71.8987 69.6767 71.6982C69.9678 71.4977 70.2985 71.3617 70.6464 71.2992C70.9664 71.2214 71.2989 71.2095 71.6237 71.2642C71.9485 71.319 72.2587 71.4392 72.5356 71.6175C72.8197 71.7923 73.0656 72.0228 73.2583 72.2951C73.4509 72.5675 73.5864 72.876 73.6566 73.2022L75.0406 79.2157L82.6526 77.4718C82.9819 77.3921 83.3239 77.3798 83.6581 77.4357C83.9923 77.4916 84.3117 77.6145 84.5971 77.7971C84.8859 77.9631 85.137 78.1871 85.3347 78.4551C85.5325 78.7231 85.6725 79.0292 85.7459 79.3541C85.8917 80.0233 85.7698 80.7231 85.4065 81.3037C85.0431 81.8843 84.467 82.2997 83.8013 82.4612L66.3629 86.4817L67.1241 90.0109L84.5003 86.0042C84.8296 85.9245 85.1716 85.9122 85.5058 85.9681C85.8399 86.024 86.1593 86.1469 86.4448 86.3294C86.7382 86.4922 86.994 86.715 87.1955 86.9833C87.397 87.2516 87.5397 87.5593 87.6143 87.8864Z" fill="white"/>
</g>
<path d="M155.146 60.9659C164.471 49.9318 163.085 33.4278 152.051 24.1032C141.017 14.7786 124.513 16.1645 115.188 27.1987C105.864 38.2328 107.25 54.7368 118.284 64.0614C129.318 73.3859 145.822 72 155.146 60.9659Z" fill="#80A2FC"/>
<path opacity="0.4" d="M155.146 60.9659C164.471 49.9318 163.085 33.4278 152.051 24.1032C141.017 14.7786 124.513 16.1645 115.188 27.1987C105.864 38.2328 107.25 54.7368 118.284 64.0614C129.318 73.3859 145.822 72 155.146 60.9659Z" fill="black"/>
<path opacity="0.2" d="M152.098 58.0566C159.827 48.7073 158.513 34.8626 149.164 27.1336C139.814 19.4046 125.97 20.7182 118.241 30.0676C110.512 39.4169 111.825 53.2617 121.175 60.9906C130.524 68.7196 144.369 67.406 152.098 58.0566Z" fill="black"/>
<path d="M152.76 58.2865C159.832 49.0342 158.064 35.8014 148.811 28.7301C139.559 21.6588 126.326 23.4268 119.255 32.679C112.184 41.9312 113.952 55.1641 123.204 62.2354C132.456 69.3067 145.689 67.5387 152.76 58.2865Z" fill="#80A2FC"/>
<path opacity="0.4" d="M152.76 58.2865C159.832 49.0342 158.064 35.8014 148.811 28.7301C139.559 21.6588 126.326 23.4268 119.255 32.679C112.184 41.9312 113.952 55.1641 123.204 62.2354C132.456 69.3067 145.689 67.5387 152.76 58.2865Z" fill="black"/>
<path d="M143.812 46.2279L142.324 52.1652C142.27 52.391 142.17 52.603 142.029 52.7877C141.889 52.9724 141.711 53.1257 141.508 53.2378C141.302 53.3627 141.074 53.4448 140.836 53.4793C140.598 53.5138 140.356 53.4999 140.124 53.4385L134.941 52.1306L133.889 56.2826C133.835 56.5095 133.735 56.7227 133.594 56.9085C133.454 57.0944 133.276 57.2489 133.072 57.3621C132.876 57.484 132.657 57.5646 132.429 57.5991C132.2 57.6336 131.967 57.6213 131.744 57.5628C131.513 57.5087 131.296 57.4092 131.105 57.2702C130.914 57.1312 130.752 56.9554 130.629 56.7532C130.505 56.5556 130.422 56.3345 130.386 56.1035C130.35 55.8726 130.362 55.6367 130.422 55.4107L131.481 51.1895L126.291 49.9231C126.066 49.8693 125.854 49.7704 125.669 49.6324C125.483 49.4945 125.327 49.3203 125.211 49.1204C125.086 48.9243 125.003 48.7043 124.967 48.4744C124.931 48.2445 124.944 48.0097 125.004 47.7849C125.055 47.5573 125.153 47.3429 125.291 47.1548C125.429 46.9667 125.605 46.809 125.806 46.6915C126.005 46.5701 126.227 46.4903 126.458 46.457C126.688 46.4236 126.923 46.4375 127.149 46.4977L139.259 49.5356L139.882 47.0721L127.806 44.0411C127.58 43.9905 127.367 43.8937 127.18 43.7567C126.993 43.6198 126.836 43.4457 126.72 43.2453C126.594 43.048 126.512 42.8263 126.479 42.5949C126.445 42.3635 126.461 42.1276 126.526 41.9029L128.007 35.9863C128.063 35.7607 128.162 35.5485 128.301 35.3618C128.439 35.1752 128.613 35.0178 128.812 34.8987C129.012 34.7797 129.233 34.7013 129.463 34.6683C129.693 34.6352 129.927 34.648 130.152 34.706L135.287 35.9932L136.338 31.8412C136.389 31.6068 136.488 31.3855 136.629 31.1912C136.769 30.997 136.949 30.8339 137.155 30.7124C137.362 30.5908 137.592 30.5133 137.83 30.4849C138.068 30.4565 138.309 30.4777 138.539 30.5471C138.762 30.5988 138.972 30.6962 139.155 30.8332C139.339 30.9702 139.492 31.1437 139.605 31.3429C139.727 31.5402 139.808 31.7604 139.843 31.9901C139.877 32.2197 139.864 32.4539 139.805 32.6785L138.754 36.8305L144.013 38.1522C144.243 38.2073 144.461 38.3087 144.651 38.4503C144.841 38.5918 145.001 38.7706 145.12 38.9757C145.246 39.1701 145.331 39.3884 145.369 39.617C145.407 39.8456 145.398 40.0795 145.341 40.3043C145.284 40.5349 145.18 40.7515 145.038 40.9417C144.895 41.1318 144.716 41.2915 144.511 41.4115C144.307 41.5387 144.078 41.6227 143.84 41.6584C143.602 41.6941 143.36 41.6807 143.127 41.6191L131.01 38.5813L130.401 41.0309L142.47 44.055C142.7 44.1101 142.917 44.2115 143.108 44.353C143.298 44.4946 143.458 44.6734 143.577 44.8785C143.71 45.0735 143.8 45.2949 143.841 45.5276C143.881 45.7604 143.872 45.9992 143.812 46.2279Z" fill="#80A2FC"/>
<g opacity="0.7">
<path d="M143.812 46.2279L142.324 52.1652C142.27 52.391 142.17 52.603 142.029 52.7877C141.889 52.9724 141.711 53.1257 141.508 53.2378C141.302 53.3627 141.074 53.4448 140.836 53.4793C140.598 53.5138 140.356 53.4999 140.124 53.4385L134.941 52.1306L133.889 56.2826C133.835 56.5095 133.735 56.7227 133.594 56.9085C133.454 57.0944 133.276 57.2489 133.072 57.3621C132.876 57.484 132.657 57.5646 132.429 57.5991C132.2 57.6336 131.967 57.6213 131.744 57.5628C131.513 57.5087 131.296 57.4092 131.105 57.2702C130.914 57.1312 130.752 56.9554 130.629 56.7532C130.505 56.5556 130.422 56.3345 130.386 56.1035C130.35 55.8726 130.362 55.6367 130.422 55.4107L131.481 51.1895L126.291 49.9231C126.066 49.8693 125.854 49.7704 125.669 49.6324C125.483 49.4945 125.327 49.3203 125.211 49.1204C125.086 48.9243 125.003 48.7043 124.967 48.4744C124.931 48.2445 124.944 48.0097 125.004 47.7849C125.055 47.5573 125.153 47.3429 125.291 47.1548C125.429 46.9667 125.605 46.809 125.806 46.6915C126.005 46.5701 126.227 46.4903 126.458 46.457C126.688 46.4236 126.923 46.4375 127.149 46.4977L139.259 49.5356L139.882 47.0721L127.806 44.0411C127.58 43.9905 127.367 43.8937 127.18 43.7567C126.993 43.6198 126.836 43.4457 126.72 43.2453C126.594 43.048 126.512 42.8263 126.479 42.5949C126.445 42.3635 126.461 42.1276 126.526 41.9029L128.007 35.9863C128.063 35.7607 128.162 35.5485 128.301 35.3618C128.439 35.1752 128.613 35.0178 128.812 34.8987C129.012 34.7797 129.233 34.7013 129.463 34.6683C129.693 34.6352 129.927 34.648 130.152 34.706L135.287 35.9932L136.338 31.8412C136.389 31.6068 136.488 31.3855 136.629 31.1912C136.769 30.997 136.949 30.8339 137.155 30.7124C137.362 30.5908 137.592 30.5133 137.83 30.4849C138.068 30.4565 138.309 30.4777 138.539 30.5471C138.762 30.5988 138.972 30.6962 139.155 30.8332C139.339 30.9702 139.492 31.1437 139.605 31.3429C139.727 31.5402 139.808 31.7604 139.843 31.9901C139.877 32.2197 139.864 32.4539 139.805 32.6785L138.754 36.8305L144.013 38.1522C144.243 38.2073 144.461 38.3087 144.651 38.4503C144.841 38.5918 145.001 38.7706 145.12 38.9757C145.246 39.1701 145.331 39.3884 145.369 39.617C145.407 39.8456 145.398 40.0795 145.341 40.3043C145.284 40.5349 145.18 40.7515 145.038 40.9417C144.895 41.1318 144.716 41.2915 144.511 41.4115C144.307 41.5387 144.078 41.6227 143.84 41.6584C143.602 41.6941 143.36 41.6807 143.127 41.6191L131.01 38.5813L130.401 41.0309L142.47 44.055C142.7 44.1101 142.917 44.2115 143.108 44.353C143.298 44.4946 143.458 44.6734 143.577 44.8785C143.71 45.0735 143.8 45.2949 143.841 45.5276C143.881 45.7604 143.872 45.9992 143.812 46.2279Z" fill="white"/>
</g>
<path d="M71.4557 202.141H70.7637V209.953H71.4557V202.141Z" fill="#80A2FC"/>
<path opacity="0.1" d="M71.4557 202.141H70.7637V209.953H71.4557V202.141Z" fill="black"/>
<path d="M275.235 140.242H274.543V150.947H275.235V140.242Z" fill="#80A2FC"/>
<path d="M275.235 156.566H274.543V162.372H275.235V156.566Z" fill="#80A2FC"/>
<path opacity="0.1" d="M275.235 140.242H274.543V150.947H275.235V140.242Z" fill="black"/>
<path opacity="0.1" d="M275.235 156.566H274.543V162.372H275.235V156.566Z" fill="black"/>
<path d="M262.406 93.8223H83.6001C77.8483 93.8223 73.1855 98.485 73.1855 104.237V208.902C73.1855 214.654 77.8483 219.316 83.6001 219.316H262.406C268.158 219.316 272.821 214.654 272.821 208.902V104.237C272.821 98.485 268.158 93.8223 262.406 93.8223Z" fill="#80A2FC"/>
<path opacity="0.2" d="M262.406 93.8223H83.6001C77.8483 93.8223 73.1855 98.485 73.1855 104.237V208.902C73.1855 214.654 77.8483 219.316 83.6001 219.316H262.406C268.158 219.316 272.821 214.654 272.821 208.902V104.237C272.821 98.485 268.158 93.8223 262.406 93.8223Z" fill="black"/>
<path d="M240.505 137.523C243.932 137.523 247.218 136.162 249.641 133.739C252.064 131.316 253.425 128.03 253.425 124.603C253.425 121.177 252.064 117.891 249.641 115.468C247.218 113.045 243.932 111.684 240.505 111.684H223.828C220.401 111.684 217.115 113.045 214.692 115.468C212.269 117.891 210.908 121.177 210.908 124.603C210.908 128.03 212.269 131.316 214.692 133.739C217.115 136.162 220.401 137.523 223.828 137.523H240.505Z" fill="#80A2FC"/>
<path d="M127.839 137.516H97.0662C94.5897 137.516 92.582 139.523 92.582 142V162.116C92.582 164.593 94.5897 166.6 97.0662 166.6H127.839C130.316 166.6 132.324 164.593 132.324 162.116V142C132.324 139.523 130.316 137.516 127.839 137.516Z" fill="#80A2FC"/>
<path opacity="0.3" d="M127.839 137.516H97.0662C94.5897 137.516 92.582 139.523 92.582 142V162.116C92.582 164.593 94.5897 166.6 97.0662 166.6H127.839C130.316 166.6 132.324 164.593 132.324 162.116V142C132.324 139.523 130.316 137.516 127.839 137.516Z" fill="white"/>
<path d="M149.132 108.506H95.7583C94.0041 108.506 92.582 109.926 92.582 111.679C92.582 113.431 94.0041 114.851 95.7583 114.851H149.132C150.886 114.851 152.309 113.431 152.309 111.679C152.309 109.926 150.886 108.506 149.132 108.506Z" fill="#80A2FC"/>
<path opacity="0.3" d="M149.132 108.506H95.7583C94.0041 108.506 92.582 109.926 92.582 111.679C92.582 113.431 94.0041 114.851 95.7583 114.851H149.132C150.886 114.851 152.309 113.431 152.309 111.679C152.309 109.926 150.886 108.506 149.132 108.506Z" fill="white"/>
<path d="M121.245 181.035H97.2392C94.6671 181.035 92.582 183.12 92.582 185.692V190.045C92.582 192.617 94.6671 194.702 97.2392 194.702H121.245C123.817 194.702 125.902 192.617 125.902 190.045V185.692C125.902 183.12 123.817 181.035 121.245 181.035Z" fill="#80A2FC"/>
<path opacity="0.3" d="M121.245 181.035H97.2392C94.6671 181.035 92.582 183.12 92.582 185.692V190.045C92.582 192.617 94.6671 194.702 97.2392 194.702H121.245C123.817 194.702 125.902 192.617 125.902 190.045V185.692C125.902 183.12 123.817 181.035 121.245 181.035Z" fill="white"/>
<path d="M163.749 181.035H139.743C137.171 181.035 135.086 183.12 135.086 185.692V190.045C135.086 192.617 137.171 194.702 139.743 194.702H163.749C166.321 194.702 168.406 192.617 168.406 190.045V185.692C168.406 183.12 166.321 181.035 163.749 181.035Z" fill="#80A2FC"/>
<path opacity="0.3" d="M163.749 181.035H139.743C137.171 181.035 135.086 183.12 135.086 185.692V190.045C135.086 192.617 137.171 194.702 139.743 194.702H163.749C166.321 194.702 168.406 192.617 168.406 190.045V185.692C168.406 183.12 166.321 181.035 163.749 181.035Z" fill="white"/>
<path d="M206.256 181.035H182.251C179.679 181.035 177.594 183.12 177.594 185.692V190.045C177.594 192.617 179.679 194.702 182.251 194.702H206.256C208.828 194.702 210.914 192.617 210.914 190.045V185.692C210.914 183.12 208.828 181.035 206.256 181.035Z" fill="#80A2FC"/>
<path opacity="0.3" d="M206.256 181.035H182.251C179.679 181.035 177.594 183.12 177.594 185.692V190.045C177.594 192.617 179.679 194.702 182.251 194.702H206.256C208.828 194.702 210.914 192.617 210.914 190.045V185.692C210.914 183.12 208.828 181.035 206.256 181.035Z" fill="white"/>
<path d="M248.76 181.035H224.755C222.183 181.035 220.098 183.12 220.098 185.692V190.045C220.098 192.617 222.183 194.702 224.755 194.702H248.76C251.332 194.702 253.417 192.617 253.417 190.045V185.692C253.417 183.12 251.332 181.035 248.76 181.035Z" fill="#80A2FC"/>
<path opacity="0.3" d="M248.76 181.035H224.755C222.183 181.035 220.098 183.12 220.098 185.692V190.045C220.098 192.617 222.183 194.702 224.755 194.702H248.76C251.332 194.702 253.417 192.617 253.417 190.045V185.692C253.417 183.12 251.332 181.035 248.76 181.035Z" fill="white"/>
<path d="M202.756 48.4149C201.116 53.0444 199.296 57.5216 197.365 61.9989C195.411 66.5518 193.169 70.9757 190.653 75.2438C190.314 75.7904 189.961 76.3371 189.594 76.8838L189.324 77.2921L188.958 77.7972C188.708 78.1156 188.473 78.3924 188.266 78.6622C187.394 79.6343 186.47 80.5583 185.498 81.4302C183.65 83.1395 181.768 84.6896 179.865 86.2189C176.045 89.2498 172.142 92.087 168.101 94.7789L165.686 91.7826L175.858 81.7555C177.54 80.0878 179.207 78.4062 180.764 76.7246C181.532 75.8873 182.28 75.0292 182.896 74.2404C183.048 74.0466 183.179 73.8528 183.297 73.6868L183.442 73.4515L183.643 73.0916C183.913 72.6142 184.197 72.1505 184.46 71.6592C186.577 67.6802 188.445 63.3552 190.245 58.9679C192.044 54.5806 193.774 50.1588 195.435 45.7715L202.756 48.4149Z" fill="#E4897B"/>
<path d="M204.701 45.0789C206.272 49.6738 197.041 63.1885 197.041 63.1885L188.225 58.2823C189.727 54.0654 191.502 49.9508 193.539 45.9647C196.625 40.1242 202.978 40.0342 204.701 45.0789Z" fill="#80A2FC"/>
<path opacity="0.7" d="M204.701 45.0789C206.272 49.6738 197.041 63.1885 197.041 63.1885L188.225 58.2823C189.727 54.0654 191.502 49.9508 193.539 45.9647C196.625 40.1242 202.978 40.0342 204.701 45.0789Z" fill="white"/>
<path opacity="0.31" d="M204.833 45.6536C202.854 44.7055 200.577 45.5013 198.176 49.2935C195.775 53.0856 193.733 59.4174 193.512 61.2236L197.048 63.1819C197.048 63.1819 205.566 50.6982 204.833 45.6536Z" fill="#80A2FC"/>
<path d="M198.728 41.5644C198.728 41.5644 192.14 57.0582 196.887 85.9077H224.325C224.664 81.6934 222.727 61.148 227.481 41.3014C224.46 40.7134 221.404 40.325 218.333 40.1388C214.449 39.9173 210.556 39.9173 206.672 40.1388C203.992 40.411 201.336 40.8876 198.728 41.5644Z" fill="#80A2FC"/>
<path opacity="0.7" d="M198.728 41.5644C198.728 41.5644 192.14 57.0582 196.887 85.9077H224.325C224.664 81.6934 222.727 61.148 227.481 41.3014C224.46 40.7134 221.404 40.325 218.333 40.1388C214.449 39.9173 210.556 39.9173 206.672 40.1388C203.992 40.411 201.336 40.8876 198.728 41.5644Z" fill="white"/>
<path d="M234.042 208.821L229.98 212.46L222.236 204.406L226.305 200.766L234.042 208.821Z" fill="#E4897B"/>
<path d="M220.112 216.397H214.985L214.32 204.516H219.448L220.112 216.397Z" fill="#E4897B"/>
<path d="M222.244 204.406L226.23 208.558L230.299 204.918L226.313 200.766L222.244 204.406Z" fill="#CE6F64"/>
<path d="M219.448 204.523H214.32L214.666 210.648H219.794L219.448 204.523Z" fill="#CE6F64"/>
<path d="M196.888 85.9075C196.888 85.9075 191.484 123.317 189.643 143.676C188.162 160.014 223.489 208.724 223.489 208.724L230.319 202.295C230.319 202.295 204.521 158.623 206.507 140.437C208.431 122.826 214.949 85.8867 214.949 85.8867L196.888 85.9075Z" fill="#80A2FC"/>
<path opacity="0.7" d="M196.888 85.9075C196.888 85.9075 191.484 123.317 189.643 143.676C188.162 160.014 223.489 208.724 223.489 208.724L230.319 202.295C230.319 202.295 204.521 158.623 206.507 140.437C208.431 122.826 214.949 85.8867 214.949 85.8867L196.888 85.9075Z" fill="black"/>
<path opacity="0.2" d="M206.507 140.457C207.496 131.385 209.711 117.171 211.614 105.532C210.617 103.58 207.821 99.6289 207.821 99.6289C205.316 108.286 199.87 140.921 207.642 184.994C215.738 198.045 223.488 208.743 223.488 208.743L224.547 191.914C217.067 177.839 205.13 153.031 206.507 140.457Z" fill="black"/>
<path d="M206.646 85.9082C206.646 85.9082 206.162 125.11 206.992 139.801C207.899 155.883 212.466 209.167 212.466 209.167H221.863C221.863 209.167 221.58 157.184 222.133 141.268C222.749 123.968 224.341 85.9082 224.341 85.9082H206.646Z" fill="#80A2FC"/>
<path opacity="0.7" d="M206.646 85.9082C206.646 85.9082 206.162 125.11 206.992 139.801C207.899 155.883 212.466 209.167 212.466 209.167H221.863C221.863 209.167 221.58 157.184 222.133 141.268C222.749 123.968 224.341 85.9082 224.341 85.9082H206.646Z" fill="black"/>
<path d="M214.714 215.809H220.478C220.574 215.805 220.668 215.839 220.739 215.904C220.811 215.969 220.854 216.059 220.859 216.155L221.143 220.715C221.144 220.834 221.121 220.952 221.076 221.063C221.032 221.173 220.966 221.273 220.882 221.358C220.799 221.443 220.699 221.511 220.589 221.557C220.48 221.603 220.362 221.628 220.243 221.629C218.236 221.594 217.274 221.476 214.742 221.476C213.185 221.476 206.555 221.642 204.403 221.642C202.251 221.642 202.327 219.511 203.22 219.317C207.31 218.452 212.382 217.241 213.835 216.12C214.086 215.922 214.395 215.813 214.714 215.809Z" fill="#263238"/>
<path d="M228.859 211.007L233.8 207.679C233.88 207.615 233.98 207.58 234.083 207.58C234.186 207.58 234.286 207.615 234.367 207.679L238.145 211.492C238.219 211.576 238.274 211.675 238.305 211.782C238.336 211.889 238.343 212.001 238.326 212.112C238.309 212.222 238.268 212.327 238.205 212.42C238.143 212.512 238.061 212.59 237.966 212.647C234.81 215.076 232.533 216.91 230.734 218.931C228.658 221.291 227.537 221.63 222.693 221.63C220.451 221.63 219.185 219.74 220.098 219.45C228.167 216.896 226.008 215.782 227.973 212.038C228.178 211.627 228.482 211.272 228.859 211.007Z" fill="#263238"/>
<path d="M166.849 91.1387L161.5 91.3255L162.621 95.519C162.621 95.519 168.212 96.0173 168.711 94.3288L166.849 91.1387Z" fill="#E4897B"/>
<path d="M155.729 93.8243L159.479 96.011L162.621 95.5197L161.5 91.3262L155.729 93.8243Z" fill="#E4897B"/>
<path opacity="0.31" d="M221.35 46.2002C220.782 49.4664 221.537 57.2722 224.339 66.3097C224.559 58.5667 225.459 50.858 227.031 43.273V43.2315C225.232 43.0516 221.897 43.1346 221.35 46.2002Z" fill="#80A2FC"/>
<path d="M217.635 27.0039C216.77 30.7545 215.794 37.633 218.327 40.1519C218.327 40.1519 217.233 43.259 210.258 43.259C202.59 43.259 206.666 40.1519 206.666 40.1519C210.888 39.1554 210.888 36.0483 210.258 33.135L217.635 27.0039Z" fill="#E4897B"/>
<path d="M210.064 43.2461L207.988 45.4536L209.006 47.5849L210.659 47.6611L212.071 45.6266L210.064 43.2461Z" fill="#80A2FC"/>
<path d="M214.632 29.502L210.266 33.1142C210.423 33.7964 210.52 34.491 210.556 35.1902C212.162 34.9618 214.418 33.2041 214.646 31.5295C214.768 30.8587 214.763 30.171 214.632 29.502Z" fill="#CE6F64"/>
<path d="M208.534 14.2853C205.911 15.178 203.814 22.1326 206.873 23.9733C209.932 25.814 213.516 12.5899 208.534 14.2853Z" fill="#263238"/>
<path d="M219.274 23.073C217.71 27.917 217.046 30.8442 213.89 32.8302C212.872 33.4845 211.695 33.848 210.485 33.8813C209.276 33.9147 208.08 33.6167 207.027 33.0196C205.975 32.4224 205.106 31.5489 204.514 30.4934C203.922 29.4379 203.63 28.2407 203.67 27.0313C203.732 22.3741 206.278 15.205 211.641 14.3054C212.797 14.0823 213.991 14.1667 215.104 14.5503C216.217 14.9339 217.21 15.6031 217.983 16.491C218.756 17.3788 219.282 18.4542 219.509 19.6093C219.735 20.7645 219.654 21.9589 219.274 23.073Z" fill="#E4897B"/>
<path d="M223.15 14.9774C221.586 18.7557 225.226 15.6002 224.285 20.0843C223.676 23.0046 218.403 30.0007 216.368 29.364C214.334 28.7274 214.355 23.7658 216.95 20.2573C218.444 18.2436 215.213 15.96 207.954 16.2022C200.695 16.4444 196.307 12.3616 205.954 9.36523C205.954 9.36523 202.397 11.4412 204.507 12.1332C207.497 13.2474 226.285 7.40688 223.15 14.9774Z" fill="#263238"/>
<path d="M221.766 16.708C221.69 16.708 223.392 16.2859 224.299 13.248C224.299 13.2965 224.001 17.7737 221.766 16.708Z" fill="#263238"/>
<path d="M208.182 10.0371C203.718 11.4211 205.566 12.9781 207.413 13.3656L211.649 11.7048C205.213 12.556 208.182 10.0371 208.182 10.0371Z" fill="#263238"/>
<path d="M220.132 28.9913C219.204 29.8932 217.966 30.4058 216.672 30.4237C214.963 30.4237 214.596 28.8044 215.516 27.4481C216.333 26.2302 218.201 24.7632 219.71 25.4206C221.219 26.078 221.267 27.8772 220.132 28.9913Z" fill="#E4897B"/>
<path d="M211.393 22.8035C211.289 23.2048 210.992 23.4955 210.701 23.4263C210.41 23.3571 210.307 22.9903 210.41 22.589C210.514 22.1876 210.812 21.897 211.102 21.9731C211.393 22.0492 211.497 22.4021 211.393 22.8035Z" fill="#263238"/>
<path d="M206.825 21.7996C206.721 22.201 206.423 22.4916 206.133 22.4224C205.842 22.3532 205.738 21.9934 205.842 21.592C205.946 21.1906 206.236 20.9 206.534 20.9692C206.832 21.0384 206.908 21.3982 206.825 21.7996Z" fill="#263238"/>
<path d="M208.223 22.3203C207.436 23.4407 206.506 24.4528 205.455 25.3305C205.686 25.5873 205.971 25.7904 206.289 25.9255C206.607 26.0606 206.951 26.1244 207.296 26.1125L208.223 22.3203Z" fill="#DE5753"/>
<path d="M208.985 27.5708C208.698 27.5705 208.413 27.538 208.133 27.4739C208.103 27.4657 208.076 27.4461 208.06 27.4191C208.043 27.3921 208.037 27.3597 208.044 27.3286C208.052 27.2979 208.071 27.2715 208.098 27.2548C208.125 27.238 208.158 27.2323 208.189 27.2386C208.698 27.3521 209.227 27.3488 209.735 27.229C210.243 27.1091 210.718 26.8759 211.123 26.5466C211.146 26.5242 211.177 26.5117 211.209 26.5117C211.242 26.5117 211.273 26.5242 211.296 26.5466C211.318 26.5699 211.331 26.6009 211.331 26.6331C211.331 26.6654 211.318 26.6964 211.296 26.7196C210.653 27.2728 209.833 27.5751 208.985 27.5708Z" fill="#263238"/>
<path d="M213.206 21.6481C213.158 21.6489 213.112 21.6355 213.073 21.6096C213.033 21.5836 213.002 21.5464 212.984 21.5028C212.871 21.2252 212.692 20.979 212.463 20.7851C212.234 20.5912 211.962 20.4552 211.669 20.3887C211.637 20.3844 211.607 20.3739 211.579 20.3576C211.551 20.3413 211.527 20.3197 211.507 20.2939C211.488 20.2681 211.474 20.2387 211.466 20.2075C211.458 20.1762 211.457 20.1437 211.462 20.1119C211.472 20.0481 211.507 19.9909 211.558 19.9522C211.61 19.9134 211.675 19.8963 211.739 19.9043C212.111 19.9802 212.46 20.146 212.754 20.3872C213.048 20.6283 213.279 20.9376 213.427 21.2883C213.441 21.3172 213.448 21.3486 213.449 21.3806C213.45 21.4126 213.445 21.4444 213.433 21.4742C213.422 21.504 213.404 21.5311 213.382 21.5539C213.359 21.5766 213.332 21.5946 213.303 21.6066C213.274 21.6274 213.241 21.6415 213.206 21.6481Z" fill="#263238"/>
<path d="M205.282 19.8148C205.227 19.8144 205.173 19.7949 205.13 19.7595C205.08 19.7177 205.049 19.6581 205.042 19.5935C205.036 19.5289 205.055 19.4643 205.095 19.4135C205.339 19.1101 205.649 18.8669 206.002 18.7025C206.355 18.5381 206.741 18.457 207.13 18.4654C207.162 18.4681 207.193 18.4769 207.221 18.4916C207.249 18.5062 207.275 18.5264 207.295 18.5508C207.316 18.5753 207.331 18.6035 207.341 18.634C207.351 18.6645 207.354 18.6966 207.351 18.7284C207.35 18.7606 207.341 18.7921 207.327 18.821C207.313 18.8498 207.292 18.8754 207.268 18.8962C207.243 18.917 207.214 18.9324 207.184 18.9417C207.153 18.9509 207.12 18.9537 207.088 18.9498C206.777 18.9466 206.469 19.0147 206.189 19.1491C205.908 19.2835 205.662 19.4804 205.469 19.7249C205.447 19.7532 205.418 19.776 205.386 19.7916C205.354 19.8071 205.318 19.8151 205.282 19.8148Z" fill="#263238"/>
<path d="M228.81 44.8379C229.35 45.6752 229.8 46.4157 230.256 47.2184C230.713 48.0211 231.149 48.7961 231.578 49.5989C232.422 51.1974 233.218 52.8305 233.945 54.4982C235.469 57.9124 236.613 61.4838 237.356 65.1481L237.426 65.501L237.46 65.674L237.509 65.9646C237.567 66.3517 237.598 66.7426 237.599 67.1341C237.592 67.7897 237.522 68.4432 237.391 69.0856C237.157 70.1451 236.818 71.1789 236.381 72.1719C235.604 73.9118 234.678 75.5811 233.613 77.1612C231.6 80.1658 229.311 82.976 226.776 85.5552L223.765 83.1401C225.44 80.2199 227.108 77.1889 228.506 74.2202C229.193 72.8004 229.78 71.3345 230.263 69.8329C230.461 69.2066 230.595 68.5622 230.665 67.9092C230.689 67.6953 230.689 67.4795 230.665 67.2656C230.665 67.2033 230.665 67.148 230.623 67.1411C230.582 67.1341 230.623 67.1411 230.623 67.1065L230.582 66.9681L230.499 66.6843C230.061 65.158 229.542 63.6564 228.942 62.1863C228.333 60.6847 227.655 59.19 226.942 57.7022C226.229 56.2144 225.461 54.7473 224.672 53.2803C224.284 52.5468 223.876 51.8202 223.468 51.1005L222.25 49.0245L228.81 44.8379Z" fill="#E4897B"/>
<path d="M212.901 216.696C212.555 216.73 212.21 216.634 211.932 216.426C211.854 216.339 211.799 216.234 211.772 216.12C211.745 216.006 211.748 215.888 211.78 215.775C211.795 215.7 211.829 215.629 211.879 215.57C211.928 215.511 211.992 215.465 212.063 215.436C212.693 215.187 214.139 216.184 214.305 216.294C214.326 216.307 214.342 216.326 214.351 216.349C214.359 216.371 214.361 216.396 214.354 216.419C214.35 216.442 214.34 216.464 214.324 216.481C214.308 216.499 214.287 216.511 214.264 216.516C213.817 216.623 213.36 216.684 212.901 216.696ZM212.299 215.637C212.251 215.629 212.201 215.629 212.153 215.637C212.118 215.65 212.087 215.672 212.064 215.701C212.041 215.731 212.026 215.766 212.022 215.803C211.997 215.876 211.991 215.953 212.006 216.029C212.02 216.104 212.055 216.174 212.105 216.232C212.34 216.467 213.011 216.495 213.932 216.315C213.442 215.976 212.885 215.747 212.299 215.644V215.637Z" fill="white"/>
<path d="M214.236 216.522H214.174C213.662 216.218 212.9 215.138 213.018 214.585C213.038 214.483 213.093 214.392 213.172 214.325C213.251 214.258 213.351 214.221 213.454 214.218C213.545 214.206 213.638 214.215 213.725 214.244C213.813 214.272 213.893 214.32 213.959 214.384C214.478 214.889 214.361 216.363 214.361 216.425C214.358 216.446 214.35 216.466 214.338 216.483C214.326 216.5 214.31 216.513 214.291 216.522H214.236ZM213.544 214.446H213.489C213.316 214.446 213.274 214.55 213.26 214.619C213.184 214.986 213.689 215.796 214.132 216.169C214.196 215.608 214.08 215.041 213.8 214.55C213.765 214.516 213.724 214.49 213.679 214.472C213.634 214.454 213.586 214.445 213.537 214.446H213.544Z" fill="white"/>
<path d="M225.537 213.789C225.409 213.793 225.281 213.769 225.163 213.72C225.072 213.683 224.991 213.625 224.927 213.55C224.863 213.476 224.818 213.387 224.796 213.291C224.779 213.232 224.776 213.171 224.79 213.111C224.803 213.052 224.832 212.997 224.872 212.952C225.336 212.391 227.765 212.557 228.042 212.578C228.068 212.579 228.092 212.588 228.112 212.604C228.132 212.62 228.147 212.643 228.153 212.668C228.158 212.693 228.155 212.719 228.146 212.742C228.136 212.766 228.119 212.786 228.097 212.799C227.324 213.309 226.451 213.646 225.537 213.789ZM227.004 212.779C226.153 212.779 225.26 212.862 225.059 213.104C225.048 213.123 225.042 213.144 225.042 213.166C225.042 213.188 225.048 213.21 225.059 213.228C225.071 213.288 225.097 213.344 225.136 213.391C225.175 213.439 225.224 213.475 225.281 213.498C225.668 213.657 226.54 213.395 227.64 212.806L227.004 212.779Z" fill="white"/>
<path d="M228.035 212.821C227.343 212.821 225.786 212.288 225.668 211.734C225.668 211.596 225.668 211.402 226 211.243C227.19 210.682 228.111 212.565 228.152 212.627C228.161 212.646 228.165 212.668 228.165 212.689C228.165 212.71 228.161 212.732 228.152 212.751C228.141 212.773 228.124 212.79 228.103 212.802C228.082 212.815 228.059 212.821 228.035 212.821ZM226.436 211.388C226.319 211.387 226.203 211.413 226.097 211.464C225.952 211.533 225.883 211.61 225.896 211.679C225.966 212.004 227.087 212.461 227.82 212.558C227.599 212.184 227.066 211.388 226.436 211.388Z" fill="white"/>
<path d="M225.136 82.0177L220.057 81.125L222.679 87.0416C222.679 87.0416 227.336 87.0416 227.129 84.6058L225.136 82.0177Z" fill="#E4897B"/>
<path d="M216.217 84.0937L218.618 88.8754L222.652 87.0347L220.03 81.125L216.217 84.0937Z" fill="#E4897B"/>
<path d="M230.734 201.92L223.074 209.138L220.604 206.488L229.371 198.502L230.734 201.92Z" fill="#80A2FC"/>
<path opacity="0.6" d="M230.734 201.92L223.074 209.138L220.604 206.488L229.371 198.502L230.734 201.92Z" fill="white"/>
<path d="M222.236 209.167H212.084L211.523 205.604L222.727 206.157L222.236 209.167Z" fill="#80A2FC"/>
<path opacity="0.6" d="M222.236 209.167H212.084L211.523 205.604L222.727 206.157L222.236 209.167Z" fill="white"/>
<path d="M227.481 41.3019C232.325 41.9939 237.287 58.8234 237.287 58.8234L226.907 64.5808C226.907 64.5808 222.693 56.5813 220.679 50.6439C218.569 44.4229 222.298 40.5407 227.481 41.3019Z" fill="#80A2FC"/>
<path opacity="0.7" d="M227.481 41.3019C232.325 41.9939 237.287 58.8234 237.287 58.8234L226.907 64.5808C226.907 64.5808 222.693 56.5813 220.679 50.6439C218.569 44.4229 222.298 40.5407 227.481 41.3019Z" fill="white"/>
<path opacity="0.2" d="M210.064 43.2461L207.988 45.4536L209.006 47.5849L210.659 47.6611L212.071 45.6266L210.064 43.2461Z" fill="black"/>
<path d="M209.186 47.2031C209.186 47.2031 205.249 63.5136 205.097 66.9044C204.882 71.5684 206.833 79.5334 206.833 79.5334C206.833 79.5334 209.601 72.9109 210.169 66.759C210.736 60.6072 210.314 50.6562 210.57 47.2031H209.186Z" fill="#80A2FC"/>
<path opacity="0.2" d="M209.186 47.2031C209.186 47.2031 205.249 63.5136 205.097 66.9044C204.882 71.5684 206.833 79.5334 206.833 79.5334C206.833 79.5334 209.601 72.9109 210.169 66.759C210.736 60.6072 210.314 50.6562 210.57 47.2031H209.186Z" fill="black"/>
<path d="M210.064 43.2453C210.853 44.5218 211.31 45.9753 211.393 47.4734C211.393 47.4734 220.029 44.4286 219.621 39.9652C219.621 39.9652 218.396 39.2386 217.621 38.6504C217.621 38.6504 217.33 41.4599 210.064 43.2453Z" fill="#80A2FC"/>
<path opacity="0.6" d="M210.064 43.2453C210.853 44.5218 211.31 45.9753 211.393 47.4734C211.393 47.4734 220.029 44.4286 219.621 39.9652C219.621 39.9652 218.396 39.2386 217.621 38.6504C217.621 38.6504 217.33 41.4599 210.064 43.2453Z" fill="white"/>
<path d="M210.064 43.2462C209.271 44.4546 208.699 45.7951 208.376 47.2044C208.376 47.2044 204.466 44.561 205.643 40.1529C206.359 39.8642 207.097 39.6328 207.85 39.4609C207.85 39.4609 207.338 42.312 210.064 43.2462Z" fill="#80A2FC"/>
<path opacity="0.6" d="M210.064 43.2462C209.271 44.4546 208.699 45.7951 208.376 47.2044C208.376 47.2044 204.466 44.561 205.643 40.1529C206.359 39.8642 207.097 39.6328 207.85 39.4609C207.85 39.4609 207.338 42.312 210.064 43.2462Z" fill="white"/>
</svg>
