<svg width="22" height="22" viewBox="0 0 22 22" fill="none" xmlns="http://www.w3.org/2000/svg">
<path d="M7.87048 18.2367C6.6984 18.2367 5.7017 17.826 4.8804 17.0047C4.05909 16.1834 3.64844 15.1864 3.64844 14.0137C3.64844 13.5183 3.73264 13.038 3.90103 12.573C4.06943 12.1079 4.3126 11.6839 4.63054 11.3009L7.83309 7.45544L5.93636 3.64648H15.9507L14.054 7.45544L17.2565 11.3009C17.5745 11.6833 17.8177 12.107 17.986 12.572C18.1544 13.0377 18.2386 13.5183 18.2386 14.0137C18.2386 15.1864 17.8271 16.1834 17.0039 17.0047C16.1808 17.826 15.185 18.2367 14.0166 18.2367H7.87048ZM10.9435 14.115C10.5356 14.115 10.1882 13.9718 9.90125 13.6855C9.61431 13.3985 9.47084 13.0511 9.47084 12.6432C9.47084 12.2346 9.61431 11.8869 9.90125 11.6C10.1882 11.313 10.5356 11.1696 10.9435 11.1696C11.3515 11.1696 11.6989 11.313 11.9858 11.6C12.2728 11.8869 12.4162 12.2346 12.4162 12.6432C12.4162 13.0517 12.2728 13.3991 11.9858 13.6855C11.6989 13.9718 11.3515 14.115 10.9435 14.115ZM8.67294 7.06606H13.2324L14.4771 4.55837H7.40997L8.67294 7.06606ZM7.87048 17.3248H14.0166C14.9406 17.3248 15.7233 17.0014 16.3647 16.3546C17.0061 15.7077 17.3268 14.9274 17.3268 14.0137C17.3268 13.6259 17.262 13.249 17.1325 12.883C17.003 12.517 16.8131 12.1863 16.5626 11.8909L13.298 7.97795H8.61093L5.34272 11.8854C5.09104 12.1821 4.89772 12.514 4.76276 12.8812C4.6278 13.2484 4.56033 13.6259 4.56033 14.0137C4.56033 14.9268 4.88405 15.7071 5.53149 16.3546C6.17832 17.0014 6.95798 17.3248 7.87048 17.3248Z" fill="#444445"/>
</svg>
