<svg width="23" height="23" viewBox="0 0 23 23" fill="none" xmlns="http://www.w3.org/2000/svg">
<path d="M10.3508 10.3498C10.1983 10.3498 10.052 10.4104 9.94419 10.5182C9.83636 10.6261 9.77578 10.7723 9.77578 10.9248V14.3748C9.77578 14.4726 9.80075 14.5689 9.84832 14.6544C9.89589 14.7398 9.96448 14.8118 10.0476 14.8634C10.1307 14.915 10.2257 14.9445 10.3234 14.9491C10.4211 14.9538 10.5184 14.9334 10.6061 14.89C10.6927 14.5956 10.7993 14.3112 10.9258 14.0367V10.9248C10.9258 10.7723 10.8652 10.6261 10.7574 10.5182C10.6495 10.4104 10.5033 10.3498 10.3508 10.3498ZM4.60078 17.2498H10.3761C10.4121 17.6454 10.483 18.0287 10.5888 18.3998H4.60078C3.99078 18.3998 3.40577 18.1575 2.97444 17.7261C2.5431 17.2948 2.30078 16.7098 2.30078 16.0998V4.5998C2.30078 3.98981 2.5431 3.40479 2.97444 2.97346C3.40577 2.54213 3.99078 2.2998 4.60078 2.2998H16.1008C16.7108 2.2998 17.2958 2.54213 17.7271 2.97346C18.1585 3.40479 18.4008 3.98981 18.4008 4.5998V10.5879C18.0248 10.4816 17.6399 10.4104 17.2508 10.3751V4.5998C17.2508 4.29481 17.1296 4.0023 16.914 3.78663C16.6983 3.57096 16.4058 3.4498 16.1008 3.4498H4.60078C4.29578 3.4498 4.00328 3.57096 3.78761 3.78663C3.57194 4.0023 3.45078 4.29481 3.45078 4.5998V16.0998C3.45078 16.4048 3.57194 16.6973 3.78761 16.913C4.00328 17.1286 4.29578 17.2498 4.60078 17.2498ZM14.9508 6.3248V10.5879C14.549 10.7021 14.1657 10.8527 13.8008 11.0398V6.3248C13.8008 6.17231 13.8614 6.02605 13.9692 5.91822C14.077 5.81038 14.2233 5.7498 14.3758 5.7498C14.5283 5.7498 14.6745 5.81038 14.7824 5.91822C14.8902 6.02605 14.9508 6.17231 14.9508 6.3248ZM5.75078 8.6248C5.75078 8.47231 5.81136 8.32605 5.91919 8.21822C6.02703 8.11038 6.17328 8.0498 6.32578 8.0498C6.47828 8.0498 6.62453 8.11038 6.73237 8.21822C6.8402 8.32605 6.90078 8.47231 6.90078 8.6248V14.3748C6.90078 14.5273 6.8402 14.6736 6.73237 14.7814C6.62453 14.8892 6.47828 14.9498 6.32578 14.9498C6.17328 14.9498 6.02703 14.8892 5.91919 14.7814C5.81136 14.6736 5.75078 14.5273 5.75078 14.3748V8.6248ZM21.8508 16.6748C21.8508 18.0473 21.3056 19.3636 20.3351 20.3341C19.3646 21.3046 18.0483 21.8498 16.6758 21.8498C15.3033 21.8498 13.987 21.3046 13.0165 20.3341C12.046 19.3636 11.5008 18.0473 11.5008 16.6748C11.5008 15.3023 12.046 13.986 13.0165 13.0155C13.987 12.045 15.3033 11.4998 16.6758 11.4998C18.0483 11.4998 19.3646 12.045 20.3351 13.0155C21.3056 13.986 21.8508 15.3023 21.8508 16.6748ZM18.5687 14.5427L15.5258 17.5868L14.7829 16.8427C14.6749 16.7347 14.5285 16.6741 14.3758 16.6741C14.2231 16.6741 14.0767 16.7347 13.9687 16.8427C13.8607 16.9507 13.8001 17.0971 13.8001 17.2498C13.8001 17.4025 13.8607 17.5489 13.9687 17.6569L15.1187 18.8069C15.1721 18.8605 15.2355 18.9029 15.3054 18.9319C15.3753 18.9609 15.4501 18.9758 15.5258 18.9758C15.6014 18.9758 15.6763 18.9609 15.7462 18.9319C15.816 18.9029 15.8795 18.8605 15.9329 18.8069L19.3829 15.3569C19.4909 15.2489 19.5515 15.1025 19.5515 14.9498C19.5515 14.7971 19.4909 14.6507 19.3829 14.5427C19.2749 14.4347 19.1285 14.3741 18.9758 14.3741C18.8231 14.3741 18.6767 14.4347 18.5687 14.5427Z" fill="#6F6B7D"/>
</svg>
