<svg width="21" height="21" viewBox="0 0 21 21" fill="none" xmlns="http://www.w3.org/2000/svg">
<path d="M6.498 17.0667C6.11569 17.0667 5.79028 16.9325 5.52176 16.664C5.25324 16.3954 5.11898 16.0703 5.11898 15.6886V5.11981H4.26562V4.26646H7.67904V3.60938H12.7992V4.26646H16.2126V5.11981H15.3592V15.6886C15.3592 16.0811 15.2278 16.4091 14.965 16.6725C14.7021 16.9359 14.3739 17.0673 13.9802 17.0667H6.498ZM14.5059 5.11981H5.97233V15.6886C5.97233 15.8416 6.02154 15.9673 6.11996 16.0658C6.21838 16.1642 6.34439 16.2134 6.498 16.2134H13.981C14.1119 16.2134 14.2322 16.1588 14.342 16.0496C14.4518 15.9403 14.5064 15.8197 14.5059 15.6877V5.11981ZM8.36855 14.5067H9.2219V6.82652H8.36855V14.5067ZM11.2563 14.5067H12.1096V6.82652H11.2563V14.5067Z" fill="#BF0A0A"/>
</svg>
