<svg width="280" height="348" viewBox="0 0 280 348" fill="none" xmlns="http://www.w3.org/2000/svg">
<g clip-path="url(#clip0_36_1442)">
<path d="M230.565 279.82H153.246V347.356H230.565V279.82Z" fill="#80A2FC"/>
<path opacity="0.1" d="M230.565 279.82H153.246V347.356H230.565V279.82Z" fill="black"/>
<path d="M261.206 279.829H230.566V347.364H261.206V279.829Z" fill="#80A2FC"/>
<path opacity="0.2" d="M261.206 279.829H230.566V347.364H261.206V279.829Z" fill="black"/>
<path d="M259.088 342.708C256.823 337.908 254.576 333.092 252.347 328.259L245.699 313.729L239.137 299.141C236.965 294.27 234.811 289.383 232.676 284.479C234.951 289.285 237.201 294.101 239.424 298.928L246.064 313.458L252.626 328.046C254.808 332.917 256.962 337.804 259.088 342.708Z" fill="#80A2FC"/>
<path d="M259.088 284.479C256.957 289.399 254.803 294.287 252.626 299.141L246.064 313.729L239.424 328.259C237.195 333.086 234.946 337.902 232.676 342.708C234.811 337.788 236.965 332.9 239.137 328.046L245.699 313.458L252.347 298.936C254.576 294.098 256.823 289.279 259.088 284.479Z" fill="#80A2FC"/>
<path d="M197.375 294.417H196.157H195.234L194.714 293.294L193.977 294.417L192.976 292.105L192.038 294.417H189.339H188.105L187.655 292.875L187.236 294.417H186.438V279.829H197.375V294.417Z" fill="white"/>
<path d="M235.228 212.294H177.541V279.821H235.228V212.294Z" fill="#80A2FC"/>
<path d="M265.014 212.294H235.229V279.829H265.014V212.294Z" fill="#80A2FC"/>
<path opacity="0.1" d="M265.014 212.294H235.229V279.829H265.014V212.294Z" fill="black"/>
<g opacity="0.1">
<path d="M231.001 275.171C226.766 270.366 222.567 265.55 218.404 260.723L205.97 246.16L193.722 231.572C189.657 226.701 185.634 221.814 181.652 216.91C185.893 221.715 190.092 226.534 194.249 231.367L206.66 245.889L218.908 260.477C222.988 265.369 227.019 270.268 231.001 275.171Z" fill="black"/>
<path d="M230.999 216.943C227.012 221.863 222.989 226.751 218.93 231.605L206.682 246.16L194.271 260.69C190.134 265.517 185.935 270.334 181.674 275.139C185.661 270.219 189.684 265.332 193.743 260.477L205.968 245.922L218.379 231.4C222.552 226.562 226.759 221.743 230.999 216.943Z" fill="black"/>
</g>
<path d="M260.826 268.398H255.605V276.188H260.826V268.398Z" fill="white"/>
<path d="M-0.00976562 347.389L40.434 347.184L80.8777 347.118L161.757 346.979L242.637 347.118L283.081 347.184L323.525 347.389L283.081 347.585L242.637 347.659L161.757 347.799L80.8777 347.659L40.434 347.585L-0.00976562 347.389Z" fill="#263238"/>
<path d="M192.567 114.796C192.132 114.501 191.698 114.214 191.264 113.935L191.566 113.402L192.885 114.28L192.567 114.796Z" fill="#263238"/>
<path d="M173.627 196.959H173.068V196.344C174.104 196.369 175.14 196.328 176.171 196.221L176.233 196.836C175.388 196.902 174.503 196.959 173.627 196.959ZM179.382 196.287L179.258 195.688C180.267 195.447 181.258 195.126 182.221 194.729L182.431 195.303C181.439 195.705 180.42 196.029 179.382 196.271V196.287ZM185.301 193.827L185.014 193.294C185.905 192.744 186.754 192.119 187.55 191.424L187.923 191.892C187.102 192.616 186.225 193.266 185.301 193.835V193.827ZM190.211 189.563L189.784 189.145C190.48 188.336 191.12 187.476 191.7 186.57L192.181 186.914C191.586 187.852 190.928 188.743 190.211 189.579V189.563ZM193.763 183.995L193.236 183.733C193.678 182.745 194.039 181.719 194.314 180.666L194.873 180.83C194.591 181.92 194.22 182.982 193.763 184.003V183.995ZM195.439 177.501L194.857 177.452C194.857 177.009 194.911 176.558 194.911 176.123C194.909 175.515 194.876 174.907 194.811 174.303C194.207 174.26 193.606 174.181 193.011 174.065L193.112 173.458C194.059 173.639 195.019 173.732 195.982 173.737H196.184V174.352H195.974H195.392C195.454 174.946 195.486 175.542 195.485 176.14C195.493 176.582 195.47 177.05 195.439 177.509V177.501ZM199.372 173.942L199.24 173.343C200.237 173.094 201.203 172.719 202.117 172.228L202.381 172.778C201.425 173.293 200.415 173.687 199.372 173.95V173.942ZM189.924 173.179C188.921 172.797 187.948 172.331 187.015 171.785L187.302 171.252C188.205 171.78 189.147 172.229 190.118 172.597L189.924 173.179ZM194.097 171.015C193.757 169.989 193.309 169.008 192.763 168.087L193.251 167.759C193.826 168.716 194.295 169.74 194.648 170.81L194.097 171.015ZM205.049 170.883L204.677 170.416C205.464 169.713 206.184 168.931 206.826 168.079L207.276 168.464C206.613 169.356 205.867 170.175 205.049 170.908V170.883ZM184.385 169.899L184.223 169.735C183.455 169.022 182.843 168.141 182.431 167.152L182.974 166.923C183.352 167.828 183.913 168.634 184.618 169.284L184.773 169.432L184.385 169.899ZM209.075 165.709L208.579 165.389C209.122 164.438 209.626 163.462 210.068 162.503L210.596 162.774C210.146 163.749 209.634 164.742 209.075 165.709ZM190.831 165.586C190.123 164.861 189.343 164.217 188.504 163.667L188.388 163.585L188.69 163.061L188.815 163.143C189.679 163.72 190.483 164.393 191.211 165.152L190.831 165.586ZM183.129 164.004L182.648 163.659C182.98 163.166 183.42 162.765 183.931 162.491C184.441 162.217 185.007 162.077 185.58 162.085V162.7C185.103 162.697 184.632 162.814 184.206 163.04C183.78 163.267 183.411 163.597 183.129 164.004ZM211.829 159.682L211.286 159.469C211.645 158.44 211.953 157.392 212.209 156.328L212.767 156.476C212.517 157.563 212.207 158.634 211.837 159.682H211.829ZM213.38 153.18L212.798 153.098C212.937 152.01 213.017 150.915 213.039 149.818H213.621C213.6 150.942 213.519 152.065 213.38 153.18ZM212.93 146.538C212.837 145.437 212.689 144.342 212.488 143.258L213.062 143.135C213.265 144.233 213.415 145.341 213.512 146.456L212.93 146.538ZM211.728 140.092C211.433 139.059 211.084 138.018 210.681 136.985L211.224 136.755C211.627 137.796 212 138.862 212.287 139.912L211.728 140.092ZM209.401 133.983C208.936 133.024 208.416 132.056 207.85 131.105L208.346 130.785C208.905 131.745 209.432 132.729 209.897 133.705L209.401 133.983ZM206.135 128.358C205.538 127.473 204.894 126.595 204.227 125.742L204.677 125.349C205.352 126.21 206.004 127.104 206.609 127.997L206.135 128.358ZM202.164 123.258C201.458 122.438 200.713 121.675 199.953 120.921L200.349 120.47C201.125 121.241 201.9 122.036 202.583 122.84L202.164 123.258ZM197.611 118.723C196.835 118.026 195.99 117.337 195.16 116.681L195.501 116.189C196.346 116.845 197.184 117.542 197.983 118.256L197.611 118.723Z" fill="#263238"/>
<path d="M169.817 196.665C169.295 196.597 168.777 196.498 168.266 196.37L168.405 195.771C168.405 195.771 168.964 195.919 169.895 196.058L169.817 196.665Z" fill="#263238"/>
<path d="M161.99 195.443C161.625 198.723 167.962 200.56 168.443 196.263C168.924 191.966 162.354 192.138 161.99 195.443Z" fill="#263238"/>
<path d="M170.291 200.872C169.701 202.11 167.615 202.282 165.458 200.691C163.994 199.509 162.756 198.043 161.812 196.37C163.636 196.169 165.479 196.339 167.242 196.87C169.794 197.78 170.911 199.617 170.291 200.872Z" fill="#EBEBEB"/>
<path d="M161.836 196.369C163.062 196.951 164.264 197.583 165.466 198.206C166.668 198.829 167.855 199.493 169.026 200.182C167.801 199.6 166.599 198.969 165.396 198.345C164.194 197.722 163.007 197.058 161.836 196.369Z" fill="#263238"/>
<path d="M167.466 200.847C167.188 200.505 166.929 200.146 166.691 199.772C166.456 199.401 166.244 199.015 166.055 198.616C166.333 198.958 166.592 199.316 166.83 199.69C167.066 200.061 167.279 200.447 167.466 200.847Z" fill="#263238"/>
<path d="M164.859 197.969C165.286 197.852 165.719 197.759 166.155 197.69C166.595 197.625 167.037 197.584 167.481 197.567C166.622 197.794 165.744 197.928 164.859 197.969Z" fill="#263238"/>
<path d="M164.185 198.51C163.919 198.159 163.728 197.75 163.627 197.312C163.894 197.664 164.084 198.072 164.185 198.51Z" fill="#263238"/>
<path d="M171.315 192.286C171.012 190.933 169.026 190.26 166.583 191.277C164.897 192.071 163.37 193.198 162.084 194.598C163.828 195.236 165.671 195.515 167.514 195.418C170.128 195.189 171.625 193.68 171.315 192.286Z" fill="#EBEBEB"/>
<path d="M162.084 194.598C163.403 194.336 164.714 194.008 166.017 193.688C167.32 193.368 168.623 193.024 169.895 192.639C168.584 192.901 167.273 193.229 165.97 193.549C164.667 193.869 163.379 194.213 162.084 194.598Z" fill="#263238"/>
<path d="M168.545 191.613C168.208 191.867 167.884 192.141 167.576 192.433C167.268 192.74 166.975 193.063 166.699 193.401C167.04 193.152 167.364 192.878 167.669 192.581C167.979 192.277 168.271 191.954 168.545 191.613Z" fill="#263238"/>
<path d="M165.365 193.778C166.151 194.211 166.978 194.554 167.832 194.803C167.048 194.367 166.22 194.024 165.365 193.778Z" fill="#263238"/>
<path d="M164.861 193.09C164.692 193.224 164.539 193.378 164.404 193.549C164.27 193.725 164.153 193.914 164.055 194.115C164.224 193.978 164.377 193.821 164.512 193.647C164.653 193.48 164.771 193.292 164.861 193.09Z" fill="#263238"/>
<path d="M161.99 195.443C162.212 195.47 162.422 195.566 162.592 195.719C162.763 195.873 162.887 196.076 162.948 196.303C163.009 196.53 163.006 196.772 162.938 196.997C162.869 197.222 162.74 197.421 162.565 197.568C162.39 197.716 162.177 197.805 161.954 197.825C161.731 197.845 161.508 197.794 161.312 197.68C161.116 197.566 160.957 197.393 160.854 197.183C160.751 196.973 160.709 196.736 160.733 196.501C160.768 196.185 160.92 195.896 161.156 195.698C161.391 195.5 161.691 195.408 161.99 195.443Z" fill="#455A64"/>
<path d="M162.254 193.057C162.403 193.075 162.546 193.124 162.676 193.201C162.807 193.278 162.921 193.381 163.014 193.505C163.106 193.629 163.175 193.771 163.216 193.922C163.256 194.074 163.269 194.233 163.251 194.389C163.234 194.546 163.188 194.698 163.115 194.835C163.042 194.973 162.944 195.094 162.827 195.192C162.71 195.29 162.576 195.363 162.433 195.406C162.289 195.449 162.139 195.461 161.991 195.443C161.691 195.406 161.418 195.245 161.231 194.995C161.044 194.745 160.959 194.427 160.994 194.111C161.029 193.794 161.181 193.505 161.418 193.308C161.654 193.11 161.955 193.02 162.254 193.057Z" fill="#455A64"/>
<path d="M91.9451 272.655C91.9451 272.655 75.4077 307.661 75.4 307.661C74.0348 314.885 72.9644 321.257 72.6929 324.602C72.6889 324.621 72.6889 324.641 72.6929 324.66C72.5497 325.435 72.5789 326.235 72.7782 326.997C72.7742 327.016 72.7742 327.035 72.7782 327.054C74.539 328.94 128.883 342.167 130.954 341.953C133.025 341.74 132.583 335.566 130.861 333.278C129.139 330.99 110.468 316.058 110.468 316.058L126.633 280.995L91.9451 272.655Z" fill="#D3766A"/>
<path d="M130.131 341.985C128.091 342.198 74.562 328.963 72.809 327.085C72.8064 327.066 72.8064 327.047 72.809 327.028C72.606 326.267 72.5741 325.467 72.7159 324.691C72.7094 324.672 72.7094 324.652 72.7159 324.634C72.9796 321.288 74.0578 314.917 75.4153 307.684L79.3712 299.304L113.664 309.242L110.499 316.114C110.499 316.114 128.34 331.013 130.069 333.334C131.799 335.654 132.179 341.78 130.131 341.985Z" fill="#EBEBEB"/>
<path d="M130.878 341.066C128.807 341.23 74.3309 326.552 72.5934 324.601C71.9263 323.871 73.4854 315.351 75.6495 305.118L75.7193 304.798L110.966 313.859L110.803 314.482C110.803 314.482 129.272 329.964 130.971 332.325C132.669 334.687 132.941 340.911 130.878 341.066Z" fill="#263238"/>
<path d="M130.791 338.664C121.669 335.958 84.6229 325.921 75.4079 323.97C75.3303 323.97 75.3148 324.011 75.4079 324.035C84.398 326.93 121.522 336.647 130.776 338.795C130.954 338.869 130.985 338.722 130.791 338.664Z" fill="white"/>
<path d="M113.726 315.392C110.282 313.703 105.721 313.096 102.308 315.081C102.176 315.155 102.308 315.351 102.401 315.343C106.139 315.095 109.891 315.271 113.594 315.868C113.648 315.872 113.702 315.855 113.746 315.822C113.791 315.789 113.824 315.741 113.839 315.686C113.854 315.631 113.851 315.571 113.831 315.518C113.81 315.465 113.773 315.421 113.726 315.392Z" fill="white"/>
<path d="M115.93 317.755C112.494 316.074 107.933 315.467 104.512 317.443C104.381 317.517 104.512 317.714 104.613 317.714C108.351 317.462 112.104 317.638 115.806 318.238C115.863 318.244 115.92 318.229 115.966 318.195C116.013 318.16 116.047 318.11 116.062 318.052C116.077 317.994 116.072 317.932 116.048 317.878C116.023 317.823 115.982 317.78 115.93 317.755Z" fill="white"/>
<path d="M118.139 320.123C114.695 318.434 110.134 317.827 106.721 319.804C106.59 319.886 106.721 320.082 106.822 320.074C110.558 319.827 114.308 320.003 118.008 320.599C118.062 320.602 118.116 320.586 118.16 320.553C118.205 320.52 118.237 320.472 118.253 320.417C118.268 320.362 118.265 320.302 118.245 320.249C118.224 320.196 118.187 320.152 118.139 320.123Z" fill="white"/>
<path d="M132.204 339.23C133.08 339.886 132.033 343.289 131.265 343.379C130.497 343.469 71.1659 327.184 70.2273 326.667C69.2888 326.151 70.5764 322.428 71.7787 322.567C72.981 322.707 132.204 339.23 132.204 339.23Z" fill="#80A2FC"/>
<path d="M83.1565 313.671C79.7125 310.522 75.0739 316.18 78.5024 319.337C81.9309 322.494 86.6082 316.828 83.1565 313.671Z" fill="white"/>
<path d="M79.4727 296.509L119.218 307.103C119.218 307.103 156.265 236.427 155.435 218.461C154.294 193.681 126.773 117.486 126.773 117.486H93.8227C93.8227 117.486 115.689 199.855 115.991 213.713C116.123 220.962 79.4727 296.509 79.4727 296.509Z" fill="#455A64"/>
<path d="M120.916 298.574C118.798 297.681 99.8796 291.908 85.7623 288.734C85.7468 288.74 85.7333 288.75 85.7237 288.764C85.7141 288.778 85.709 288.795 85.709 288.812C85.709 288.83 85.7141 288.846 85.7237 288.86C85.7333 288.874 85.7468 288.885 85.7623 288.89C90.207 290.53 118.255 298.345 120.885 298.73C120.947 298.755 121.009 298.64 120.916 298.574Z" fill="#263238"/>
<path d="M118.721 196.017C116.1 184.389 113.292 172.794 110.344 161.273C107.397 149.752 104.24 138.124 100.772 126.694C100.353 125.291 99.9113 123.906 99.4847 122.512C99.4723 122.467 99.4437 122.43 99.4052 122.407C99.3666 122.385 99.3213 122.38 99.2791 122.393C99.2369 122.406 99.2014 122.436 99.1803 122.477C99.1592 122.518 99.1543 122.566 99.1666 122.61C102.269 134 105.372 145.365 108.312 156.796C111.252 168.227 114.052 179.69 116.689 191.236C117.348 194.089 117.992 196.935 118.621 199.797C119.351 202.73 119.915 205.706 120.312 208.71C120.638 211.58 120.451 214.49 119.761 217.287C119.012 220.036 118.034 222.709 116.837 225.274C112.084 236.18 107.335 247.089 102.587 258C97.8402 268.939 97.0723 271.432 92.5036 282.461C91.9373 283.83 91.3711 285.2 90.8281 286.561C90.8281 286.651 90.9134 286.733 90.96 286.635C96.157 275.827 96.956 273.228 101.819 262.223C106.683 251.219 111.515 240.083 116.34 229.005C118.512 224.003 121.064 218.903 121.39 213.31C121.716 207.472 119.978 201.617 118.721 196.017Z" fill="#263238"/>
<path d="M120.521 286.496L121.794 325.036C122.003 332.416 122.306 338.87 122.763 342.191C122.759 342.21 122.759 342.229 122.763 342.248C122.789 343.036 122.986 343.808 123.337 344.503L123.384 344.552C125.501 345.971 181.265 345.938 183.212 345.241C185.159 344.544 183.437 338.64 181.272 336.812C179.108 334.983 157.746 324.905 157.746 324.905L156.125 286.406L120.521 286.496Z" fill="#D3766A"/>
<path d="M121.529 317.146C121.529 317.146 121.793 325.035 121.793 325.059C122.002 332.439 122.305 338.893 122.763 342.214C122.759 342.233 122.759 342.252 122.763 342.271C122.869 343.044 123.061 343.801 123.337 344.526L123.383 344.575C125.501 345.994 181.264 345.961 183.211 345.264C185.158 344.567 183.436 338.663 181.272 336.835C179.108 335.006 157.746 324.928 157.746 324.928L157.583 316.9L121.529 317.146Z" fill="#EBEBEB"/>
<path d="M183.243 345.199C181.273 345.863 125.067 344.945 122.942 343.469C122.166 342.92 121.778 334.26 121.639 323.789V323.461L157.909 323.625V324.281C157.909 324.281 179.279 334.802 181.443 336.679C183.607 338.557 185.221 344.56 183.243 345.199Z" fill="#263238"/>
<path d="M182.646 342.921C173.175 342.519 134.934 341.846 125.541 342.215C125.463 342.215 125.463 342.273 125.541 342.273C134.919 342.888 173.167 343.24 182.646 343.093C182.84 343.044 182.848 342.921 182.646 342.921Z" fill="white"/>
<path d="M160.934 324.429C157.218 323.609 152.642 324.158 149.756 326.889C149.64 326.996 149.756 327.16 149.911 327.127C153.493 325.971 157.18 325.221 160.91 324.888C160.955 324.873 160.995 324.844 161.024 324.804C161.053 324.765 161.069 324.717 161.072 324.667C161.074 324.617 161.063 324.568 161.038 324.525C161.013 324.483 160.977 324.449 160.934 324.429Z" fill="white"/>
<path d="M163.602 326.184C159.879 325.364 155.31 325.921 152.424 328.685C152.308 328.791 152.424 328.955 152.572 328.914C156.155 327.758 159.845 327.01 163.579 326.684C163.635 326.676 163.687 326.648 163.725 326.605C163.764 326.561 163.786 326.504 163.789 326.444C163.792 326.384 163.775 326.325 163.74 326.278C163.706 326.23 163.657 326.197 163.602 326.184Z" fill="white"/>
<path d="M166.262 327.947C162.547 327.127 157.978 327.676 155.085 330.407C154.976 330.513 155.085 330.677 155.24 330.644C158.821 329.49 162.508 328.739 166.239 328.406C166.284 328.391 166.324 328.361 166.352 328.322C166.381 328.282 166.398 328.234 166.401 328.185C166.403 328.135 166.391 328.085 166.367 328.043C166.342 328 166.306 327.967 166.262 327.947Z" fill="white"/>
<path d="M184.135 343.084C185.136 343.51 184.865 347.077 184.135 347.348C183.406 347.619 122.081 346.331 121.081 346.069C120.08 345.806 120.483 341.862 121.701 341.674C122.919 341.485 184.135 343.084 184.135 343.084Z" fill="#80A2FC"/>
<path d="M130.823 330.25C126.782 328.028 123.509 334.67 127.558 336.892C131.607 339.115 134.872 332.473 130.823 330.25Z" fill="white"/>
<path d="M126.362 117.42C126.215 118.134 118.001 152.467 116.977 153.107C115.813 153.837 146.825 197.944 150.501 219.601C152.829 233.45 158.258 314.179 158.258 314.179H118.714C118.714 314.179 114.836 245.619 113.548 223.028C113.044 214.262 81.9395 173.738 78.9842 146.719C78.0534 138.207 83.8399 117.388 83.8399 117.388L126.362 117.42Z" fill="#455A64"/>
<path d="M117.713 281.559C117.247 270.202 116.821 258.821 116.037 247.48C115.595 241.051 114.726 234.828 114.121 228.423C114.121 228.087 113.834 228.005 113.842 228.35C114.121 239.756 115.013 251.039 115.587 262.437C116.161 273.835 116.712 276.492 117.325 287.857C117.666 294.286 117.969 300.715 118.442 307.135C118.447 307.152 118.457 307.166 118.47 307.176C118.483 307.186 118.499 307.192 118.515 307.192C118.532 307.192 118.548 307.186 118.561 307.176C118.574 307.166 118.584 307.152 118.589 307.135C118.612 295.721 118.186 292.957 117.713 281.559Z" fill="#263238"/>
<path d="M150.54 220.141C150.202 217.142 149.652 214.174 148.896 211.261C148.081 208.438 147.008 205.705 145.692 203.102C143.001 197.641 139.937 192.36 136.982 187.054C134.026 181.749 130.947 176.329 127.829 171.032C126.076 168.058 124.315 165.087 122.546 162.118C120.747 159.125 118.846 156.19 116.992 153.238C116.978 153.213 116.955 153.195 116.928 153.188C116.901 153.181 116.873 153.185 116.849 153.201C116.825 153.216 116.808 153.24 116.802 153.269C116.795 153.297 116.8 153.327 116.814 153.352C119.839 158.715 122.833 164.086 125.858 169.449C128.884 174.812 131.862 180.191 134.841 185.57C137.819 190.949 140.713 196.165 143.521 201.544C144.903 204.098 146.094 206.763 147.081 209.514C147.999 212.365 148.667 215.299 149.074 218.28C150.129 225.225 150.99 232.22 152.309 239.1C152.314 239.116 152.324 239.13 152.337 239.141C152.35 239.151 152.366 239.156 152.383 239.156C152.399 239.156 152.415 239.151 152.428 239.141C152.441 239.13 152.451 239.116 152.456 239.1C152.045 232.769 151.332 226.431 150.54 220.141Z" fill="#263238"/>
<path d="M154.775 307.011C152.517 306.7 135.29 306.068 120.877 306.724C120.784 306.724 120.792 306.872 120.877 306.88C125.57 307.315 152.106 307.512 154.751 307.184C154.821 307.175 154.852 307.028 154.775 307.011Z" fill="#263238"/>
<path d="M122.135 150.76C118.106 152.312 114.213 154.233 110.499 156.5C110.468 156.516 110.443 156.544 110.43 156.578C110.418 156.613 110.419 156.651 110.434 156.685C110.448 156.719 110.474 156.745 110.507 156.758C110.54 156.771 110.576 156.77 110.608 156.755C114.533 154.967 118.543 153.261 122.375 151.252C122.437 151.219 122.483 151.16 122.504 151.09C122.526 151.02 122.519 150.945 122.488 150.879C122.456 150.814 122.401 150.765 122.334 150.743C122.268 150.72 122.196 150.727 122.135 150.76Z" fill="#263238"/>
<path d="M123.322 122.341C123.322 122.201 123.074 122.169 123.074 122.341C123.075 126.974 122.855 131.605 122.415 136.215C122.228 138.355 120.6 150.155 117.093 149.335C116.504 149.188 116.209 148.581 116.116 147.638C116.126 146.414 116.282 145.196 116.582 144.013C116.969 141.553 117.28 139.093 117.481 136.56C117.893 131.904 117.846 127.216 117.342 122.57C117.335 122.544 117.321 122.521 117.3 122.504C117.28 122.488 117.255 122.479 117.229 122.479C117.204 122.479 117.179 122.488 117.158 122.504C117.138 122.521 117.123 122.544 117.117 122.57C117.218 129.024 116.861 135.476 116.046 141.873C115.604 144.948 114.138 149.581 117.187 150.073C120.235 150.565 122.29 142.8 122.663 140.676C123.633 134.62 123.855 128.457 123.322 122.341Z" fill="#263238"/>
<path d="M117.186 149.589C116.875 150.39 116.616 151.211 116.41 152.049C116.187 152.692 116.077 153.373 116.084 154.058C116.088 154.086 116.1 154.112 116.118 154.133C116.136 154.154 116.16 154.168 116.186 154.174C116.212 154.181 116.239 154.178 116.264 154.168C116.289 154.157 116.31 154.139 116.325 154.115C116.691 153.511 116.966 152.85 117.139 152.156C117.411 151.393 117.69 150.647 117.915 149.876C117.951 149.774 117.947 149.661 117.904 149.561C117.861 149.462 117.783 149.385 117.686 149.347C117.589 149.309 117.482 149.313 117.389 149.359C117.295 149.404 117.222 149.487 117.186 149.589Z" fill="#263238"/>
<path d="M118.838 234.048C118.466 228.21 118.489 222.052 116.139 216.64C114.891 214.002 113.454 211.469 111.842 209.063C110.239 206.472 108.656 203.867 107.095 201.248C100.889 190.777 94.9009 180.092 89.4479 169.145C86.8183 163.873 84.3982 158.428 83.0796 152.606C81.7937 146.479 81.5494 140.16 82.3582 133.943C82.5444 132.393 82.7461 130.851 82.9865 129.31C82.9873 129.289 82.9812 129.268 82.9693 129.252C82.9573 129.235 82.9403 129.223 82.921 129.218C82.9018 129.213 82.8815 129.216 82.8638 129.225C82.846 129.234 82.8318 129.25 82.8236 129.269C81.5474 135.181 81.1108 141.261 81.5282 147.309C82.1252 153.091 83.6657 158.72 86.0815 163.946C88.4861 169.449 91.3483 174.746 94.1718 180.018C97.0831 185.485 100.08 190.872 103.162 196.181C106.265 201.478 109.46 206.668 112.664 211.884C114.298 214.343 115.571 217.05 116.441 219.911C117.147 222.897 117.552 225.954 117.651 229.03C118.427 241.937 121.53 284.847 122.631 297.688C122.763 299.328 122.903 300.968 123.05 302.608C123.046 302.625 123.045 302.643 123.048 302.661C123.051 302.678 123.058 302.694 123.069 302.708C123.079 302.722 123.092 302.734 123.107 302.742C123.122 302.75 123.138 302.754 123.155 302.754C123.172 302.754 123.188 302.75 123.203 302.742C123.218 302.734 123.231 302.722 123.241 302.708C123.251 302.694 123.258 302.678 123.261 302.661C123.265 302.643 123.264 302.625 123.26 302.608C122.794 289.718 119.637 246.914 118.838 234.048Z" fill="#263238"/>
<path d="M99.8568 128.736C99.8568 128.646 99.7172 128.678 99.7172 128.736C99.6008 132.319 99.7172 136.026 98.3908 139.396C97.1962 142.504 94.7916 144.685 92.1 146.317C90.5347 147.245 88.9214 148.08 87.2676 148.817C87.1512 148.875 87.1978 149.072 87.3296 149.031C90.4323 147.981 93.6359 146.841 96.2344 144.644C99.0113 142.282 100.229 138.863 100.361 135.173C100.409 133.014 100.24 130.857 99.8568 128.736Z" fill="#263238"/>
<path d="M117.069 70.329C121.506 84.7282 133.49 109.254 137.771 112.215C141.565 114.83 159.413 111.911 167.247 109.919C170.164 109.172 163.601 85.6712 160.491 86.5322C156.76 87.5654 145.645 90.2141 144.838 89.5581C144.031 88.9021 132.823 74.306 124.88 65.7124C117.65 57.9306 115.393 64.8842 117.069 70.329Z" fill="#D3766A"/>
<path d="M165.533 110.098C167.03 109.901 179.696 109.278 185.506 105.94C188.609 104.161 196.529 98.2733 195.737 96.1577C195.016 94.2307 192.472 95.2803 192.472 95.2803C192.472 95.2803 195.97 92.5989 194.946 89.9257C193.922 87.2525 189.695 89.2615 189.695 89.2615C189.695 89.2615 193.1 86.2275 191.898 83.6445C190.695 81.0615 186.771 83.8249 186.771 83.8249C186.771 83.8249 190.005 81.2091 188.167 79.5199C185.948 77.4863 180.495 83.0295 176.811 84.3251C175.973 84.6203 159.467 89.0319 159.467 89.0319L165.533 110.098Z" fill="#D3766A"/>
<path d="M186.632 83.7516C182.614 87.8106 180.187 88.852 174.819 90C174.718 90 174.726 90.1968 174.819 90.1804C180.171 89.5654 183.39 88.7208 186.811 83.9484C186.997 83.7106 186.819 83.5548 186.632 83.7516Z" fill="#263238"/>
<path d="M189.565 89.1627C185.042 93.0003 182.421 94.1483 176.882 95.7883C176.805 95.7883 176.836 95.9605 176.921 95.9441C182.475 94.8125 185.671 93.8941 189.712 89.4333C189.898 89.2365 189.774 88.9905 189.565 89.1627Z" fill="#263238"/>
<path d="M192.203 95.3457C187.549 98.7241 184.748 100.126 179.179 100.987C179.152 100.987 179.127 100.999 179.108 101.019C179.089 101.039 179.078 101.066 179.078 101.094C179.078 101.122 179.089 101.149 179.108 101.169C179.127 101.189 179.152 101.201 179.179 101.201C184.942 100.905 188.487 99.1915 192.265 95.5097C192.544 95.2801 192.49 95.1407 192.203 95.3457Z" fill="#263238"/>
<path d="M155.139 89.7855C155.139 89.7855 159.754 84.2669 162.283 82.3153C164.811 80.3637 176.788 76.7557 177.672 79.4453C178.812 82.9221 172.289 86.4399 168.884 87.7191C168.884 87.7191 171.529 95.7551 167.332 99.3467C163.136 102.938 155.139 89.7855 155.139 89.7855Z" fill="#D3766A"/>
<path d="M177.697 80.5195C176.572 84.4801 171.995 85.8577 168.776 87.3583C168.729 87.3801 168.687 87.4132 168.653 87.4552C168.62 87.4972 168.596 87.5468 168.584 87.6002C168.572 87.6535 168.572 87.7091 168.584 87.7625C168.596 87.8159 168.619 87.8656 168.652 87.9077C169.552 91.3517 169.862 96.4849 167.582 99.3877C167.52 99.4697 167.621 99.5845 167.698 99.5107C170.545 96.7555 170.622 91.6797 169.412 87.9733C172.74 86.4891 177.27 84.8901 177.728 80.5359C177.735 80.5195 177.704 80.5195 177.697 80.5195Z" fill="#263238"/>
<path d="M165.527 114.14L159.678 85.9816L145.204 88.7614C139.495 81.8488 128.085 68.0318 123.485 63.8826C118.055 59.0118 114.503 62.669 116.504 70.049C121.026 86.9164 134.251 111.68 137.711 114.017C142.73 117.42 165.527 114.14 165.527 114.14Z" fill="#80A2FC"/>
<path opacity="0.1" d="M144.862 97.3303C145.579 97.495 146.309 97.5856 147.042 97.6009C148.593 97.8223 149.276 100.241 147.864 101.16C147.123 101.642 146.285 101.935 145.417 102.013C144.55 102.091 143.677 101.954 142.869 101.611C141.318 100.971 140.007 99.3803 140.34 97.5107C140.398 97.1622 140.54 96.8354 140.753 96.5621C140.965 96.2888 141.241 96.0784 141.554 95.9513C141.866 95.8242 142.204 95.7847 142.535 95.8366C142.866 95.8886 143.179 96.0303 143.443 96.2479C143.873 96.6683 144.349 97.0317 144.862 97.3303ZM140.86 90.6309C140.301 93.4189 144.381 95.8133 146.468 94.3291C146.636 94.1944 146.774 94.0214 146.87 93.823C146.966 93.6245 147.019 93.4056 147.024 93.1826C147.029 92.9597 146.987 92.7383 146.9 92.535C146.813 92.3318 146.684 92.1518 146.522 92.0085C145.91 91.4837 145.398 91.4017 144.855 90.9261C144.665 90.7694 144.498 90.5843 144.358 90.3767C144.051 89.9284 143.657 89.5539 143.202 89.2779C142.966 89.1712 142.71 89.1225 142.453 89.1356C142.197 89.1486 141.946 89.2231 141.721 89.3534C141.495 89.4836 141.3 89.6663 141.151 89.8876C141.002 90.1088 140.903 90.363 140.86 90.6309ZM134.352 90.7785C133.514 91.9347 134.143 93.6731 134.879 94.7227C135.211 95.2454 135.668 95.6658 136.204 95.9409C136.739 96.2161 137.334 96.3362 137.928 96.2889C138.144 96.2567 138.347 96.1591 138.512 96.0077C138.677 95.8563 138.797 95.6577 138.858 95.4358C138.919 95.2139 138.917 94.9782 138.854 94.7571C138.791 94.536 138.669 94.339 138.502 94.1897C138.035 93.8147 137.663 93.3249 137.416 92.7629C137.051 91.8937 136.811 90.7703 135.865 90.3931C135.606 90.2807 135.321 90.2575 135.049 90.3267C134.778 90.3959 134.534 90.554 134.352 90.7785ZM151.533 109.015C150.439 111.352 153.767 114.009 155.784 113.55C156.459 113.394 157.11 112.459 156.513 111.787C156.032 111.246 155.458 110.819 155.008 110.245C154.457 109.548 154.155 108.655 153.294 108.302C152.97 108.159 152.606 108.153 152.278 108.286C151.95 108.418 151.684 108.68 151.533 109.015ZM120.289 80.3563C120.098 79.9724 119.834 79.6345 119.513 79.3641C119.948 80.5394 120.405 81.7175 120.886 82.8983C120.912 82.009 120.705 81.1295 120.289 80.3563ZM124.609 77.8963C124.458 75.8707 123.709 73.9464 122.469 72.3941C121.538 71.1231 119.924 69.1141 118.218 69.5487C118.037 69.6086 117.878 69.7287 117.766 69.8912C117.655 70.0536 117.595 70.2498 117.597 70.4507C117.489 71.8365 118.994 73.3207 119.645 74.4277C120.421 75.8217 121.034 77.3633 121.871 78.7491C122.046 79.034 122.304 79.2514 122.606 79.3688C122.907 79.4862 123.237 79.4972 123.545 79.4004C123.853 79.3035 124.123 79.1039 124.315 78.8313C124.507 78.5588 124.61 78.2279 124.609 77.8881V77.8963ZM124.105 86.7113C124.408 86.6948 124.699 86.5759 124.933 86.3723C125.168 86.1686 125.334 85.8908 125.408 85.5797C125.529 84.9431 125.489 84.2841 125.292 83.6691C125.176 83.0834 124.907 82.5437 124.516 82.1111C124.376 81.9741 124.205 81.878 124.019 81.832C123.834 81.7861 123.64 81.7919 123.457 81.8489C123.274 81.906 123.108 82.0122 122.976 82.1574C122.843 82.3025 122.749 82.4816 122.701 82.6769C122.639 83.1557 122.639 83.6413 122.701 84.1201C122.701 84.3251 122.701 84.5301 122.701 84.7433C122.697 85.0523 122.729 85.3606 122.794 85.6617C122.878 85.9613 123.05 86.2244 123.287 86.412C123.523 86.5996 123.81 86.7017 124.105 86.7031V86.7113Z" fill="#030402"/>
<path d="M160.462 111.681C159.795 110.041 158.135 102.759 157.77 100.947C157.405 99.1346 156.056 91.8038 155.66 89.9424C155.66 89.8358 155.769 89.7784 155.792 89.8768C156.211 91.7136 158.08 98.946 158.491 100.75C158.902 102.554 160.446 109.827 160.555 111.656C160.556 111.663 160.557 111.669 160.556 111.676C160.555 111.682 160.553 111.689 160.549 111.694C160.543 111.706 160.532 111.714 160.52 111.718C160.507 111.721 160.494 111.719 160.483 111.712C160.473 111.705 160.465 111.694 160.462 111.681Z" fill="#263238"/>
<path opacity="0.1" d="M147.018 115.55C142.945 115.55 139.37 115.14 137.71 114.017C134.227 111.639 121.002 86.9571 116.448 70.0569C115.3 65.8257 115.991 62.8081 117.806 61.9307L147.018 115.55Z" fill="black"/>
<path d="M81.3809 121.282C81.4818 121.438 129.884 127.998 130.404 127.522C130.677 126.098 130.872 124.658 130.985 123.209C130.985 123.209 126.549 67.4982 124.253 64.2264C122.244 61.3728 116.147 59.3064 111.997 61.1678C103.286 65.071 82.4281 114.845 82.653 116.928C82.6375 116.903 81.2568 121.085 81.3809 121.282Z" fill="#80A2FC"/>
<path opacity="0.1" d="M98.8332 114.5C99.5797 114.884 100.359 115.191 101.16 115.419C102.774 116.099 102.921 118.945 101.16 119.519C100.224 119.833 99.2317 119.911 98.262 119.747C97.2923 119.583 96.3723 119.182 95.5754 118.576C94.024 117.428 93.0234 115.296 93.8611 113.393C94.0148 113.031 94.2541 112.717 94.5559 112.481C94.8577 112.245 95.2118 112.095 95.5842 112.046C95.9566 111.997 96.3348 112.049 96.6824 112.199C97.03 112.349 97.3353 112.591 97.5688 112.901C98.0032 113.434 98.267 114.14 98.8332 114.5ZM96.1804 106.03C94.854 108.924 98.6936 112.705 101.354 111.68C101.577 111.585 101.776 111.438 101.936 111.248C102.096 111.059 102.212 110.833 102.275 110.588C102.338 110.343 102.347 110.087 102.3 109.838C102.253 109.589 102.152 109.355 102.006 109.154C101.478 108.408 100.935 108.17 100.454 107.514C100.288 107.287 100.155 107.036 100.059 106.768C99.8294 106.195 99.4946 105.677 99.0737 105.243C98.1506 104.3 96.6691 104.964 96.1804 106.03ZM91.697 102.947C90.2465 103.521 89.8741 105.587 89.9827 107.047C90.0051 107.756 90.2049 108.446 90.562 109.046C90.919 109.647 91.4204 110.137 92.015 110.466C92.2394 110.572 92.4881 110.607 92.7309 110.567C92.9737 110.526 93.2003 110.413 93.3832 110.239C93.5662 110.066 93.6977 109.84 93.7619 109.589C93.826 109.338 93.8201 109.073 93.7448 108.826C93.4985 108.17 93.4131 107.459 93.4965 106.76C93.6284 105.71 94.024 104.48 93.3647 103.537C93.1812 103.265 92.921 103.062 92.6215 102.956C92.3219 102.85 91.9983 102.846 91.697 102.947ZM107.598 112.705C107.231 112.671 106.866 112.788 106.577 113.03C106.289 113.273 106.099 113.623 106.047 114.008C106.007 114.423 106.106 114.839 106.325 115.185C106.545 115.53 106.872 115.784 107.249 115.903C107.778 116.087 108.349 116.087 108.878 115.903C109.149 115.789 109.372 115.577 109.506 115.304C109.662 115.04 109.725 114.727 109.685 114.418C109.642 114.131 109.517 113.864 109.328 113.653C109.138 113.442 108.892 113.297 108.622 113.238C108.573 113.169 108.516 113.109 108.452 113.057C108.205 112.855 107.909 112.732 107.598 112.705ZM95.7072 92.9179C94.4041 94.3283 94.9316 97.5346 96.4208 98.617C96.6126 98.7711 96.8391 98.8694 97.078 98.9023C97.3168 98.9352 97.5596 98.9015 97.7824 98.8045C98.0051 98.7076 98.1999 98.5507 98.3475 98.3495C98.4951 98.1482 98.5903 97.9097 98.6238 97.6575C98.6467 97.3327 98.6467 97.0066 98.6238 96.6818C98.6238 96.3292 98.5772 96.1078 98.6238 95.8618C98.7398 95.1606 98.7633 94.4459 98.6936 93.7379C98.6333 93.4022 98.484 93.0914 98.2632 92.8419C98.0423 92.5923 97.7589 92.4142 97.446 92.3283C97.1331 92.2423 96.8036 92.2522 96.4957 92.3566C96.1879 92.4609 95.9145 92.6556 95.7072 92.9179ZM87.2911 113.32C85.4993 115.566 88.4547 119.42 90.7739 119.494C91.5496 119.494 92.5037 118.674 92.0228 117.772C91.6349 117.051 91.1152 116.411 90.7739 115.665C90.3551 114.746 90.2542 113.672 89.401 113.049C89.0828 112.802 88.6874 112.692 88.2953 112.742C87.9033 112.793 87.5442 112.999 87.2911 113.32ZM130.085 112.606C129.793 112.652 129.521 112.789 129.303 113C129.084 113.21 128.93 113.484 128.86 113.787C128.611 114.697 128.58 115.509 127.937 116.247C127.24 116.826 126.614 117.496 126.075 118.24C125.985 118.425 125.942 118.633 125.951 118.841C125.959 119.049 126.019 119.252 126.123 119.429C126.228 119.606 126.374 119.751 126.548 119.85C126.722 119.949 126.917 119.999 127.114 119.994C128.469 119.818 129.709 119.103 130.582 117.994C130.426 116.436 130.271 114.607 130.093 112.573L130.085 112.606ZM126.207 105.841C125.772 106.956 125.85 108.219 125.485 109.384C125.165 110.451 124.785 111.497 124.345 112.516C124.019 113.254 124.671 114.418 125.516 114.025C126.891 113.467 128.016 112.38 128.666 110.983C129.255 109.695 129.907 107.53 129.341 106.161C128.774 104.792 126.851 104.193 126.191 105.808L126.207 105.841ZM121.785 117.018C121.141 117.898 120.316 118.613 119.373 119.109C119.148 119.182 118.941 119.306 118.765 119.471C118.589 119.636 118.448 119.838 118.351 120.065C118.255 120.292 118.205 120.538 118.205 120.787C118.205 121.035 118.256 121.281 118.353 121.508C118.45 121.734 118.591 121.937 118.768 122.101C118.944 122.266 119.152 122.388 119.376 122.462C119.601 122.535 119.838 122.557 120.072 122.526C120.305 122.495 120.53 122.412 120.731 122.282C121.533 121.918 122.25 121.373 122.832 120.685C123.414 119.996 123.846 119.181 124.097 118.297C124.462 116.878 122.646 115.952 121.77 116.985L121.785 117.018ZM114.696 76.8377C115.129 76.9347 115.581 76.8505 115.957 76.6029C116.333 76.3552 116.604 75.9633 116.713 75.5094C117.147 73.7464 115.658 71.9342 114.479 70.8354C113.3 69.7366 111.64 68.7362 109.987 69.302C109.767 69.3773 109.569 69.5108 109.412 69.6898C109.254 69.8688 109.143 70.0873 109.088 70.3247C109.033 70.5621 109.036 70.8104 109.097 71.0461C109.158 71.2819 109.275 71.4972 109.437 71.6718C110.158 72.623 111.159 73.3118 111.927 74.2466C112.695 75.1814 113.331 76.5672 114.68 76.805L114.696 76.8377ZM120.645 83.7996C121.297 82.8074 120.793 81.3396 120.327 80.3966C120.079 79.8764 119.694 79.4434 119.218 79.1502C118.898 78.9334 118.509 78.8592 118.137 78.9437C117.765 79.0282 117.44 79.2644 117.232 79.6012C117.021 80.0674 116.987 80.602 117.139 81.0935C117.204 81.3507 117.292 81.6007 117.403 81.8398V81.9135V81.9792C117.542 82.7622 117.855 83.4988 118.318 84.1275C118.478 84.2981 118.674 84.4271 118.889 84.5046C119.104 84.582 119.333 84.6058 119.559 84.574C119.784 84.5423 119.999 84.4558 120.188 84.3215C120.376 84.1871 120.533 84.0085 120.645 83.7996ZM124.648 77.9283C124.496 75.9028 123.747 73.9785 122.507 72.4262C121.576 71.1552 119.963 69.1462 118.256 69.5808C118.075 69.6407 117.916 69.7607 117.805 69.9232C117.693 70.0857 117.634 70.2819 117.636 70.4828C117.527 71.8686 119.032 73.3528 119.683 74.4598C120.459 75.8538 121.072 77.3954 121.91 78.7812C122.092 79.0504 122.35 79.2518 122.648 79.3568C122.945 79.4618 123.266 79.465 123.565 79.366C123.864 79.267 124.126 79.0708 124.313 78.8053C124.501 78.5398 124.604 78.2186 124.609 77.8873L124.648 77.9283ZM118.791 91.9668C119.075 92.0323 119.369 92.0323 119.652 91.9668C120.082 91.8268 120.446 91.5189 120.668 91.1058C120.877 90.6659 120.981 90.179 120.971 89.6871C120.957 89.2212 120.837 88.7656 120.622 88.3588L120.366 88.0225L120.025 87.7602C119.811 87.6437 119.576 87.5797 119.335 87.5728C119.095 87.566 118.857 87.6164 118.638 87.7204C118.419 87.8244 118.224 87.9793 118.07 88.1736C117.915 88.3679 117.804 88.5965 117.744 88.8425C117.615 89.3202 117.524 89.8084 117.473 90.3021L117.542 90.7531C117.597 90.9794 117.703 91.188 117.853 91.36C118.087 91.6462 118.403 91.8447 118.753 91.9258L118.791 91.9668ZM124.143 86.7434C124.447 86.7268 124.737 86.608 124.971 86.4043C125.206 86.2006 125.372 85.9229 125.447 85.6118C125.567 84.9751 125.527 84.3162 125.33 83.7012C125.214 83.1155 124.946 82.5758 124.555 82.1431C124.415 82.0062 124.243 81.91 124.058 81.8641C123.872 81.8181 123.678 81.8239 123.495 81.881C123.312 81.938 123.146 82.0443 123.014 82.1894C122.881 82.3346 122.787 82.5136 122.74 82.709C122.677 83.1878 122.677 83.6733 122.74 84.1521C122.74 84.3571 122.74 84.5622 122.74 84.7754C122.736 85.0843 122.767 85.3927 122.833 85.6938C122.919 85.9806 123.089 86.2318 123.316 86.4126C123.544 86.5933 123.82 86.6946 124.105 86.7023L124.143 86.7434Z" fill="#030402"/>
<path d="M121.422 72.96C118.467 72.673 114.682 65.9982 113.96 61.7588C113.914 61.4636 115.093 58.9954 116.388 55.9286C117.164 54.0672 118.002 51.968 118.622 50L129.357 57.1422C127.909 59.37 126.724 61.7769 125.828 64.309C125.748 64.5763 125.691 64.8508 125.658 65.129C125.66 65.1754 125.66 65.222 125.658 65.2684C125.386 66.9084 124.285 73.2388 121.422 72.96Z" fill="#D3766A"/>
<path d="M125.655 65.145C125.658 65.1914 125.658 65.238 125.655 65.2844C125.242 65.1988 124.835 65.081 124.438 64.9318C117.72 62.3734 118.907 53.0582 119.38 50.4834L122.056 52.271L129.386 57.191C127.938 59.4179 126.756 61.825 125.865 64.3578C125.772 64.6129 125.702 64.8764 125.655 65.145Z" fill="#263238"/>
<path d="M119.746 36.8552C117.527 41.0782 117.139 54.641 119.598 58.2408C123.151 63.456 130.287 65.4896 134.809 60.7008C139.192 56.0104 139.393 38.323 136.539 34.9118C132.319 29.8442 123.019 30.615 119.746 36.8552Z" fill="#D3766A"/>
<path d="M130.047 47.8184C130.047 47.8184 129.977 47.8184 129.977 47.9004C129.977 48.8352 129.822 49.9012 129.016 50.18V50.2374C130.001 50.1226 130.187 48.704 130.047 47.8184Z" fill="#263238"/>
<path d="M129.294 46.818C127.874 46.654 127.665 49.6552 128.976 49.811C130.287 49.9668 130.481 46.9574 129.294 46.818Z" fill="#263238"/>
<path d="M135.136 48.1387C135.136 48.1387 135.198 48.1879 135.198 48.2289C135.097 49.1555 135.136 50.2379 135.904 50.6069C135.904 50.6069 135.904 50.6725 135.904 50.6643C134.934 50.4347 134.903 48.9997 135.136 48.1387Z" fill="#263238"/>
<path d="M135.996 47.2363C137.415 47.2363 137.299 50.2457 135.996 50.2457C134.693 50.2457 134.801 47.2281 135.996 47.2363Z" fill="#263238"/>
<path d="M130.442 46.2112C130.047 46.3014 129.667 46.3096 129.279 46.3588C128.877 46.4699 128.452 46.4382 128.069 46.2686C127.957 46.1909 127.873 46.0764 127.83 45.9429C127.786 45.8094 127.786 45.6645 127.828 45.5306C127.956 45.2861 128.142 45.0814 128.368 44.9374C128.594 44.7934 128.852 44.7152 129.116 44.7106C129.652 44.6017 130.207 44.7132 130.667 45.0222C130.763 45.0984 130.837 45.2016 130.88 45.3201C130.922 45.4385 130.932 45.5673 130.909 45.6916C130.885 45.8159 130.829 45.9306 130.747 46.0225C130.664 46.1145 130.559 46.1799 130.442 46.2112Z" fill="#263238"/>
<path d="M137.268 44.4405C136.892 44.3288 136.521 44.1946 136.159 44.0387C135.751 43.9574 135.38 43.7353 135.104 43.4073C135.035 43.2871 135.006 43.146 135.022 43.0064C135.037 42.8668 135.096 42.7366 135.19 42.6365C135.401 42.4653 135.653 42.3581 135.918 42.3263C136.183 42.2946 136.452 42.3394 136.694 42.4561C137.218 42.6077 137.671 42.958 137.966 43.4401C138.028 43.5545 138.056 43.6852 138.049 43.8165C138.042 43.9478 137.998 44.0739 137.924 44.1798C137.851 44.2856 137.749 44.3665 137.633 44.4128C137.516 44.4591 137.39 44.4687 137.268 44.4405Z" fill="#263238"/>
<path d="M129.403 55.2154C130.545 54.9263 131.736 54.9263 132.878 55.2154C132.979 55.2154 133.08 55.0022 133.103 54.9038L133.165 52.9358C133.406 53.0834 134.616 53.7558 134.616 53.395C134.742 50.1964 134.558 46.9926 134.065 43.8338C134.06 43.8155 134.049 43.7994 134.034 43.788C134.02 43.7767 134.002 43.7705 133.984 43.7705C133.965 43.7705 133.948 43.7767 133.933 43.788C133.918 43.7994 133.908 43.8155 133.902 43.8338C133.778 46.794 134.135 49.746 134.05 52.7226C133.621 52.4719 133.162 52.2869 132.684 52.1732C132.584 52.1732 132.684 54.2642 132.684 54.5758C131.617 54.187 130.448 54.2547 129.427 54.7644C129.023 55.035 128.86 55.3958 129.403 55.2154Z" fill="#263238"/>
<path d="M127.107 57.167C127.301 57.3966 127.494 57.7082 127.805 57.7574C128.131 57.7738 128.456 57.7151 128.759 57.5852C128.759 57.5852 128.813 57.5852 128.759 57.6344C128.625 57.8084 128.449 57.9403 128.249 58.0155C128.049 58.0907 127.834 58.1063 127.626 58.0608C127.457 58.0034 127.307 57.8956 127.194 57.7501C127.081 57.6046 127.01 57.4277 126.99 57.2408C127.006 57.1506 127.076 57.1342 127.107 57.167Z" fill="#263238"/>
<path opacity="0.2" d="M123.493 32.5498C123.377 34.6572 122.904 41.1926 121.942 42.521C120.98 43.8494 118.948 46.9408 117.916 47.441C118.056 43.0868 118.692 38.9458 119.754 36.781C120.626 35.0465 121.916 33.5867 123.493 32.5498Z" fill="#263238"/>
<path d="M134.546 38.9387C134.004 39.5223 133.329 39.9494 132.587 40.179C131.844 40.4087 131.058 40.4334 130.303 40.2507C129.531 40.0691 128.817 39.6802 128.228 39.1214C127.64 38.5627 127.198 37.853 126.945 37.0609C126.945 37.0117 126.859 37.0609 126.875 37.0609C127.072 37.9161 127.487 38.6978 128.075 39.3209C128.663 39.944 129.402 40.3847 130.21 40.5951C131.017 40.758 131.851 40.692 132.626 40.404C133.401 40.1159 134.091 39.616 134.624 38.9551C134.67 38.9633 134.608 38.8895 134.546 38.9387Z" fill="#263238"/>
<path d="M130.652 26.7857C129.46 26.7005 128.267 26.9337 127.183 27.4639C126.098 27.9941 125.158 28.8043 124.447 29.8197C123.842 30.8532 123.585 32.0727 123.718 33.2801H123.819C123.833 32.2207 124.119 31.1851 124.644 30.283C125.17 29.3808 125.917 28.6456 126.805 28.1551C127.776 27.5804 128.86 27.251 129.971 27.1927C131.083 27.1344 132.192 27.3487 133.212 27.8189C134.216 28.2563 135.04 29.0552 135.539 30.0739C135.586 30.1805 135.787 30.1313 135.749 30.0247C135.113 28.2371 133.057 26.9087 130.652 26.7857Z" fill="#263238"/>
<path d="M145.466 33.9355C145.129 32.5473 144.337 31.3301 143.232 30.4997C141.681 29.3271 139.866 29.3435 138.051 29.4091C137.996 29.4091 138.004 29.4911 138.051 29.4829C139.594 29.3126 141.151 29.6173 142.534 30.3603C143.66 31.0746 144.518 32.1783 144.962 33.4845C145.385 34.8242 145.336 36.2802 144.824 37.5849C144.313 38.8895 143.373 39.9551 142.177 40.5857C141.482 40.9314 140.726 41.1228 139.958 41.1482C139.189 41.1736 138.424 41.0324 137.709 40.7333C137.655 40.7333 137.609 40.7907 137.663 40.8235C138.63 41.2751 139.697 41.4319 140.745 41.276C141.792 41.1202 142.777 40.6579 143.588 39.9415C144.4 39.2251 145.006 38.283 145.338 37.2217C145.669 36.1604 145.714 35.0222 145.466 33.9355Z" fill="#263238"/>
<path d="M118.97 39.5196C118.97 39.5196 116.829 34.3618 119.117 31.6558C120.413 30.1306 124.306 30.6554 124.306 30.6554C125.47 29.0944 127.172 28.0857 129.038 27.8509C132.366 27.3015 136.159 29.6796 136.159 29.6796C136.159 29.6796 139.401 28.0396 142.186 30.0322C146.064 32.812 145.095 39.3146 140.859 41.0858C137.881 42.3404 134.173 39.3392 134.173 39.3392C133.801 39.3392 129.783 41.504 127.138 37.65C127.138 37.65 124.625 39.6753 122.616 37.9533C122.233 38.5785 121.679 39.0642 121.026 39.3444C120.374 39.6247 119.656 39.6858 118.97 39.5196Z" fill="#263238"/>
<path d="M120.234 48.0891C120.234 48.0891 118.202 43.2757 116.193 43.9891C114.184 44.7025 115.162 51.2461 117.147 52.5253C117.389 52.7032 117.663 52.828 117.951 52.8922C118.24 52.9564 118.537 52.9587 118.827 52.8991C119.116 52.8394 119.391 52.719 119.635 52.545C119.88 52.3709 120.089 52.1467 120.25 51.8857L120.234 48.0891Z" fill="#D3766A"/>
<path d="M116.52 45.8418V45.8992C117.9 46.8422 118.42 48.474 118.691 50.1058C118.633 49.93 118.539 49.7696 118.417 49.6359C118.294 49.5021 118.145 49.3981 117.981 49.331C117.816 49.264 117.64 49.2355 117.464 49.2475C117.288 49.2595 117.117 49.3117 116.962 49.4006C116.915 49.4006 116.962 49.4908 116.962 49.4908C117.244 49.4563 117.53 49.517 117.778 49.6642C118.026 49.8115 118.223 50.0378 118.342 50.3108C118.553 50.7543 118.714 51.2221 118.823 51.7048C118.823 51.8606 119.118 51.836 119.103 51.7048C119.498 49.5892 118.529 46.465 116.52 45.8418Z" fill="#263238"/>
<path d="M227.75 57.6431L144.238 84.6846L159.295 136.651L242.807 109.61L227.75 57.6431Z" fill="#80A2FC"/>
<path opacity="0.2" d="M227.75 57.6431L144.238 84.6846L159.295 136.651L242.807 109.61L227.75 57.6431Z" fill="black"/>
<path opacity="0.2" d="M227.746 57.643L199.682 66.7305L214.739 118.697L242.803 109.609L227.746 57.643Z" fill="black"/>
<path d="M226.402 60.29C225.455 64.893 224.535 69.4959 223.64 74.0988L220.995 87.9404L218.436 101.839C217.598 106.464 216.781 111.097 215.984 115.738C216.931 111.141 217.851 106.538 218.746 101.93L221.391 88.088L223.951 74.2218C224.788 69.5752 225.605 64.9312 226.402 60.29Z" fill="#80A2FC"/>
<path d="M240.186 107.867C237.083 104.499 233.952 101.145 230.793 97.8053L221.329 87.8341L211.804 77.9367C208.619 74.6567 205.418 71.3767 202.201 68.0967C205.304 71.4696 208.435 74.8234 211.595 78.1581L221.058 88.1293L230.583 98.0267C233.774 101.339 236.975 104.619 240.186 107.867Z" fill="#80A2FC"/>
<path d="M160.278 91.3803L160.738 91.2314L158.76 84.4024L158.3 84.5513L160.278 91.3803Z" fill="#263238"/>
<path d="M159.185 91.727L159.645 91.5781L157.666 84.7491L157.206 84.898L159.185 91.727Z" fill="#263238"/>
<path d="M158.083 92.1001L158.543 91.9512L156.564 85.1221L156.104 85.271L158.083 92.1001Z" fill="#263238"/>
<path d="M156.991 92.434L157.451 92.2852L155.474 85.4558L155.014 85.6046L156.991 92.434Z" fill="#263238"/>
<path d="M155.892 92.7954L156.352 92.6465L154.373 85.8175L153.913 85.9664L155.892 92.7954Z" fill="#263238"/>
<path d="M154.796 93.1421L155.256 92.9932L153.277 86.1641L152.817 86.313L154.796 93.1421Z" fill="#263238"/>
<path d="M153.689 93.5249L154.148 93.376L152.17 86.5469L151.71 86.6958L153.689 93.5249Z" fill="#263238"/>
<path d="M152.593 93.8697L153.053 93.7207L151.073 86.892L150.613 87.041L152.593 93.8697Z" fill="#263238"/>
<path d="M151.487 94.2378L151.947 94.0889L149.969 87.2598L149.509 87.4087L151.487 94.2378Z" fill="#263238"/>
<path d="M163.408 83.463L161.5 83.5122L165.634 82.1592L164.021 83.258L164.75 85.7672C166.061 85.5294 166.945 86.6856 167.612 88.9816L163.478 90.3592C162.811 88.0714 162.927 86.5872 164.137 86.005L163.408 83.463Z" fill="#263238"/>
<path d="M167.566 85.2102L168.645 84.8576L167.675 81.512L170.436 80.6182L171.406 83.9638L172.492 83.6112L171.034 87.8916L167.566 85.2102Z" fill="#263238"/>
<path opacity="0.1" d="M144.242 84.6861L145.476 88.9501L203.201 78.8805L199.68 66.7363L144.242 84.6861Z" fill="black"/>
<path d="M253.627 115.501L225.555 124.587L214.734 118.699L242.806 109.605L253.627 115.501Z" fill="#80A2FC"/>
<path opacity="0.2" d="M253.627 115.501L225.555 124.587L214.734 118.699L242.806 109.605L253.627 115.501Z" fill="black"/>
<path d="M153.449 147.94L181.521 138.847L187.362 127.563L159.29 136.649L153.449 147.94Z" fill="#80A2FC"/>
<path opacity="0.1" d="M153.449 147.94L181.521 138.847L187.362 127.563L159.29 136.649L153.449 147.94Z" fill="black"/>
<path d="M107.249 76.6655C111.353 91.1713 122.763 116.025 126.998 119.059C130.729 121.774 148.639 119.305 156.474 117.51C159.406 116.845 153.371 93.1803 150.268 93.9593C146.514 94.9023 135.337 97.2393 134.545 96.5915C133.754 95.9437 122.91 81.0115 115.153 72.2539C108.11 64.2835 105.698 71.1797 107.249 76.6655Z" fill="#D3766A"/>
<path d="M148.656 95.8867C148.656 95.8867 154.59 88.8183 158.794 86.1205C163.232 83.4352 168.221 81.9297 173.331 81.7335C178.846 81.5039 192.335 84.9643 192.063 89.2447C191.823 93.1233 178.209 88.8429 178.209 88.8429C178.209 88.8429 192.769 90.7863 191.667 95.4029C190.566 100.019 175.029 94.0909 175.029 94.0909C175.029 94.0909 189.945 96.4361 188.13 101.02C186.734 104.472 172.376 99.9457 172.376 99.9457C172.376 99.9457 185.191 102.061 183.895 105.686C182.468 109.679 168.963 106.383 168.963 106.383C164.224 114.976 158.631 117.043 154.497 117.969C153.465 118.158 148.656 95.8867 148.656 95.8867Z" fill="#D3766A"/>
<path d="M173.214 87.8262C174.928 87.9902 176.673 88.146 178.372 88.4658C180.071 88.7856 181.754 89.1792 183.421 89.6712C185.606 90.2648 187.719 91.1204 189.72 92.2214C186.035 90.5404 179.97 89.2776 178.271 88.9414C176.572 88.6052 174.889 88.2034 173.198 87.8836C173.151 87.9 173.167 87.8262 173.214 87.8262Z" fill="#263238"/>
<path d="M171.996 94.2967C174.175 94.6001 176.363 94.8215 178.535 95.2315C180.706 95.6415 182.715 96.2319 184.849 96.7977C185.011 96.8387 184.934 96.9207 184.771 96.8797C182.615 96.4041 180.598 96.1417 178.441 95.6989C176.285 95.2561 174.144 94.7149 171.98 94.3459C171.949 94.3459 171.957 94.2885 171.996 94.2967Z" fill="#263238"/>
<path d="M170.001 99.643C173.364 100.029 176.681 100.782 179.898 101.89C180.061 101.939 179.953 102.029 179.782 101.988C176.509 101.168 173.941 100.512 169.993 99.766C169.931 99.7578 169.931 99.6348 170.001 99.643Z" fill="#263238"/>
<path d="M154.697 121.709L149.484 93.4023L134.956 95.8131C129.402 88.7611 118.31 74.6571 113.78 70.3931C108.467 65.3829 104.829 68.9581 106.651 76.3791C110.825 93.3449 123.484 118.404 126.912 120.864C131.83 124.39 154.697 121.709 154.697 121.709Z" fill="#80A2FC"/>
<path opacity="0.1" d="M144.862 97.3301C145.578 97.4948 146.308 97.5854 147.042 97.6007C148.593 97.8221 149.275 100.241 147.864 101.16C147.122 101.642 146.284 101.935 145.417 102.013C144.549 102.091 143.676 101.953 142.868 101.611C141.317 100.971 140.006 99.3801 140.34 97.5105C140.397 97.162 140.54 96.8352 140.752 96.5619C140.965 96.2887 141.241 96.0782 141.553 95.9511C141.865 95.824 142.204 95.7845 142.535 95.8365C142.866 95.8884 143.178 96.0301 143.442 96.2477C143.872 96.6681 144.349 97.0316 144.862 97.3301ZM143.311 94.4273C143.797 94.6753 144.333 94.7959 144.873 94.7787C145.413 94.7616 145.941 94.6073 146.413 94.3289C146.587 94.2062 146.726 94.0363 146.817 93.8369L143.311 94.4273ZM135.763 95.6737C136.381 96.1506 137.143 96.3697 137.904 96.2887C138.166 96.2507 138.408 96.1166 138.586 95.9099C138.765 95.7031 138.869 95.4368 138.881 95.1571L135.763 95.6737ZM152.208 108.31C151.901 108.446 151.652 108.697 151.509 109.015C150.858 110.401 151.765 111.893 153.061 112.787L152.208 108.31ZM128.844 113.755C128.596 114.665 128.565 115.477 127.921 116.215C127.228 116.805 126.608 117.486 126.075 118.24C125.985 118.426 125.942 118.633 125.951 118.842C125.959 119.05 126.019 119.253 126.123 119.43C126.228 119.606 126.375 119.751 126.548 119.851C126.722 119.95 126.917 119.999 127.114 119.995C128.466 119.819 129.706 119.113 130.588 118.016C131.47 116.92 131.93 115.513 131.877 114.075C131.833 113.706 131.673 113.364 131.421 113.104C131.17 112.845 130.842 112.683 130.493 112.646C130.143 112.609 129.792 112.699 129.497 112.9C129.201 113.101 128.98 113.403 128.867 113.755H128.844ZM126.168 105.809C125.734 106.924 125.811 108.187 125.447 109.351C125.127 110.419 124.746 111.465 124.306 112.484C123.981 113.222 124.632 114.386 125.478 113.993C126.853 113.435 127.978 112.348 128.627 110.95C129.216 109.663 129.868 107.498 129.302 106.129C128.736 104.759 126.851 104.194 126.191 105.809H126.168ZM114.657 76.8055C115.09 76.9025 115.543 76.8183 115.918 76.5707C116.294 76.323 116.565 75.9311 116.674 75.4771C117.108 73.7141 115.619 71.9019 114.44 70.8031C113.261 69.7043 111.601 68.7039 109.949 69.2697C109.729 69.3451 109.531 69.4786 109.373 69.6576C109.216 69.8366 109.104 70.0551 109.049 70.2925C108.994 70.5298 108.997 70.7782 109.058 71.0139C109.119 71.2497 109.236 71.465 109.398 71.6395C110.119 72.5907 111.12 73.2795 111.888 74.2143C112.656 75.1491 113.331 76.5677 114.68 76.8055H114.657ZM120.645 83.8001C121.297 82.8079 120.793 81.3401 120.327 80.3971C120.079 79.8769 119.694 79.444 119.218 79.1507C118.898 78.934 118.509 78.8598 118.137 78.9443C117.766 79.0287 117.44 79.265 117.232 79.6017C117.021 80.068 116.987 80.6025 117.139 81.0941C117.204 81.3513 117.292 81.6012 117.403 81.8403V81.9141V81.9797C117.542 82.7628 117.855 83.4994 118.318 84.1281C118.478 84.2986 118.674 84.4277 118.889 84.5051C119.104 84.5826 119.333 84.6064 119.559 84.5746C119.784 84.5429 119.999 84.4564 120.188 84.3221C120.376 84.1877 120.533 84.0091 120.645 83.8001ZM118.791 92.0001C119.075 92.0656 119.369 92.0656 119.652 92.0001C120.082 91.8602 120.446 91.5523 120.669 91.1391C120.877 90.6993 120.981 90.2124 120.971 89.7205C120.957 89.2546 120.837 88.799 120.622 88.3921L120.366 88.0559L120.025 87.7935C119.811 87.6771 119.576 87.6131 119.336 87.6062C119.095 87.5993 118.857 87.6498 118.638 87.7538C118.419 87.8578 118.224 88.0127 118.07 88.207C117.915 88.4013 117.804 88.6299 117.744 88.8759C117.615 89.3535 117.524 89.8418 117.473 90.3355L117.543 90.7865C117.597 91.0128 117.704 91.2213 117.853 91.3933C118.092 91.6675 118.407 91.8542 118.753 91.9263L118.791 92.0001ZM125.299 83.6771L123.748 81.8321C123.5 81.8009 123.25 81.8672 123.045 82.0185C122.841 82.1697 122.696 82.3953 122.639 82.6521C122.577 83.131 122.577 83.6165 122.639 84.0953C122.639 84.3003 122.639 84.5053 122.639 84.7185C122.635 85.0275 122.666 85.3359 122.732 85.6369C122.817 85.949 122.998 86.222 123.247 86.4123C123.496 86.6026 123.798 86.6992 124.105 86.6865C124.408 86.67 124.698 86.5511 124.933 86.3475C125.167 86.1438 125.334 85.866 125.408 85.5549C125.524 84.9295 125.487 84.2829 125.299 83.6771Z" fill="#030402"/>
<path d="M149.688 119.11C149.06 117.429 147.586 110.131 147.237 108.302C146.888 106.474 145.732 99.1266 145.383 97.2488C145.383 97.1504 145.491 97.0848 145.515 97.1914C145.887 99.0364 147.601 106.31 147.966 108.13C148.33 109.951 149.719 117.249 149.781 119.085C149.784 119.098 149.782 119.112 149.775 119.124C149.769 119.135 149.758 119.144 149.746 119.147C149.734 119.15 149.721 119.148 149.71 119.141C149.699 119.134 149.691 119.123 149.688 119.11Z" fill="#263238"/>
<path d="M144.893 122.504C142.511 122.652 140.13 122.709 137.749 122.693C135.359 122.704 132.97 122.559 130.597 122.258C129.381 122.131 128.192 121.799 127.076 121.274C126.072 120.525 125.2 119.595 124.5 118.527C123.094 116.475 121.822 114.325 120.692 112.09C118.365 107.67 116.363 103.07 114.409 98.4946C112.454 93.919 110.678 89.2123 109.049 84.4727C111.027 89.0565 112.982 93.6484 115.014 98.1994C117.046 102.75 119.102 107.285 121.32 111.721C122.427 113.934 123.649 116.08 124.981 118.15C125.603 119.181 126.39 120.088 127.308 120.831C128.366 121.347 129.494 121.682 130.651 121.824C135.376 122.429 140.136 122.656 144.893 122.504Z" fill="#263238"/>
<path d="M110.562 88.4745C110.243 88.1343 109.955 87.7637 109.701 87.3675C109.438 86.9751 109.236 86.5403 109.104 86.0801C109.22 86.2838 109.347 86.4808 109.484 86.6705L109.864 87.2527C110.119 87.645 110.352 88.053 110.562 88.4745Z" fill="#263238"/>
<path d="M122.811 80.873C124.773 82.9558 126.534 85.2436 128.357 87.433C130.179 89.6224 131.925 91.9349 133.786 94.1161L134.477 94.9361C134.601 95.0591 134.717 95.1984 134.834 95.3132C134.95 95.428 134.95 95.4198 135.004 95.469C135.004 95.469 135.058 95.469 135.089 95.469C135.679 95.469 136.424 95.3297 137.091 95.2395L141.217 94.5917C143.963 94.1653 146.717 93.7224 149.471 93.3288L149.579 94.0505L149.416 93.3371H149.455C146.732 93.9521 144.025 94.5015 141.264 95.0345C139.891 95.2969 138.518 95.5265 137.137 95.7479C136.431 95.8773 135.719 95.9649 135.004 96.0103C134.948 96.018 134.89 96.018 134.834 96.0103C134.758 95.9861 134.687 95.9472 134.624 95.8955C134.546 95.8312 134.471 95.7628 134.399 95.6905L134.019 95.2969C133.771 95.0263 133.538 94.7557 133.305 94.4769C131.483 92.2383 129.714 89.975 127.977 87.679L125.378 84.2269C124.525 83.1527 123.749 81.9718 122.811 80.873Z" fill="#263238"/>
<path d="M123.826 81.1191C124.118 81.4985 124.378 81.9047 124.602 82.3327C124.82 82.7556 124.975 83.2122 125.059 83.6857C124.966 83.4643 124.85 83.2675 124.741 83.0543L124.423 82.423C124.202 82 124.003 81.5648 123.826 81.1191Z" fill="#263238"/>
<path d="M30.7921 295.541C30.505 287.868 30.606 280.184 31.0946 272.523C32.1644 256.733 34.4446 241.06 37.9128 225.66C39.8132 216.985 42.1558 208.44 44.5992 199.929C44.669 199.674 45.0568 199.748 44.9948 200.011C37.4474 230.055 31.2498 261.068 31.6764 292.293C31.8005 301.035 32.7546 309.62 33.538 318.304C33.538 318.542 33.1967 318.632 33.1502 318.394C31.5911 310.94 31.0869 303.134 30.7921 295.541Z" fill="#80A2FC"/>
<path d="M44.9959 199.97C44.9959 199.97 56.4294 230.654 53.8697 237.862C51.3099 245.07 46.0276 246.611 46.0276 246.611C46.0276 246.611 53.0087 257.173 48.1374 267.111C43.2662 277.05 32.3912 276.541 31.6621 287.775C31.6621 287.743 31.057 240.789 44.9959 199.97Z" fill="#80A2FC"/>
<path d="M32.9084 268.358C32.8893 268.305 32.8893 268.247 32.9084 268.194C34.4163 247.247 38.1395 226.544 44.0083 206.473C44.0083 206.415 44.1169 206.432 44.1014 206.473C41.8365 215.443 39.8352 224.463 38.0977 233.533C39.6256 231.999 41.4922 230.894 43.5274 230.318C43.5274 230.318 43.5817 230.318 43.5274 230.376C41.3792 231.216 39.4496 232.582 37.896 234.361C37.5651 236.132 37.2419 237.911 36.9264 239.699C39.4784 236.681 43.0232 235.181 46.5681 233.754C46.6146 233.754 46.6456 233.82 46.5681 233.836C42.8759 235.427 39.1914 237.477 36.6937 240.839C35.8146 245.928 35.0389 251.037 34.3667 256.165C36.2153 254.128 38.5842 252.704 41.1849 252.065C41.2625 252.065 41.309 252.171 41.1849 252.196C38.5007 253.016 36.0996 254.642 34.2736 256.878H34.2271C33.9995 258.682 33.7849 260.489 33.5833 262.298C35.0567 261.012 36.7209 259.993 38.5088 259.281C38.5553 259.281 38.5786 259.338 38.5088 259.354C36.7579 260.175 35.1545 261.31 33.7694 262.708C33.7694 262.708 33.7694 262.708 33.7074 262.708C33.5212 264.422 33.3273 266.144 33.1644 267.866C35.7404 264.577 39.082 262.053 42.8603 260.544C42.868 260.54 42.8762 260.539 42.8844 260.539C42.8926 260.539 42.9007 260.541 42.9083 260.544C42.9159 260.548 42.9227 260.553 42.9285 260.559C42.9342 260.565 42.9387 260.572 42.9418 260.58C42.9448 260.588 42.9464 260.597 42.9463 260.606C42.9462 260.615 42.9445 260.623 42.9412 260.631C42.938 260.639 42.9333 260.646 42.9274 260.652C42.9215 260.658 42.9145 260.663 42.9069 260.667C39.1748 262.405 35.896 265.072 33.3506 268.44C33.3244 268.48 33.2867 268.509 33.2433 268.524C33.1999 268.539 33.1532 268.538 33.1101 268.522C32.8619 271.162 32.6369 273.811 32.4585 276.46H32.3965C32.5206 273.778 32.699 271.064 32.9084 268.358Z" fill="#263238"/>
<path d="M42.0941 227.3C44.1641 225.937 46.5304 225.158 48.9666 225.037C49.0209 225.037 49.0287 225.119 48.9666 225.127C46.6134 225.588 44.3285 226.376 42.1717 227.473C42.1514 227.477 42.1303 227.474 42.1118 227.464C42.0934 227.454 42.0785 227.438 42.0696 227.418C42.0607 227.399 42.0583 227.376 42.0627 227.355C42.0672 227.333 42.0782 227.314 42.0941 227.3Z" fill="#263238"/>
<path d="M40.7049 259.779C42.297 258.818 44.0476 258.187 45.8632 257.918C45.9252 257.918 45.933 258.008 45.8632 258.016C44.0845 258.394 42.3641 259.032 40.7515 259.911C40.6972 259.943 40.6351 259.82 40.7049 259.779Z" fill="#263238"/>
<path d="M0.735049 238.361C5.5695 241.897 10.0089 246.001 13.9681 250.595C18.0618 255.451 21.2232 261.102 23.2762 267.233C27.6148 280.012 29.9493 293.454 30.1875 307.028C30.3361 314.546 29.6514 322.056 28.1474 329.406C28.1342 329.457 28.1034 329.501 28.0609 329.53C28.0184 329.558 27.9673 329.569 27.9177 329.56C27.8682 329.55 27.8237 329.522 27.793 329.48C27.7623 329.438 27.7476 329.385 27.7518 329.332C29.6254 316.361 29.5625 303.16 27.5657 290.21C25.5955 277.516 22.516 263.707 14.8834 253.392C10.687 247.799 5.50545 243.363 0.417022 238.779C0.114509 238.55 0.455806 238.156 0.735049 238.361Z" fill="#80A2FC"/>
<path d="M28.4808 297.893C25.7308 293.185 22.4974 288.812 18.8392 284.855C13.1147 278.811 8.29772 274.514 7.55307 270.513C6.80842 266.511 13.2853 263.576 13.2853 263.576C13.2853 263.576 5.36567 265.076 3.20153 261.558C1.0374 258.041 -0.00976562 237.713 -0.00976562 237.713C-0.00976562 237.713 14.379 248.619 21.1041 263.813C27.8292 279.008 28.4808 297.893 28.4808 297.893Z" fill="#80A2FC"/>
<path d="M5.13266 256.82C6.08047 256.677 7.04028 256.644 7.9949 256.722C8.11125 256.722 8.10349 256.935 7.9949 256.935C7.04857 256.935 6.10225 256.886 5.14817 256.935C5.0706 256.919 5.0706 256.82 5.13266 256.82Z" fill="#263238"/>
<path d="M15.4964 276.5C17.0191 276.534 18.524 276.853 19.941 277.443C19.941 277.443 19.941 277.517 19.941 277.509C18.475 277.14 16.9935 276.984 15.5119 276.73C15.3646 276.73 15.3723 276.5 15.4964 276.5Z" fill="#263238"/>
<path d="M18.6063 269.702C19.2387 269.697 19.8701 269.757 20.4912 269.883C20.5533 269.883 20.5455 270.006 20.4912 270.006C19.8614 270.039 19.23 270.006 18.6063 269.907C18.5853 269.901 18.5667 269.888 18.5535 269.869C18.5403 269.851 18.5332 269.828 18.5332 269.805C18.5332 269.782 18.5403 269.759 18.5535 269.741C18.5667 269.722 18.5853 269.709 18.6063 269.702Z" fill="#263238"/>
<path d="M70.6939 259.953C66.0102 261.631 61.5214 263.865 57.3135 266.611C52.9564 269.554 49.177 273.357 46.1826 277.812C39.8774 287.095 35.0486 297.404 31.8869 308.333C30.1275 314.381 29.0394 320.625 28.6445 326.939C28.6445 326.986 28.6625 327.032 28.6945 327.066C28.7265 327.1 28.7699 327.119 28.8152 327.119C28.8604 327.119 28.9038 327.1 28.9358 327.066C28.9679 327.032 28.9858 326.986 28.9858 326.939C30.2966 315.999 33.2201 305.344 37.6501 295.36C42.0172 285.57 47.5322 275.147 55.9638 268.669C60.5558 265.135 65.7141 262.831 70.8568 260.387C71.1593 260.256 71.0042 259.854 70.6939 259.953Z" fill="#80A2FC"/>
<path d="M35.2285 301.346C38.4814 298.206 42.0531 295.455 45.8785 293.146C51.8357 289.653 56.6682 287.349 58.1497 284.298C59.6313 281.248 55.047 277.279 55.047 277.279C55.047 277.279 61.1206 280.428 63.6415 278.099C66.1625 275.77 71.4526 259.575 71.4526 259.575C71.4526 259.575 57.4283 264.856 48.6632 275.549C39.8981 286.242 35.2285 301.346 35.2285 301.346Z" fill="#80A2FC"/>
<path d="M46.873 286.455C48.2497 286.353 49.6321 286.531 50.9453 286.979C50.9453 286.979 50.9453 287.053 50.9453 287.045C49.6033 286.807 48.2483 286.659 46.8885 286.602C46.87 286.604 46.8515 286.599 46.8369 286.586C46.8224 286.574 46.813 286.556 46.811 286.537C46.8089 286.517 46.8143 286.497 46.8259 286.482C46.8376 286.467 46.8545 286.457 46.873 286.455Z" fill="#263238"/>
<path d="M59.1125 269.481C59.7403 269.433 60.3713 269.472 60.9896 269.596C61.0015 269.6 61.0118 269.609 61.019 269.62C61.0262 269.631 61.0301 269.644 61.0301 269.657C61.0301 269.671 61.0262 269.684 61.019 269.695C61.0118 269.706 61.0015 269.714 60.9896 269.719C60.3769 269.645 59.7641 269.669 59.1435 269.653C59.1244 269.652 59.1062 269.644 59.0918 269.631C59.0774 269.618 59.0676 269.6 59.064 269.58C59.0604 269.56 59.0633 269.539 59.0721 269.521C59.0809 269.504 59.0951 269.489 59.1125 269.481Z" fill="#263238"/>
<path d="M17.1328 347.39H48.7959L44.2815 312.417L43.1257 303.454H22.803L21.6472 312.417L17.1328 347.39Z" fill="#455A64"/>
<path d="M21.6465 312.417H44.2807L43.1249 303.454H22.8022L21.6465 312.417Z" fill="#263238"/>
<path d="M19.8871 307.931H46.0352V300.337H19.8871V307.931Z" fill="#455A64"/>
<path d="M185.802 18.8309C185.802 22.2055 184.915 25.5137 183.24 28.3863C181.564 31.2589 179.167 33.583 176.315 35.0993C173.464 36.6156 170.269 37.2645 167.089 36.9735C163.909 36.6826 160.868 35.4632 158.305 33.4515L149.857 35.7311L153.371 27.4245C152.135 24.9822 151.441 22.2738 151.343 19.5054C151.245 16.7371 151.746 13.9816 152.807 11.4485C153.868 8.91549 155.462 6.67156 157.466 4.88739C159.471 3.10322 161.834 1.82578 164.376 1.15222C166.918 0.478665 169.572 0.426723 172.136 1.00034C174.699 1.57396 177.106 2.75804 179.171 4.46254C181.237 6.16704 182.908 8.34708 184.057 10.8369C185.206 13.3267 185.803 16.0607 185.802 18.8309Z" fill="white"/>
<path d="M185.804 18.824C185.803 22.2028 184.923 25.5162 183.26 28.4016C182.855 29.1289 182.41 29.8299 181.926 30.5008C181.411 31.1431 180.859 31.7511 180.274 32.3212C179.116 33.4745 177.811 34.449 176.395 35.2158C174.975 35.9819 173.461 36.5339 171.896 36.8558C171.111 37.0211 170.315 37.1252 169.515 37.1674C168.717 37.2371 167.916 37.2371 167.118 37.1674C163.892 36.9027 160.798 35.6962 158.182 33.6824L158.415 33.7316L149.991 36.0768L149.309 36.2654L149.596 35.5766L153.078 27.2536V27.598C151.812 25.1082 151.104 22.3436 151.009 19.5182C150.915 16.6928 151.437 13.8824 152.535 11.3046C153.635 8.73393 155.271 6.46022 157.321 4.65437C159.369 2.87514 161.771 1.60926 164.348 0.951728C166.925 0.294191 169.609 0.262066 172.199 0.857764C174.765 1.475 177.169 2.69091 179.234 4.41656C181.288 6.13696 182.946 8.32721 184.084 10.8226C185.222 13.3181 185.81 16.0537 185.804 18.824ZM185.804 18.824C185.803 14.6583 184.438 10.6215 181.941 7.39889C179.444 4.1763 175.969 1.96654 172.106 1.14477C169.564 0.609917 166.941 0.694043 164.434 1.39077C161.936 2.07283 159.619 3.35209 157.663 5.12997C155.724 6.92709 154.178 9.14876 153.133 11.6408C152.102 14.1258 151.619 16.8261 151.721 19.5374C151.841 22.2217 152.519 24.8451 153.707 27.2208L153.792 27.393L153.714 27.5652L150.17 35.8636L149.774 35.3716L158.237 33.1576H158.368L158.469 33.2396C160.978 35.2535 163.967 36.4887 167.103 36.8066C167.877 36.8668 168.655 36.8668 169.43 36.8066C171.8 36.7205 174.125 36.0969 176.248 34.978C177.664 34.2493 178.97 33.3044 180.126 32.1736C180.712 31.6119 181.264 31.0122 181.778 30.3778C182.272 29.7253 182.731 29.0436 183.151 28.336C184.845 25.4827 185.762 22.1919 185.804 18.824Z" fill="#263238"/>
<path d="M169.77 20.7994V22.8084C169.776 23.0092 169.742 23.209 169.672 23.3956C169.602 23.5822 169.496 23.7517 169.362 23.8937C169.228 24.0357 169.067 24.1472 168.891 24.2215C168.714 24.2957 168.525 24.3311 168.335 24.3254C168.147 24.3254 167.961 24.2861 167.787 24.2098C167.614 24.1334 167.456 24.0216 167.323 23.8806C167.191 23.7396 167.086 23.5723 167.015 23.3883C166.943 23.2043 166.907 23.0072 166.908 22.8084V19.6022C166.908 19.6022 166.908 19.6022 166.908 19.5366C166.908 19.471 166.908 19.5366 166.908 19.4792C166.918 19.0815 167.071 18.7028 167.337 18.4208C167.602 18.1387 167.959 17.9746 168.335 17.9622C168.778 17.985 169.221 17.9125 169.636 17.7491C170.052 17.5857 170.431 17.3348 170.752 17.0116C171.073 16.6884 171.329 16.2997 171.503 15.869C171.678 15.4382 171.768 14.9745 171.768 14.5059C171.768 14.0373 171.678 13.5736 171.503 13.1429C171.329 12.7121 171.073 12.3234 170.752 12.0002C170.431 11.677 170.052 11.4261 169.636 11.2627C169.221 11.0993 168.778 11.0268 168.335 11.0496C167.769 11.0477 167.212 11.2036 166.72 11.5016C166.229 11.7995 165.82 12.2291 165.535 12.747C165.44 12.9217 165.313 13.0747 165.161 13.1974C165.009 13.32 164.836 13.4097 164.652 13.4615C164.467 13.5134 164.275 13.5262 164.086 13.4992C163.897 13.4723 163.714 13.4062 163.55 13.3046C163.388 13.2033 163.246 13.0691 163.134 12.9098C163.021 12.7505 162.939 12.5693 162.893 12.3765C162.847 12.1837 162.837 11.9831 162.865 11.7864C162.892 11.5896 162.956 11.4005 163.053 11.23C163.563 10.3012 164.284 9.52078 165.15 8.95897C166.016 8.39715 167 8.07148 168.015 8.0112C169.029 7.95092 170.042 8.15791 170.962 8.61359C171.882 9.06927 172.681 9.75937 173.286 10.6219C173.892 11.4845 174.285 12.4925 174.431 13.5555C174.577 14.6185 174.471 15.7031 174.122 16.7121C173.774 17.721 173.194 18.6227 172.434 19.3361C171.675 20.0495 170.759 20.5523 169.77 20.7994ZM169.77 27.5644V28.122C169.775 28.3221 169.74 28.521 169.67 28.7066C169.599 28.8923 169.493 29.0608 169.359 29.2019C169.225 29.343 169.065 29.4538 168.889 29.5276C168.713 29.6013 168.525 29.6364 168.335 29.6308C167.957 29.6308 167.594 29.4719 167.326 29.1889C167.059 28.9059 166.908 28.5222 166.908 28.122V27.5644C166.912 27.1648 167.064 26.7826 167.33 26.4993C167.597 26.2159 167.957 26.0538 168.335 26.0474C168.524 26.0452 168.712 26.083 168.887 26.1584C169.062 26.2339 169.221 26.3455 169.355 26.4868C169.488 26.6281 169.594 26.7963 169.665 26.9813C169.737 27.1663 169.773 27.3646 169.77 27.5644Z" fill="#80A2FC"/>
</g>
<defs>
<clipPath id="clip0_36_1442">
<rect width="280" height="348" fill="white"/>
</clipPath>
</defs>
</svg>
