<svg width="43" height="43" viewBox="0 0 43 43" fill="none" xmlns="http://www.w3.org/2000/svg">
<path fill-rule="evenodd" clip-rule="evenodd" d="M7.44922 8.76316C7.44922 7.48487 7.95702 6.25894 8.86091 5.35505C9.76479 4.45116 10.9907 3.94336 12.269 3.94336H26.2675C26.7547 3.94336 27.2348 4.05941 27.6682 4.2819C28.1016 4.5044 28.4758 4.82693 28.7598 5.2228L34.0405 12.5787C34.4138 13.101 34.6154 13.7267 34.6154 14.3664V33.3003C34.6154 34.5786 34.1076 35.8046 33.2037 36.7085C32.2998 37.6123 31.0739 38.1201 29.7956 38.1201H12.269C10.9907 38.1201 9.76479 37.6123 8.86091 36.7085C7.95702 35.8046 7.44922 34.5786 7.44922 33.3003V8.76316ZM12.269 6.57234C11.0597 6.57234 10.0782 7.55383 10.0782 8.76316V33.3003C10.0782 34.5097 11.0597 35.4912 12.269 35.4912H29.7956C31.0049 35.4912 31.9864 34.5097 31.9864 33.3003V15.5933H26.2903C25.9416 15.5933 25.6073 15.4548 25.3608 15.2083C25.1143 14.9617 24.9758 14.6274 24.9758 14.2788V6.57234H12.269Z" fill="#4A4755"/>
<path d="M26.4403 23.1691C26.3325 23.3041 26.1991 23.4165 26.0477 23.4999C25.8964 23.5833 25.7301 23.636 25.5583 23.655C25.3866 23.6741 25.2128 23.6591 25.0469 23.6109C24.8809 23.5627 24.7261 23.4823 24.5913 23.3742L22.3479 21.576V27.6051C22.3479 27.9537 22.2094 28.2881 21.9629 28.5346C21.7164 28.7811 21.382 28.9196 21.0334 28.9196C20.6848 28.9196 20.3504 28.7811 20.1039 28.5346C19.8574 28.2881 19.7189 27.9537 19.7189 27.6051V21.576L17.472 23.3742C17.1996 23.592 16.8519 23.6926 16.5053 23.654C16.1587 23.6154 15.8416 23.4407 15.6238 23.1683C15.4061 22.8959 15.3054 22.5481 15.344 22.2015C15.3827 21.8549 15.5574 21.5379 15.8298 21.3201L20.2061 17.8183C20.437 17.6317 20.7243 17.5291 21.0211 17.5273H21.0352C21.3506 17.5273 21.6381 17.6395 21.8642 17.8253L26.2353 21.3201C26.3703 21.428 26.4827 21.5614 26.566 21.7127C26.6494 21.8641 26.7021 22.0304 26.7212 22.2021C26.7402 22.3738 26.7252 22.5476 26.677 22.7136C26.6288 22.8795 26.5484 23.0343 26.4403 23.1691Z" fill="#4A4755"/>
</svg>
