<svg width="76" height="76" viewBox="0 0 76 76" fill="none" xmlns="http://www.w3.org/2000/svg">
<path d="M47.5 9.5V22.1667C47.5 23.0065 47.8336 23.812 48.4275 24.4058C49.0214 24.9997 49.8268 25.3333 50.6667 25.3333H63.3333" stroke="#767381" stroke-width="2" stroke-linecap="round" stroke-linejoin="round"/>
<path d="M53.8333 53.8333H34.8333C33.1536 53.8333 31.5427 53.1661 30.355 51.9783C29.1673 50.7906 28.5 49.1797 28.5 47.5V28.5M28.5 15.8333C28.5 14.1536 29.1673 12.5427 30.355 11.355C31.5427 10.1673 33.1536 9.5 34.8333 9.5H47.5L63.3333 25.3333V47.5C63.3333 48.431 63.1338 49.3113 62.7728 50.1062" stroke="#767381" stroke-width="2" stroke-linecap="round" stroke-linejoin="round"/>
<path d="M50.6667 53.8333V60.1667C50.6667 61.8464 49.9994 63.4573 48.8117 64.645C47.6239 65.8327 46.013 66.5 44.3333 66.5H22.1667C20.487 66.5 18.8761 65.8327 17.6883 64.645C16.5006 63.4573 15.8333 61.8464 15.8333 60.1667V28.5C15.8333 26.8203 16.5006 25.2094 17.6883 24.0217C18.8761 22.8339 20.487 22.1667 22.1667 22.1667M9.5 9.5L66.5 66.5" stroke="#767381" stroke-width="2" stroke-linecap="round" stroke-linejoin="round"/>
</svg>
