<svg width="21" height="21" viewBox="0 0 21 21" fill="none" xmlns="http://www.w3.org/2000/svg">
<path d="M9.3874 5.12073C8.4914 5.12073 7.68414 5.36621 6.96564 5.85716C6.24713 6.34811 5.73172 6.99152 5.4194 7.7874C5.33406 8.00073 5.19554 8.16087 5.00382 8.26783C4.81211 8.37478 4.60219 8.40663 4.37406 8.3634C4.14594 8.32016 3.96446 8.21008 3.82964 8.03316C3.69481 7.85623 3.66295 7.66765 3.73406 7.4674C4.11806 6.27273 4.82206 5.29851 5.84606 4.54473C6.87006 3.79095 8.05051 3.41407 9.3874 3.41407C10.2265 3.41407 11.0124 3.57392 11.7452 3.89364C12.4779 4.21335 13.1142 4.65083 13.6541 5.20607V4.2674C13.6541 4.02562 13.736 3.8231 13.8998 3.65983C14.0637 3.49655 14.2662 3.41463 14.5074 3.41407C14.7486 3.4135 14.9514 3.49542 15.1158 3.65983C15.2802 3.82423 15.3619 4.02676 15.3607 4.2674V7.68073C15.3607 7.92251 15.2788 8.12532 15.115 8.28916C14.9511 8.453 14.7486 8.53463 14.5074 8.53407H11.0941C10.8523 8.53407 10.6498 8.45215 10.4865 8.28831C10.3232 8.12447 10.2413 7.92194 10.2407 7.68073C10.2402 7.43952 10.3221 7.237 10.4865 7.07316C10.6509 6.90932 10.8534 6.8274 11.0941 6.8274H12.8007C12.3883 6.3154 11.8942 5.90295 11.3185 5.59007C10.7428 5.27718 10.0991 5.12073 9.3874 5.12073ZM9.3874 15.3607C8.54828 15.3607 7.76265 15.2009 7.03049 14.8812C6.29833 14.5614 5.66174 14.124 5.12073 13.5687V14.5074C5.12073 14.7492 5.03881 14.952 4.87497 15.1158C4.71113 15.2797 4.5086 15.3613 4.2674 15.3607C4.02619 15.3602 3.82366 15.2782 3.65982 15.115C3.49598 14.9517 3.41406 14.7492 3.41406 14.5074V11.0941C3.41406 10.8523 3.49598 10.6498 3.65982 10.4865C3.82366 10.3232 4.02619 10.2413 4.2674 10.2407H7.68073C7.92251 10.2407 8.12532 10.3227 8.28916 10.4865C8.453 10.6503 8.53463 10.8529 8.53406 11.0941C8.53349 11.3353 8.45157 11.5381 8.2883 11.7025C8.12503 11.8669 7.92251 11.9485 7.68073 11.9474H5.97406C6.38651 12.4594 6.88087 12.8718 7.45716 13.1847C8.03344 13.4976 8.67685 13.6541 9.3874 13.6541C10.2692 13.6541 11.0622 13.4194 11.7665 12.9501C12.4708 12.4807 12.9862 11.8621 13.3127 11.0941C13.4123 10.8665 13.5582 10.685 13.7505 10.5496C13.9428 10.4142 14.1595 10.3682 14.4007 10.4114C14.6425 10.4683 14.8203 10.5963 14.9341 10.7954C15.0478 10.9945 15.0692 11.2078 14.9981 11.4354C14.8985 11.7198 14.781 11.9867 14.6456 12.2358C14.5102 12.485 14.3504 12.7302 14.1661 12.9714L17.3234 16.1287C17.4798 16.2852 17.5581 16.4843 17.5581 16.7261C17.5581 16.9678 17.4798 17.167 17.3234 17.3234C17.167 17.4798 16.9678 17.5581 16.7261 17.5581C16.4843 17.5581 16.2852 17.4798 16.1287 17.3234L12.9714 14.1661C12.4594 14.5501 11.9013 14.8453 11.2972 15.0518C10.693 15.2583 10.0564 15.3613 9.3874 15.3607Z" fill="#6F6B7D"/>
</svg>
