<svg width="13" height="13" viewBox="0 0 13 13" fill="none" xmlns="http://www.w3.org/2000/svg">
<path d="M8.49517 2.28711C9.84252 2.28711 10.9344 3.39585 10.9344 4.9481C10.9344 5.58008 10.7969 6.15707 10.5676 6.68084C10.0632 6.36607 9.46796 6.22929 8.87675 6.29232C8.28555 6.35536 7.73249 6.61456 7.30579 7.0286C6.8791 7.44264 6.60336 7.98765 6.52256 8.57668C6.44176 9.16572 6.56055 9.76485 6.85999 10.2785C6.72384 10.3592 6.60232 10.4302 6.49943 10.4918C5.39069 9.82657 2.06445 8.05258 2.06445 4.9481C2.06445 3.39585 3.1732 2.28711 4.50369 2.28711C5.3286 2.28711 6.05593 2.73061 6.49943 3.1741C6.94293 2.73061 7.67026 2.28711 8.49517 2.28711ZM9.60391 8.49608V7.16558H8.71692V8.49608H7.38643V9.38307H8.71648L8.71692 10.7136H9.60391L9.60347 9.38307H10.9344V8.49608H9.60391Z" fill="#1958FF"/>
</svg>
