<svg width="25" height="25" viewBox="0 0 25 25" fill="none" xmlns="http://www.w3.org/2000/svg">
<path d="M12.5 1.5625C15.4008 1.5625 18.1828 2.71484 20.234 4.76602C22.2852 6.8172 23.4375 9.59919 23.4375 12.5C23.4375 15.4008 22.2852 18.1828 20.234 20.234C18.1828 22.2852 15.4008 23.4375 12.5 23.4375C9.59919 23.4375 6.8172 22.2852 4.76602 20.234C2.71484 18.1828 1.5625 15.4008 1.5625 12.5C1.5625 9.59919 2.71484 6.8172 4.76602 4.76602C6.8172 2.71484 9.59919 1.5625 12.5 1.5625ZM12.5 21.875C14.9864 21.875 17.371 20.8873 19.1291 19.1291C20.8873 17.371 21.875 14.9864 21.875 12.5C21.875 10.0136 20.8873 7.62903 19.1291 5.87087C17.371 4.11272 14.9864 3.125 12.5 3.125C10.0136 3.125 7.62903 4.11272 5.87087 5.87087C4.11272 7.62903 3.125 10.0136 3.125 12.5C3.125 14.9864 4.11272 17.371 5.87087 19.1291C7.62903 20.8873 10.0136 21.875 12.5 21.875ZM13.6719 17.5781C13.6719 17.8889 13.5484 18.187 13.3286 18.4068C13.1089 18.6265 12.8108 18.75 12.5 18.75C12.1892 18.75 11.8911 18.6265 11.6714 18.4068C11.4516 18.187 11.3281 17.8889 11.3281 17.5781C11.3281 17.2673 11.4516 16.9693 11.6714 16.7495C11.8911 16.5297 12.1892 16.4062 12.5 16.4062C12.8108 16.4062 13.1089 16.5297 13.3286 16.7495C13.5484 16.9693 13.6719 17.2673 13.6719 17.5781ZM12.5 6.25C12.7072 6.25 12.9059 6.33231 13.0524 6.47882C13.1989 6.62534 13.2812 6.82405 13.2812 7.03125V14.0625C13.2812 14.2697 13.1989 14.4684 13.0524 14.6149C12.9059 14.7614 12.7072 14.8438 12.5 14.8438C12.2928 14.8438 12.0941 14.7614 11.9476 14.6149C11.8011 14.4684 11.7188 14.2697 11.7188 14.0625V7.03125C11.7188 6.82405 11.8011 6.62534 11.9476 6.47882C12.0941 6.33231 12.2928 6.25 12.5 6.25Z" fill="#F99600"/>
</svg>
