<svg width="36" height="36" viewBox="0 0 36 36" fill="none" xmlns="http://www.w3.org/2000/svg">
<path d="M6.85289 28.2158C6.1688 28.2158 5.59806 27.9871 5.14068 27.5297C4.6833 27.0724 4.45412 26.5011 4.45312 25.816V9.82555C4.45312 9.14145 4.68231 8.57072 5.14068 8.11334C5.59905 7.65596 6.16929 7.42677 6.8514 7.42578L9.07891 11.8808H13.5339L11.3064 7.42578H14.2764L16.5039 11.8808H20.9589L18.7314 7.42578H21.7014L23.9289 11.8808H28.3839L26.1564 7.42578H28.7849C29.468 7.42578 30.0387 7.65497 30.4971 8.11334C30.9555 8.57171 31.1842 9.14244 31.1832 9.82555V14.5939H29.6982V13.3658H5.93813V25.8175C5.93813 26.0838 6.02376 26.3026 6.19503 26.4739C6.3663 26.6452 6.58559 26.7308 6.85289 26.7308H17.5895V28.2158H6.85289ZM21.1312 29.7008V26.419L29.0507 18.5381C29.1972 18.3915 29.3492 18.2925 29.5066 18.2411C29.665 18.1896 29.8234 18.1638 29.9818 18.1638C30.1451 18.1638 30.3105 18.1955 30.4778 18.2589C30.6461 18.3232 30.7936 18.4193 30.9203 18.547L32.2939 19.9488C32.4157 20.0953 32.5083 20.2478 32.5716 20.4062C32.636 20.5636 32.6682 20.7215 32.6682 20.8799C32.6682 21.0383 32.638 21.1977 32.5776 21.3581C32.5172 21.5185 32.4226 21.6719 32.2939 21.8184L24.4116 29.7008H21.1312ZM22.4454 28.3881H23.8562L29.0047 23.2292L28.3067 22.5238L27.631 21.7991L22.4454 26.9773V28.3881ZM28.3067 22.5238L27.631 21.7991L29.0047 23.2292L28.3067 22.5238Z" fill="black"/>
</svg>
