<svg width="46" height="46" viewBox="0 0 46 46" fill="none" xmlns="http://www.w3.org/2000/svg">
<g clip-path="url(#clip0_76_159847)">
<path d="M41.3599 10.7233H42.8918V10.0891L42.4445 9.63869L41.3599 10.7233ZM32.1685 1.5319L33.2531 0.447314L32.8027 0H32.1685V1.5319ZM7.65819 19.9147L8.74277 18.8301C8.52852 18.6153 8.25532 18.4689 7.9578 18.4096C7.66028 18.3503 7.35184 18.3806 7.07159 18.4968C6.79133 18.613 6.55188 18.8097 6.38359 19.0621C6.2153 19.3146 6.12575 19.6113 6.12629 19.9147H7.65819ZM10.722 22.9784L9.6374 24.063L10.722 25.1445L11.8066 24.063L10.722 22.9784ZM13.7858 19.9147H15.3177C15.3182 19.6113 15.2287 19.3146 15.0604 19.0621C14.8921 18.8097 14.6526 18.613 14.3724 18.4968C14.0921 18.3806 13.7837 18.3503 13.4862 18.4096C13.1886 18.4689 12.9154 18.6153 12.7012 18.8301L13.7858 19.9147ZM19.9134 19.9147V18.3828H18.3815V19.9147H19.9134ZM38.2961 19.9147L39.5216 20.8338C39.6923 20.6062 39.7963 20.3356 39.8218 20.0522C39.8474 19.7689 39.7935 19.484 39.6663 19.2296C39.5391 18.9751 39.3435 18.7611 39.1015 18.6115C38.8595 18.462 38.5806 18.3828 38.2961 18.3828V19.9147ZM33.7004 26.0422L32.4749 25.1231C32.3042 25.3507 32.2003 25.6213 32.1747 25.9047C32.1492 26.188 32.203 26.4729 32.3303 26.7273C32.4575 26.9818 32.6531 27.1958 32.8951 27.3453C33.1371 27.4949 33.4159 27.5741 33.7004 27.5741V26.0422ZM6.12629 15.319V4.59569H3.0625V15.319H6.12629ZM39.828 10.7233V15.319H42.8918V10.7233H39.828ZM7.65819 3.06379H32.1685V0H7.65819V3.06379ZM31.084 2.61648L40.2753 11.8079L42.4445 9.63869L33.2531 0.447314L31.084 2.61648ZM6.12629 4.59569C6.12629 4.1894 6.28769 3.79976 6.57498 3.51248C6.86226 3.22519 7.2519 3.06379 7.65819 3.06379V0C6.43934 0 5.27041 0.484187 4.40855 1.34605C3.54669 2.20791 3.0625 3.37684 3.0625 4.59569H6.12629ZM3.0625 36.7655V41.3612H6.12629V36.7655H3.0625ZM7.65819 45.9569H38.2961V42.8931H7.65819V45.9569ZM42.8918 41.3612V36.7655H39.828V41.3612H42.8918ZM38.2961 45.9569C39.515 45.9569 40.6839 45.4727 41.5458 44.6108C42.4076 43.749 42.8918 42.5801 42.8918 41.3612H39.828C39.828 41.7675 39.6666 42.1571 39.3793 42.4444C39.092 42.7317 38.7024 42.8931 38.2961 42.8931V45.9569ZM3.0625 41.3612C3.0625 42.5801 3.54669 43.749 4.40855 44.6108C5.27041 45.4727 6.43934 45.9569 7.65819 45.9569V42.8931C7.2519 42.8931 6.86226 42.7317 6.57498 42.4444C6.28769 42.1571 6.12629 41.7675 6.12629 41.3612H3.0625ZM9.19009 33.7017V19.9147H6.12629V33.7017H9.19009ZM6.57361 20.9992L9.6374 24.063L11.8066 21.8939L8.74277 18.8301L6.57361 20.9992ZM11.8066 24.063L14.8704 20.9992L12.7012 18.8301L9.6374 21.8939L11.8066 24.063ZM12.2539 19.9147V33.7017H15.3177V19.9147H12.2539ZM19.9134 21.4466H22.9772V18.3828H19.9134V21.4466ZM21.4453 33.7017V26.0422H18.3815V33.7017H21.4453ZM21.4453 26.0422V19.9147H18.3815V26.0422H21.4453ZM22.9772 24.5103H19.9134V27.5741H22.9772V24.5103ZM24.5091 22.9784C24.5091 23.3847 24.3477 23.7744 24.0604 24.0617C23.7731 24.3489 23.3834 24.5103 22.9772 24.5103V27.5741C24.196 27.5741 25.3649 27.09 26.2268 26.2281C27.0887 25.3662 27.5728 24.1973 27.5728 22.9784H24.5091ZM22.9772 21.4466C23.3834 21.4466 23.7731 21.6079 24.0604 21.8952C24.3477 22.1825 24.5091 22.5722 24.5091 22.9784H27.5728C27.5728 21.7596 27.0887 20.5907 26.2268 19.7288C25.3649 18.8669 24.196 18.3828 22.9772 18.3828V21.4466ZM30.6366 21.4466H38.2961V18.3828H30.6366V21.4466ZM37.0706 18.9955L32.4749 25.1231L34.9259 26.9614L39.5216 20.8338L37.0706 18.9955ZM33.7004 27.5741H35.2323V24.5103H33.7004V27.5741ZM35.2323 30.6379H30.6366V33.7017H35.2323V30.6379ZM36.7642 29.106C36.7642 29.5123 36.6028 29.902 36.3155 30.1892C36.0283 30.4765 35.6386 30.6379 35.2323 30.6379V33.7017C36.4512 33.7017 37.6201 33.2175 38.482 32.3557C39.3438 31.4938 39.828 30.3249 39.828 29.106H36.7642ZM35.2323 27.5741C35.6386 27.5741 36.0283 27.7355 36.3155 28.0228C36.6028 28.3101 36.7642 28.6997 36.7642 29.106H39.828C39.828 27.8872 39.3438 26.7182 38.482 25.8564C37.6201 24.9945 36.4512 24.5103 35.2323 24.5103V27.5741Z" fill="#316AFF"/>
</g>
<defs>
<clipPath id="clip0_76_159847">
<rect width="45.9569" height="45.9569" fill="white"/>
</clipPath>
</defs>
</svg>
