<svg width="33" height="40" viewBox="0 0 33 40" fill="none" xmlns="http://www.w3.org/2000/svg">
<path fill-rule="evenodd" clip-rule="evenodd" d="M0.324219 5.74052C0.324219 4.25482 0.914412 2.82997 1.96496 1.77942C3.01551 0.728865 4.44037 0.138672 5.92607 0.138672H22.1959C22.7621 0.138674 23.3202 0.273555 23.8239 0.532149C24.3276 0.790743 24.7625 1.16561 25.0926 1.62571L31.2301 10.1752C31.664 10.7822 31.8983 11.5094 31.8983 12.2529V34.259C31.8983 35.7447 31.3081 37.1696 30.2575 38.2201C29.207 39.2707 27.7821 39.8609 26.2964 39.8609H5.92607C4.44037 39.8609 3.01551 39.2707 1.96496 38.2201C0.914412 37.1696 0.324219 35.7447 0.324219 34.259V5.74052ZM5.92607 3.19423C4.52051 3.19423 3.37977 4.33497 3.37977 5.74052V34.259C3.37977 35.6646 4.52051 36.8053 5.92607 36.8053H26.2964C27.702 36.8053 28.8427 35.6646 28.8427 34.259V13.6789H22.2224C21.8172 13.6789 21.4286 13.5179 21.1421 13.2314C20.8556 12.9449 20.6946 12.5563 20.6946 12.1511V3.19423H5.92607Z" fill="#4A4755"/>
</svg>
