<svg width="11" height="11" viewBox="0 0 11 11" fill="none" xmlns="http://www.w3.org/2000/svg">
<path fill-rule="evenodd" clip-rule="evenodd" d="M3.09924 1.99219H3.98521C4.22974 1.99219 4.4282 2.17736 4.4282 2.40549V7.7807C4.4282 8.00884 4.22974 8.19401 3.98521 8.19401H3.09924C2.85471 8.19401 2.65625 8.00884 2.65625 7.7807V2.40549C2.65625 2.17736 2.85471 1.99219 3.09924 1.99219ZM6.64313 1.99219H7.52911C7.77364 1.99219 7.9721 2.17736 7.9721 2.40549V7.7807C7.9721 8.00884 7.77364 8.19401 7.52911 8.19401H6.64313C6.39861 8.19401 6.20015 8.00884 6.20015 7.7807V2.40549C6.20015 2.17736 6.39861 1.99219 6.64313 1.99219Z" fill="#1E1E1E"/>
</svg>
