<svg width="48" height="48" viewBox="0 0 48 48" fill="none" xmlns="http://www.w3.org/2000/svg">
<g clip-path="url(#clip0_76_159842)">
<path d="M7.92351 20.6073V19.0222H6.33833V20.6073H7.92351ZM20.6049 20.6073V19.0222H19.0198V20.6073H20.6049ZM20.6049 33.2888H19.0198V34.874H20.6049V33.2888ZM42.7975 11.0963H44.3826V10.44L43.9198 9.97395L42.7975 11.0963ZM33.2864 1.58518L34.4087 0.462873L33.9426 0H33.2864V1.58518ZM7.92351 22.1925H11.0939V19.0222H7.92351V22.1925ZM9.50869 34.874V26.9481H6.33833V34.874H9.50869ZM9.50869 26.9481V20.6073H6.33833V26.9481H9.50869ZM11.0939 25.3629H7.92351V28.5332H11.0939V25.3629ZM12.679 23.7777C12.679 24.1981 12.512 24.6013 12.2148 24.8986C11.9175 25.1959 11.5143 25.3629 11.0939 25.3629V28.5332C12.3551 28.5332 13.5647 28.0322 14.4565 27.1404C15.3484 26.2485 15.8494 25.0389 15.8494 23.7777H12.679ZM11.0939 22.1925C11.5143 22.1925 11.9175 22.3595 12.2148 22.6568C12.512 22.9541 12.679 23.3573 12.679 23.7777H15.8494C15.8494 22.5164 15.3484 21.3069 14.4565 20.415C13.5647 19.5232 12.3551 19.0222 11.0939 19.0222V22.1925ZM19.0198 20.6073V33.2888H22.1901V20.6073H19.0198ZM20.6049 34.874H23.7753V31.7036H20.6049V34.874ZM28.5308 30.1184V23.7777H25.3605V30.1184H28.5308ZM23.7753 19.0222H20.6049V22.1925H23.7753V19.0222ZM28.5308 23.7777C28.5308 22.5164 28.0298 21.3069 27.138 20.415C26.2461 19.5232 25.0366 19.0222 23.7753 19.0222V22.1925C24.1957 22.1925 24.5989 22.3595 24.8962 22.6568C25.1935 22.9541 25.3605 23.3573 25.3605 23.7777H28.5308ZM23.7753 34.874C25.0366 34.874 26.2461 34.3729 27.138 33.4811C28.0298 32.5893 28.5308 31.3797 28.5308 30.1184H25.3605C25.3605 30.5388 25.1935 30.942 24.8962 31.2393C24.5989 31.5366 24.1957 31.7036 23.7753 31.7036V34.874ZM31.7012 19.0222V34.874H34.8716V19.0222H31.7012ZM33.2864 22.1925H41.2123V19.0222H33.2864V22.1925ZM33.2864 28.5332H38.0419V25.3629H33.2864V28.5332ZM6.33833 15.8518V4.75554H3.16797V15.8518H6.33833ZM41.2123 11.0963V15.8518H44.3826V11.0963H41.2123ZM7.92351 3.17036H33.2864V0H7.92351V3.17036ZM32.1641 2.70749L41.6752 12.2186L43.9198 9.97395L34.4087 0.462873L32.1641 2.70749ZM6.33833 4.75554C6.33833 4.33512 6.50534 3.93193 6.80262 3.63465C7.0999 3.33737 7.50309 3.17036 7.92351 3.17036V0C6.66226 0 5.45267 0.501029 4.56083 1.39287C3.669 2.2847 3.16797 3.49429 3.16797 4.75554H6.33833ZM3.16797 38.0443V42.7999H6.33833V38.0443H3.16797ZM7.92351 47.5554H39.6271V44.385H7.92351V47.5554ZM44.3826 42.7999V38.0443H41.2123V42.7999H44.3826ZM39.6271 47.5554C40.8883 47.5554 42.0979 47.0544 42.9898 46.1625C43.8816 45.2707 44.3826 44.0611 44.3826 42.7999H41.2123C41.2123 43.2203 41.0453 43.6235 40.748 43.9207C40.4507 44.218 40.0475 44.385 39.6271 44.385V47.5554ZM3.16797 42.7999C3.16797 44.0611 3.669 45.2707 4.56083 46.1625C5.45267 47.0544 6.66226 47.5554 7.92351 47.5554V44.385C7.50309 44.385 7.0999 44.218 6.80262 43.9207C6.50534 43.6235 6.33833 43.2203 6.33833 42.7999H3.16797Z" fill="#316AFF"/>
</g>
<defs>
<clipPath id="clip0_76_159842">
<rect width="47.5554" height="47.5554" fill="white"/>
</clipPath>
</defs>
</svg>
