<svg width="43" height="43" viewBox="0 0 43 43" fill="none" xmlns="http://www.w3.org/2000/svg">
<g clip-path="url(#clip0_76_159950)">
<path fill-rule="evenodd" clip-rule="evenodd" d="M5.24609 6.77177C5.24609 5.28607 5.83629 3.86122 6.88684 2.81067C7.93739 1.76012 9.36224 1.16992 10.8479 1.16992H27.1178C27.684 1.16992 28.2421 1.30481 28.7458 1.5634C29.2495 1.82199 29.6844 2.19686 30.0144 2.65696L36.152 11.2064C36.5859 11.8134 36.8202 12.5407 36.8202 13.2842V35.2903C36.8202 36.776 36.23 38.2008 35.1794 39.2514C34.1289 40.3019 32.704 40.8921 31.2183 40.8921H10.8479C9.36224 40.8921 7.93739 40.3019 6.88684 39.2514C5.83629 38.2008 5.24609 36.776 5.24609 35.2903V6.77177ZM10.8479 4.22548C9.44239 4.22548 8.30165 5.36622 8.30165 6.77177V35.2903C8.30165 36.6958 9.44239 37.8366 10.8479 37.8366H31.2183C32.6239 37.8366 33.7646 36.6958 33.7646 35.2903V14.7101H27.1442C26.739 14.7101 26.3505 14.5491 26.0639 14.2626C25.7774 13.9761 25.6165 13.5875 25.6165 13.1823V4.22548H10.8479Z" fill="#28C76F"/>
<path d="M28.2548 18.8655L17.5881 28.8084L12.6992 24.2512L13.9526 23.083L17.5881 26.4635L27.0014 17.6973L28.2548 18.8655Z" fill="#28C76F"/>
</g>
<defs>
<clipPath id="clip0_76_159950">
<rect width="33.3333" height="40" fill="white" transform="translate(4.36719 1.03125)"/>
</clipPath>
</defs>
</svg>
