<svg width="35" height="36" viewBox="0 0 35 36" fill="none" xmlns="http://www.w3.org/2000/svg">
<path d="M18.959 13.5H26.9798L18.959 5.25V13.5ZM8.75065 3H20.4173L29.1673 12V30C29.1673 30.7956 28.86 31.5587 28.313 32.1213C27.7661 32.6839 27.0242 33 26.2507 33H8.75065C7.9771 33 7.23524 32.6839 6.68826 32.1213C6.14128 31.5587 5.83398 30.7956 5.83398 30V6C5.83398 5.20435 6.14128 4.44129 6.68826 3.87868C7.23524 3.31607 7.9771 3 8.75065 3ZM15.9402 18.66C16.5382 20.01 17.2965 21.12 18.1715 21.885L18.7694 22.365C17.5007 22.605 15.7507 23.025 13.8986 23.76L13.7382 23.82L14.4673 22.26C15.1236 20.955 15.6048 19.77 15.9402 18.66ZM25.3902 24.375C25.6527 24.105 25.784 23.76 25.7986 23.385C25.8423 23.085 25.7694 22.8 25.6236 22.56C25.2006 21.855 24.1069 21.525 22.2986 21.525L20.4173 21.63L19.1486 20.76C18.2298 19.98 17.3986 18.615 16.8152 16.92L16.8736 16.71C17.3548 14.715 17.8069 12.3 16.8444 11.31C16.7267 11.1924 16.5874 11.1 16.4347 11.0382C16.282 10.9764 16.1189 10.9465 15.9548 10.95H15.6048C15.0652 10.95 14.584 11.535 14.4527 12.105C13.9132 14.1 14.234 15.195 14.7736 17.01V17.025C14.409 18.345 13.9423 19.875 13.1986 21.42L11.7986 24.12L10.5007 24.855C8.75065 25.98 7.9194 27.24 7.75898 28.035C7.70065 28.32 7.72982 28.575 7.8319 28.845L7.87565 28.92L8.57565 29.385L9.21732 29.55C10.3986 29.55 11.7402 28.125 13.5486 24.945L13.8111 24.84C15.3132 24.345 17.1798 24 19.6882 23.715C21.1902 24.48 22.9548 24.825 24.0632 24.825C24.7048 24.825 25.1423 24.66 25.3902 24.375ZM24.7923 23.31L24.9236 23.475C24.909 23.625 24.8652 23.64 24.7923 23.67H24.734L24.4569 23.7C23.7861 23.7 22.7507 23.415 21.6861 22.935C21.8173 22.785 21.8757 22.785 22.0215 22.785C24.0632 22.785 24.6465 23.16 24.7923 23.31ZM11.4194 25.5C10.4715 27.285 9.61107 28.275 8.95482 28.5C9.02773 27.93 9.68398 26.94 10.7194 25.965L11.4194 25.5ZM15.8236 15.135C15.4882 13.785 15.4736 12.69 15.7215 12.06L15.8236 11.88L16.0423 11.955C16.2902 12.315 16.3194 12.795 16.1736 13.605L16.1298 13.845L15.8965 15.075L15.8236 15.135Z" fill="#EF5350"/>
</svg>
