<svg width="13" height="13" viewBox="0 0 13 13" fill="none" xmlns="http://www.w3.org/2000/svg">
<path d="M10.7656 5.68766V10.5627C10.7656 10.7243 10.7014 10.8793 10.5871 10.9936C10.4729 11.1078 10.3179 11.172 10.1562 11.172H2.84375C2.68213 11.172 2.52714 11.1078 2.41286 10.9936C2.29858 10.8793 2.23438 10.7243 2.23438 10.5627V5.68766C2.23438 5.52604 2.29858 5.37105 2.41286 5.25677C2.52714 5.14249 2.68213 5.07828 2.84375 5.07828H4.0625C4.11637 5.07828 4.16804 5.09969 4.20613 5.13778C4.24422 5.17587 4.26562 5.22754 4.26562 5.28141C4.26562 5.33528 4.24422 5.38695 4.20613 5.42504C4.16804 5.46313 4.11637 5.48453 4.0625 5.48453H2.84375C2.78988 5.48453 2.73821 5.50594 2.70012 5.54403C2.66203 5.58212 2.64062 5.63379 2.64062 5.68766V10.5627C2.64062 10.6165 2.66203 10.6682 2.70012 10.7063C2.73821 10.7444 2.78988 10.7658 2.84375 10.7658H10.1562C10.2101 10.7658 10.2618 10.7444 10.2999 10.7063C10.338 10.6682 10.3594 10.6165 10.3594 10.5627V5.68766C10.3594 5.63379 10.338 5.58212 10.2999 5.54403C10.2618 5.50594 10.2101 5.48453 10.1562 5.48453H8.9375C8.88363 5.48453 8.83196 5.46313 8.79387 5.42504C8.75578 5.38695 8.73438 5.33528 8.73438 5.28141C8.73438 5.22754 8.75578 5.17587 8.79387 5.13778C8.83196 5.09969 8.88363 5.07828 8.9375 5.07828H10.1562C10.3179 5.07828 10.4729 5.14249 10.5871 5.25677C10.7014 5.37105 10.7656 5.52604 10.7656 5.68766ZM4.61246 3.39387L6.29688 1.70946V6.90641C6.29688 6.96028 6.31828 7.01195 6.35637 7.05004C6.39446 7.08813 6.44613 7.10953 6.5 7.10953C6.55387 7.10953 6.60554 7.08813 6.64363 7.05004C6.68172 7.01195 6.70312 6.96028 6.70312 6.90641V1.70946L8.38754 3.39387C8.40641 3.41274 8.42882 3.42771 8.45347 3.43793C8.47813 3.44814 8.50456 3.4534 8.53125 3.4534C8.55794 3.4534 8.58437 3.44814 8.60903 3.43793C8.63368 3.42771 8.65609 3.41274 8.67496 3.39387C8.69383 3.375 8.7088 3.35259 8.71902 3.32794C8.72923 3.30328 8.73449 3.27685 8.73449 3.25016C8.73449 3.22347 8.72923 3.19704 8.71902 3.17238C8.7088 3.14773 8.69383 3.12532 8.67496 3.10645L6.64371 1.0752C6.62485 1.05631 6.60244 1.04133 6.57779 1.03111C6.55313 1.02089 6.52669 1.01562 6.5 1.01562C6.47331 1.01562 6.44687 1.02089 6.42222 1.03111C6.39756 1.04133 6.37515 1.05631 6.35629 1.0752L4.32504 3.10645C4.30617 3.12532 4.2912 3.14773 4.28098 3.17238C4.27077 3.19704 4.26551 3.22347 4.26551 3.25016C4.26551 3.27685 4.27077 3.30328 4.28098 3.32794C4.2912 3.35259 4.30617 3.375 4.32504 3.39387C4.36315 3.43199 4.41485 3.4534 4.46875 3.4534C4.49544 3.4534 4.52187 3.44814 4.54653 3.43793C4.57118 3.42771 4.59359 3.41274 4.61246 3.39387Z" fill="black"/>
</svg>
