<svg width="10" height="10" viewBox="0 0 10 10" fill="none" xmlns="http://www.w3.org/2000/svg">
<path d="M4.79167 5.20834H2.70834C2.64917 5.20834 2.59973 5.18834 2.56 5.14834C2.52028 5.10834 2.50028 5.05875 2.5 4.99959C2.49973 4.94042 2.51973 4.89097 2.56 4.85125C2.60028 4.81153 2.64973 4.79167 2.70834 4.79167H4.79167V2.70834C4.79167 2.64917 4.81167 2.59973 4.85167 2.56C4.89167 2.52028 4.94125 2.50028 5.00042 2.5C5.05959 2.49973 5.10903 2.51973 5.14875 2.56C5.18847 2.60028 5.20834 2.64973 5.20834 2.70834V4.79167H7.29167C7.35084 4.79167 7.40028 4.81167 7.44 4.85167C7.47972 4.89167 7.49972 4.94125 7.5 5.00042C7.50028 5.05959 7.48028 5.10903 7.44 5.14875C7.39972 5.18847 7.35028 5.20834 7.29167 5.20834H5.20834V7.29167C5.20834 7.35084 5.18834 7.40028 5.14834 7.44C5.10834 7.47972 5.05875 7.49972 4.99959 7.5C4.94042 7.50028 4.89097 7.48028 4.85125 7.44C4.81153 7.39972 4.79167 7.35028 4.79167 7.29167V5.20834Z" fill="white"/>
</svg>
