<svg width="13" height="13" viewBox="0 0 13 13" fill="none" xmlns="http://www.w3.org/2000/svg">
<path d="M8.66602 11.375V10.2917C8.66602 9.27008 8.66602 8.75983 8.3486 8.44242C8.03118 8.125 7.52093 8.125 6.49935 8.125H5.95768C4.9361 8.125 4.42585 8.125 4.10843 8.44242C3.79102 8.75983 3.79102 9.27008 3.79102 10.2917V11.375" stroke="white"/>
<path d="M3.79102 4.33398H6.49935" stroke="white" stroke-linecap="round"/>
<path d="M1.625 4.875C1.625 3.34317 1.625 2.57671 2.10112 2.10112C2.57671 1.625 3.34317 1.625 4.875 1.625H8.75983C8.98083 1.625 9.09188 1.625 9.191 1.66617C9.29013 1.70733 9.36921 1.78533 9.52575 1.94242L11.0576 3.47425C11.2147 3.63133 11.2927 3.70933 11.3338 3.809C11.375 3.90813 11.375 4.01917 11.375 4.24017V8.125C11.375 9.65683 11.375 10.4233 10.8989 10.8989C10.4233 11.375 9.65683 11.375 8.125 11.375H4.875C3.34317 11.375 2.57671 11.375 2.10112 10.8989C1.625 10.4233 1.625 9.65683 1.625 8.125V4.875Z" stroke="white"/>
</svg>
