<svg width="22" height="22" viewBox="0 0 22 22" fill="none" xmlns="http://www.w3.org/2000/svg">
<path d="M17.703 6.875C17.703 7.01175 17.6487 7.1429 17.552 7.2396C17.4553 7.3363 17.3242 7.39062 17.1874 7.39062H14.2389C14.2565 7.56194 14.2654 7.73403 14.2655 7.90625C14.264 9.2277 13.7383 10.4946 12.8039 11.429C11.8695 12.3634 10.6026 12.889 9.28117 12.8906H7.52117L14.0937 18.8684C14.1949 18.9605 14.2553 19.089 14.2618 19.2257C14.2682 19.3624 14.2201 19.496 14.128 19.5972C14.036 19.6984 13.9075 19.7589 13.7708 19.7653C13.6341 19.7717 13.5005 19.7236 13.3993 19.6316L5.8368 12.7566C5.75953 12.6863 5.70541 12.5943 5.68158 12.4927C5.65775 12.391 5.66534 12.2845 5.70334 12.1873C5.74134 12.0901 5.80797 12.0066 5.89441 11.9481C5.98084 11.8895 6.08302 11.8586 6.18742 11.8594H9.28117C10.3292 11.858 11.3339 11.4411 12.0749 10.7C12.816 9.95897 13.2329 8.95427 13.2343 7.90625C13.2336 7.73383 13.2221 7.56161 13.1999 7.39062H6.18742C6.05067 7.39062 5.91952 7.3363 5.82282 7.2396C5.72612 7.1429 5.6718 7.01175 5.6718 6.875C5.6718 6.73825 5.72612 6.6071 5.82282 6.5104C5.91952 6.4137 6.05067 6.35938 6.18742 6.35938H12.9189C12.6147 5.64622 12.1078 5.03805 11.4612 4.6103C10.8145 4.18255 10.0565 3.95405 9.28117 3.95312H6.18742C6.05067 3.95312 5.91952 3.8988 5.82282 3.8021C5.72612 3.7054 5.6718 3.57425 5.6718 3.4375C5.6718 3.30075 5.72612 3.1696 5.82282 3.0729C5.91952 2.9762 6.05067 2.92188 6.18742 2.92188H17.1874C17.3242 2.92188 17.4553 2.9762 17.552 3.0729C17.6487 3.1696 17.703 3.30075 17.703 3.4375C17.703 3.57425 17.6487 3.7054 17.552 3.8021C17.4553 3.8988 17.3242 3.95312 17.1874 3.95312H12.3122C13.1099 4.56556 13.7046 5.40406 14.0189 6.35938H17.1874C17.3242 6.35938 17.4553 6.4137 17.552 6.5104C17.6487 6.6071 17.703 6.73825 17.703 6.875Z" fill="black"/>
</svg>
