<svg width="24" height="24" viewBox="0 0 24 24" fill="none" xmlns="http://www.w3.org/2000/svg">
<path d="M20 7.423V18.385C20 18.845 19.846 19.2293 19.538 19.538C19.23 19.8467 18.8453 20.0007 18.384 20H5.616C5.15533 20 4.771 19.846 4.463 19.538C4.155 19.23 4.00067 18.8453 4 18.384V5.616C4 5.15533 4.15433 4.771 4.463 4.463C4.77167 4.155 5.156 4.00067 5.616 4H16.577L20 7.423ZM19 7.85L16.15 5H5.616C5.436 5 5.28833 5.05767 5.173 5.173C5.05767 5.28833 5 5.436 5 5.616V18.385C5 18.5643 5.05767 18.7117 5.173 18.827C5.28833 18.9423 5.436 19 5.616 19H18.385C18.5643 19 18.7117 18.9423 18.827 18.827C18.9423 18.7117 19 18.564 19 18.384V7.85ZM13.413 15.952C13.8043 15.5613 14 15.09 14 14.538C14 13.986 13.8043 13.515 13.413 13.125C13.0217 12.735 12.5507 12.5397 12 12.539C11.4493 12.5383 10.9783 12.7337 10.587 13.125C10.1957 13.5163 10 13.9873 10 14.538C10 15.0887 10.1957 15.56 10.587 15.952C10.9783 16.344 11.4493 16.5393 12 16.538C12.5507 16.5367 13.021 16.3413 13.413 15.952ZM6.768 9.769H14.191V6.769H6.77L6.768 9.769ZM5 7.85V19V5V7.85Z" fill="white"/>
</svg>
