<svg width="24" height="24" viewBox="0 0 24 24" fill="none" xmlns="http://www.w3.org/2000/svg">
<path d="M5 20C4.45 20 3.97933 19.8043 3.588 19.413C3.19667 19.0217 3.00067 18.5507 3 18V6C3 5.45 3.196 4.97934 3.588 4.588C3.98 4.19667 4.45067 4.00067 5 4H8C8.28333 4 8.521 4.096 8.713 4.288C8.905 4.48 9.00067 4.71734 9 5C8.99933 5.28267 8.90333 5.52034 8.712 5.713C8.52067 5.90567 8.28333 6.00134 8 6H5V18H8C8.28333 18 8.521 18.096 8.713 18.288C8.905 18.48 9.00067 18.7173 9 19C8.99933 19.2827 8.90333 19.5203 8.712 19.713C8.52067 19.9057 8.28333 20.0013 8 20H5ZM11 21V3C11 2.71667 11.096 2.47934 11.288 2.288C11.48 2.09667 11.7173 2.00067 12 2C12.2827 1.99934 12.5203 2.09534 12.713 2.288C12.9057 2.48067 13.0013 2.718 13 3V4H19C19.55 4 20.021 4.196 20.413 4.588C20.805 4.98 21.0007 5.45067 21 6V18C21 18.55 20.8043 19.021 20.413 19.413C20.0217 19.805 19.5507 20.0007 19 20H13V21C13 21.2833 12.904 21.521 12.712 21.713C12.52 21.905 12.2827 22.0007 12 22C11.7173 21.9993 11.48 21.9033 11.288 21.712C11.096 21.5207 11 21.2833 11 21ZM13 18H19V6H13V18Z" fill="#6F6B7D"/>
</svg>
