<svg width="15" height="15" viewBox="0 0 15 15" fill="none" xmlns="http://www.w3.org/2000/svg">
<path d="M5.99726 3.70413e-08C5.04288 -0.000101924 4.10226 0.227591 3.25358 0.664154C2.4049 1.10072 1.67268 1.73354 1.11778 2.51002C0.562876 3.2865 0.201321 4.18422 0.0631647 5.12854C-0.0749915 6.07287 0.0142419 7.03654 0.323448 7.93944C0.632654 8.84234 1.1529 9.6584 1.84095 10.3198C2.52899 10.9812 3.36496 11.4688 4.27938 11.7421C5.19379 12.0154 6.16022 12.0665 7.09836 11.8912C8.03649 11.7158 8.91922 11.3191 9.67318 10.7339L13.7119 14.7712C13.7811 14.8428 13.8638 14.8999 13.9552 14.9391C14.0467 14.9784 14.145 14.9991 14.2446 15C14.3441 15.0008 14.4428 14.9819 14.5349 14.9442C14.627 14.9065 14.7107 14.8508 14.7811 14.7805C14.8515 14.7101 14.9071 14.6264 14.9448 14.5343C14.9825 14.4421 15.0015 14.3434 15.0006 14.2439C14.9997 14.1444 14.9791 14.046 14.9398 13.9546C14.9005 13.8631 14.8434 13.7804 14.7718 13.7113L10.7346 9.67404C11.4228 8.78763 11.8484 7.72591 11.9631 6.60959C12.0778 5.49328 11.877 4.36718 11.3835 3.35934C10.8899 2.3515 10.1235 1.50237 9.17134 0.908506C8.21916 0.314642 7.11945 -0.00012467 5.99726 3.70413e-08ZM1.4998 5.99662C1.4998 4.80381 1.97363 3.65987 2.81707 2.81643C3.66051 1.97299 4.80446 1.49915 5.99726 1.49915C7.19006 1.49915 8.33401 1.97299 9.17744 2.81643C10.0209 3.65987 10.4947 4.80381 10.4947 5.99662C10.4947 7.18942 10.0209 8.33336 9.17744 9.1768C8.33401 10.0202 7.19006 10.4941 5.99726 10.4941C4.80446 10.4941 3.66051 10.0202 2.81707 9.1768C1.97363 8.33336 1.4998 7.18942 1.4998 5.99662Z" fill="#6F6B7D"/>
</svg>
