<svg width="21" height="21" viewBox="0 0 21 21" fill="none" xmlns="http://www.w3.org/2000/svg">
<path fill-rule="evenodd" clip-rule="evenodd" d="M0 10.0833C0 7.40907 1.06235 4.84433 2.95334 2.95334C4.84433 1.06235 7.40907 0 10.0833 0C12.7576 0 15.3223 1.06235 17.2133 2.95334C19.1043 4.84433 20.1667 7.40907 20.1667 10.0833C20.1667 12.7576 19.1043 15.3223 17.2133 17.2133C15.3223 19.1043 12.7576 20.1667 10.0833 20.1667C7.40907 20.1667 4.84433 19.1043 2.95334 17.2133C1.06235 15.3223 0 12.7576 0 10.0833ZM9.50791 14.399L15.3132 7.14169L14.2646 6.30276L9.31431 12.4885L5.808 9.56707L4.94756 10.5996L9.50791 14.399Z" fill="#34A853"/>
</svg>
