<svg width="24" height="24" viewBox="0 0 24 24" fill="none" xmlns="http://www.w3.org/2000/svg">
<path d="M16.2188 17.1133L15.7088 20.0723C15.643 20.3094 15.5037 20.5195 15.3109 20.6725C15.1182 20.8255 14.882 20.9134 14.6361 20.9238C14.3903 20.9341 14.1475 20.8663 13.9426 20.73C13.7377 20.5937 13.5813 20.396 13.4958 20.1653L10.7078 12.2833C10.6315 12.075 10.6162 11.8492 10.6639 11.6325C10.7117 11.4158 10.8203 11.2172 10.9771 11.0602C11.1339 10.9032 11.3323 10.7943 11.5489 10.7463C11.7655 10.6983 11.9914 10.7132 12.1998 10.7893L20.2358 13.5773C20.4745 13.6597 20.6799 13.8175 20.8211 14.0268C20.9623 14.2362 21.0315 14.4858 21.0184 14.738C21.0053 14.9901 20.9106 15.2312 20.7485 15.4248C20.5864 15.6184 20.3657 15.7541 20.1198 15.8113L17.0078 16.3213C16.8206 16.3768 16.6502 16.4782 16.5122 16.6163C16.3742 16.7545 16.273 16.925 16.2178 17.1123" stroke="#6F6B7D" stroke-width="1.5" stroke-linecap="round" stroke-linejoin="round"/>
<path d="M21.5025 9.31393C21.0023 7.71857 20.0992 6.27911 18.8804 5.13451C17.6617 3.9899 16.1685 3.1788 14.5449 2.77949C12.9213 2.38019 11.2222 2.40617 9.61164 2.85492C8.00103 3.30367 6.5333 4.16004 5.35013 5.34137C4.16696 6.5227 3.3083 7.98909 2.85704 9.599C2.40578 11.2089 2.37716 12.908 2.77393 14.5321C3.17071 16.1563 3.97948 17.6508 5.12219 18.8713C6.26489 20.0918 7.70294 20.9972 9.29752 21.4999" stroke="#6F6B7D" stroke-width="1.5" stroke-linecap="round"/>
</svg>
