<svg width="24" height="24" viewBox="0 0 24 24" fill="none" xmlns="http://www.w3.org/2000/svg">
<path d="M8.67545 7.18313C8.79265 7.06596 8.95159 7.00013 9.11732 7.00013C9.28305 7.00013 9.44199 7.06596 9.55919 7.18313L12.0592 9.68313C12.173 9.801 12.236 9.95888 12.2346 10.1228C12.2332 10.2866 12.1675 10.4434 12.0516 10.5593C11.9357 10.6751 11.7789 10.7409 11.6151 10.7423C11.4512 10.7437 11.2933 10.6807 11.1754 10.5669L9.74232 9.13375V16.375C9.74232 16.5408 9.67647 16.6997 9.55926 16.8169C9.44205 16.9342 9.28308 17 9.11732 17C8.95156 17 8.79259 16.9342 8.67538 16.8169C8.55817 16.6997 8.49232 16.5408 8.49232 16.375V9.13375L7.05919 10.5669C6.94132 10.6807 6.78344 10.7437 6.61957 10.7423C6.4557 10.7409 6.29894 10.6751 6.18306 10.5593C6.06718 10.4434 6.00145 10.2866 6.00002 10.1228C5.9986 9.95888 6.0616 9.801 6.17544 9.68313L8.67545 7.18313ZM14.7423 14.8663V7.625C14.7423 7.45924 14.8082 7.30027 14.9254 7.18306C15.0426 7.06585 15.2016 7 15.3673 7C15.5331 7 15.6921 7.06585 15.8093 7.18306C15.9265 7.30027 15.9923 7.45924 15.9923 7.625V14.8663L17.4254 13.4331C17.5433 13.3193 17.7012 13.2563 17.8651 13.2577C18.0289 13.2591 18.1857 13.3249 18.3016 13.4407C18.4175 13.5566 18.4832 13.7134 18.4846 13.8772C18.486 14.0411 18.423 14.199 18.3092 14.3169L15.8092 16.8169C15.692 16.934 15.533 16.9999 15.3673 16.9999C15.2016 16.9999 15.0426 16.934 14.9254 16.8169L12.4254 14.3169C12.3116 14.199 12.2486 14.0411 12.25 13.8772C12.2514 13.7134 12.3172 13.5566 12.4331 13.4407C12.5489 13.3249 12.7057 13.2591 12.8696 13.2577C13.0334 13.2563 13.1913 13.3193 13.3092 13.4331L14.7423 14.8663Z" fill="#316AFF"/>
</svg>
