<svg width="24" height="24" viewBox="0 0 24 24" fill="none" xmlns="http://www.w3.org/2000/svg">
<path d="M14.0405 14.8635L13.1545 17.9625C12.8225 19.1225 11.1785 19.1225 10.8465 17.9625L9.9615 14.8635C9.90547 14.6675 9.80041 14.4889 9.65624 14.3448C9.51207 14.2006 9.33354 14.0955 9.1375 14.0395L6.0385 13.1545C4.8785 12.8225 4.8785 11.1785 6.0385 10.8465L9.1375 9.9615C9.33354 9.90547 9.51207 9.80041 9.65624 9.65624C9.80041 9.51207 9.90547 9.33354 9.9615 9.1375L10.8465 6.0385C11.1785 4.8785 12.8225 4.8785 13.1545 6.0385L14.0395 9.1375C14.0955 9.33354 14.2006 9.51207 14.3448 9.65624C14.4889 9.80041 14.6675 9.90547 14.8635 9.9615L17.9625 10.8465C19.1225 11.1785 19.1225 12.8225 17.9625 13.1545L14.8635 14.0395C14.6675 14.0955 14.4889 14.2006 14.3448 14.3448C14.2006 14.4889 14.0955 14.6675 14.0395 14.8635M19.5705 19.7165L19.1945 21.2245C19.1445 21.4265 18.8575 21.4265 18.8065 21.2245L18.4295 19.7165C18.4207 19.6815 18.4025 19.6495 18.377 19.624C18.3515 19.5985 18.3195 19.5803 18.2845 19.5715L16.7765 19.1945C16.5745 19.1445 16.5745 18.8575 16.7765 18.8065L18.2845 18.4295C18.3195 18.4207 18.3515 18.4025 18.377 18.377C18.4025 18.3515 18.4207 18.3195 18.4295 18.2845L18.8065 16.7765C18.8565 16.5745 19.1435 16.5745 19.1945 16.7765L19.5715 18.2845C19.5803 18.3195 19.5985 18.3515 19.624 18.377C19.6495 18.4025 19.6815 18.4207 19.7165 18.4295L21.2245 18.8065C21.4265 18.8565 21.4265 19.1435 21.2245 19.1945L19.7165 19.5715C19.6815 19.5803 19.6495 19.5985 19.624 19.624C19.5985 19.6495 19.5793 19.6815 19.5705 19.7165ZM5.5705 5.7165L5.1945 7.2245C5.1445 7.4265 4.8565 7.4265 4.8065 7.2245L4.4295 5.7165C4.42067 5.68149 4.40253 5.64953 4.377 5.624C4.35147 5.59847 4.31951 5.58033 4.2845 5.5715L2.7765 5.1945C2.5745 5.1445 2.5745 4.8565 2.7765 4.8065L4.2845 4.4295C4.31951 4.42067 4.35147 4.40253 4.377 4.377C4.40253 4.35147 4.42067 4.31951 4.4295 4.2845L4.8065 2.7765C4.8565 2.5745 5.1445 2.5745 5.1945 2.7765L5.5715 4.2845C5.58033 4.31951 5.59847 4.35147 5.624 4.377C5.64953 4.40253 5.68149 4.42067 5.7165 4.4295L7.2245 4.8065C7.4265 4.8565 7.4265 5.1445 7.2245 5.1945L5.7165 5.5715C5.68149 5.58033 5.64953 5.59847 5.624 5.624C5.59847 5.64953 5.57933 5.68149 5.5705 5.7165Z" stroke="#6F6B7D" stroke-width="1.5" stroke-miterlimit="10" stroke-linecap="round" stroke-linejoin="round"/>
</svg>
