<svg width="19" height="19" viewBox="0 0 19 19" fill="none" xmlns="http://www.w3.org/2000/svg">
<path fill-rule="evenodd" clip-rule="evenodd" d="M13.3779 7.24285C13.4521 7.31708 13.4937 7.41774 13.4937 7.5227C13.4937 7.62766 13.4521 7.72833 13.3779 7.80256L8.62785 12.5526C8.55362 12.6268 8.45296 12.6685 8.348 12.6685C8.24304 12.6685 8.14238 12.6268 8.06815 12.5526L5.69315 10.1776C5.62104 10.1029 5.58114 10.0029 5.58205 9.89913C5.58295 9.79534 5.62458 9.69606 5.69797 9.62267C5.77136 9.54928 5.87064 9.50765 5.97443 9.50675C6.07821 9.50585 6.1782 9.54574 6.25285 9.61785L8.35077 11.7158L12.8237 7.24285C12.8979 7.16864 12.9986 7.12695 13.1035 7.12695C13.2085 7.12695 13.3092 7.16864 13.3834 7.24285H13.3779Z" fill="#00B215"/>
</svg>
