<svg width="83" height="83" viewBox="0 0 83 83" fill="none" xmlns="http://www.w3.org/2000/svg">
<path d="M52.5948 35.2329L37.0323 24.8579C36.8369 24.7275 36.6098 24.6527 36.3753 24.6413C36.1407 24.6299 35.9074 24.6825 35.7004 24.7933C35.4934 24.9042 35.3203 25.0692 35.1997 25.2707C35.0791 25.4722 35.0155 25.7027 35.0156 25.9375V46.6875C35.0154 46.9223 35.0788 47.1528 35.1993 47.3544C35.3198 47.556 35.4928 47.721 35.6997 47.832C35.9069 47.9429 36.1403 47.9955 36.375 47.9841C36.6097 47.9726 36.8369 47.8977 37.0323 47.7672L52.5948 37.3921C52.7727 37.2738 52.9185 37.1133 53.0194 36.9249C53.1203 36.7365 53.1731 36.5262 53.1731 36.3125C53.1731 36.0988 53.1203 35.8885 53.0194 35.7001C52.9185 35.5117 52.7727 35.3512 52.5948 35.2329ZM37.6094 44.2656V28.3594L49.5374 36.3125L37.6094 44.2656ZM70.0312 14.2656H12.9688C11.9369 14.2656 10.9473 14.6755 10.2177 15.4052C9.48803 16.1348 9.07812 17.1244 9.07812 18.1562V54.4688C9.07812 55.5006 9.48803 56.4902 10.2177 57.2198C10.9473 57.9495 11.9369 58.3594 12.9688 58.3594H70.0312C71.0631 58.3594 72.0527 57.9495 72.7823 57.2198C73.512 56.4902 73.9219 55.5006 73.9219 54.4688V18.1562C73.9219 17.1244 73.512 16.1348 72.7823 15.4052C72.0527 14.6755 71.0631 14.2656 70.0312 14.2656ZM71.3281 54.4688C71.3281 54.8127 71.1915 55.1426 70.9483 55.3858C70.7051 55.629 70.3752 55.7656 70.0312 55.7656H12.9688C12.6248 55.7656 12.2949 55.629 12.0517 55.3858C11.8085 55.1426 11.6719 54.8127 11.6719 54.4688V18.1562C11.6719 17.8123 11.8085 17.4824 12.0517 17.2392C12.2949 16.996 12.6248 16.8594 12.9688 16.8594H70.0312C70.3752 16.8594 70.7051 16.996 70.9483 17.2392C71.1915 17.4824 71.3281 17.8123 71.3281 18.1562V54.4688ZM73.9219 67.4375C73.9219 67.7815 73.7852 68.1113 73.542 68.3545C73.2988 68.5977 72.969 68.7344 72.625 68.7344H10.375C10.031 68.7344 9.70118 68.5977 9.45797 68.3545C9.21476 68.1113 9.07812 67.7815 9.07812 67.4375C9.07812 67.0935 9.21476 66.7637 9.45797 66.5205C9.70118 66.2773 10.031 66.1406 10.375 66.1406H72.625C72.969 66.1406 73.2988 66.2773 73.542 66.5205C73.7852 66.7637 73.9219 67.0935 73.9219 67.4375Z" fill="#6F6B7D"/>
</svg>
