<svg width="23" height="23" viewBox="0 0 23 23" fill="none" xmlns="http://www.w3.org/2000/svg">
<path d="M2.61523 19.1673L11.499 3.83398L20.3827 19.1673H2.61523ZM4.26357 18.209H18.7344L11.499 5.75065L4.26357 18.209ZM11.9149 16.7082C12.0312 16.592 12.0893 16.4533 12.0893 16.2923C12.0893 16.1313 12.0312 15.9927 11.9149 15.8764C11.7986 15.7601 11.66 15.7023 11.499 15.7029C11.338 15.7036 11.1993 15.7614 11.0831 15.8764C10.9668 15.9914 10.9087 16.13 10.9087 16.2923C10.9087 16.4546 10.9668 16.5932 11.0831 16.7082C11.1993 16.8232 11.338 16.8811 11.499 16.8817C11.66 16.8823 11.7986 16.8245 11.9149 16.7082ZM11.0198 14.7437H11.9782V9.95198H11.0198V14.7437Z" fill="#FF8D28"/>
</svg>
