<svg width="18" height="18" viewBox="0 0 18 18" fill="none" xmlns="http://www.w3.org/2000/svg">
<g clip-path="url(#clip0_76_155591)">
<path d="M9.91003 14.5607C9.21732 15.0784 8.28398 15.0784 7.59128 14.5607C5.53503 13.0221 1.45898 9.50534 1.45898 6.34003C1.45898 4.24878 2.99388 2.55273 5.10482 2.55273C6.19857 2.55273 7.29232 2.91732 8.75065 4.37565C10.209 2.91732 11.3027 2.55273 12.3965 2.55273C14.5074 2.55273 16.0423 4.24878 16.0423 6.34003C16.0423 7.13409 15.7864 7.9493 15.37 8.75065M10.209 11.6673H12.7611M12.7611 11.6673H15.3132M12.7611 11.6673V9.11523M12.7611 11.6673V14.2194" stroke="#535354" stroke-width="1.2" stroke-linecap="round" stroke-linejoin="round"/>
</g>
<defs>
<clipPath id="clip0_76_155591">
<rect width="17.5" height="17.5" fill="white"/>
</clipPath>
</defs>
</svg>
